<?xml version="1.0" standalone="no"?>
<!DOCTYPE svg PUBLIC "-//W3C//DTD SVG 1.1//EN" "http://www.w3.org/Graphics/SVG/1.1/DTD/svg11.dtd" >
<svg xmlns="http://www.w3.org/2000/svg">
<metadata>
This is a custom SVG webfont generated by Font Squirrel.
Copyright   : Copyright c 2011 TypeSETit LLC typesetitattnetwith Reserved Font Name Arizonia
Designer    : Robert E Leuschke
Foundry     : Robert E Leuschke
</metadata>
<defs>
<font id="ArizoniaRegular" horiz-adv-x="897" >
<font-face units-per-em="2048" ascent="1638" descent="-410" />
<missing-glyph horiz-adv-x="546" />
<glyph unicode=" "  horiz-adv-x="546" />
<glyph unicode="&#x09;" horiz-adv-x="546" />
<glyph unicode="&#xa0;" horiz-adv-x="546" />
<glyph unicode="!" horiz-adv-x="796" d="M96 61q4 41 37 76t73 46.5t66.5 -9t22.5 -61.5t-37 -76q-33 -37 -74 -48.5t-65 11.5q-27 20 -23 61zM265.5 448.5q21.5 135.5 94 282t144.5 225.5q57 63 110.5 100.5t88 46.5t61.5 5t38 -15.5t11 -21.5q0 -25 -30.5 -57.5t-86 -78.5t-80.5 -71q-53 -55 -107 -131 t-94 -148.5t-68 -142t-29 -110.5t22 -51q11 -3 8 -11t-16 -2q-88 45 -66.5 180.5z" />
<glyph unicode="&#x22;" horiz-adv-x="643" d="M8 470q0 6 8 7q88 8 162 85t86 167l-8 -10q-37 -35 -80 -45t-65.5 10.5t-12 60t46.5 76.5q41 41 94.5 47t82.5 -37q27 -47 -10.5 -133t-120 -157.5t-171.5 -77.5q-13 -2 -12 7zM292 470q-1 6 7 7q90 8 164 85t86 167l-10 -10q-37 -35 -79 -45t-64.5 10.5t-13.5 60 t46 76.5q41 41 94 47t82 -37q27 -47 -10 -133t-119 -157.5t-170 -77.5q-13 -2 -13 7z" />
<glyph unicode="#" horiz-adv-x="1458" d="M42 580h5q125 -8 219 -11q82 133 187 293q-375 4 -387 21q-1 2 -10 9q-67 64 -11 60q213 -10 455 -16q260 385 284 385q2 0 15 3q67 14 65 -7q-1 -7 -10 -19q-139 -184 -268 -364q186 -4 364 0q256 387 285 387q2 0 15 3q67 14 64 -7q-1 -7 -9 -19q-106 -137 -267 -362 q51 2 144.5 1t154 1t97.5 10q30 6 30 -15q0 -24 -47 -36q-31 -8 -92 -11t-166.5 -6t-163.5 -6q-123 -178 -213 -315q315 0 445 25q29 6 29 -15q0 -24 -46 -37q-123 -31 -471 -40q-133 -209 -186 -330q-11 -27 -29 -16q-20 13 -4 59q31 86 148 284q-154 -2 -379 3 q-137 -219 -187 -330q-11 -27 -28 -16q-20 13 -4 59q33 92 149 289q-143 4 -151 14q-2 2 -12 13q-60 59 -14 59zM336 567q238 -8 373 -8q87 143 198 311q-246 -8 -370 -8q-41 -57 -201 -295z" />
<glyph unicode="$" horiz-adv-x="1085" d="M147 424q51 -47 150.5 -63.5t202.5 -6.5l155 264q-61 25 -109 75t-40 102q10 70 54 123t119 87.5t135 53t149 39.5q106 158 122 157q2 0 8.5 1t9.5 0t8 -1t7 -4t2 -9t-5 -14t-15 -22q-18 -25 -72 -98q10 2 31 2q133 0 123 -92q-2 -23 -44 -69t-90.5 -90t-87 -101.5 t-34.5 -102.5q-29 23 -36 55.5t6 67.5t29.5 63.5t39.5 55.5q57 70 137 123q-25 41 -148 -14q-113 -162 -247 -381l41 -19q115 -57 117.5 -154.5t-99.5 -146.5q-35 -18 -86 -27.5t-116.5 -13.5t-69.5 -4q-94 -172 -134 -268q-14 -34 -22.5 -15.5t8.5 68.5q33 88 103 215 q-98 0 -189.5 41t-112.5 123zM549 360q33 4 57 13q33 10 72 31.5t71.5 50t32.5 64.5t-47 65q-10 8 -43 18q-47 -76 -143 -242zM584 719q-2 -25 19.5 -42.5t66.5 -35.5q61 102 215 342q-131 -57 -213 -137t-88 -127z" />
<glyph unicode="%" horiz-adv-x="1337" d="M106 786q12 61 76 144.5t123 130.5q70 57 156 78.5t172 -11.5q25 -14 37 -26q27 -10 70.5 -6t70.5 12q199 60 234 50q31 -10 -7 -60q-223 -297 -493.5 -730.5t-364.5 -654.5q-15 -36 -25 -16.5t9 74.5q59 168 321.5 615.5t411.5 645.5q-86 -43 -199 25q41 -115 -94 -266 q-95 -101 -252 -156q-185 -63 -236 28q-25 44 -10 123zM143 759q-18 -81 33 -106q45 -23 137.5 15.5t169.5 122.5q53 57 74 111t13 87t-35 45q-123 60 -261 -66q-106 -97 -131 -209zM686 205q12 61 74.5 143t124.5 133q70 57 156.5 79t170.5 -11q51 -27 67.5 -78t-7 -120.5 t-88.5 -139.5q-93 -101 -251 -156q-183 -63 -236 25q-27 44 -11 125zM722 175q-16 -79 34 -103q47 -23 139 16t170 123q51 57 71.5 110.5t12.5 87.5t-33 46q-125 60 -264 -69q-106 -99 -130 -211z" />
<glyph unicode="&#x26;" horiz-adv-x="1308" d="M6 259.5q12 62.5 79 134t185 136.5l107 60q37 340 428 581q204 127 322 86q84 -30 62 -124t-145 -193q-45 -37 -109.5 -80t-113.5 -72.5t-131 -77.5t-121 -71l-59 -37q-4 -92 18 -182q156 88 340 119q318 60 349 -90q16 -82 -67 -165t-198.5 -138.5t-255.5 -98.5 q125 -170 275 -231q181 -77 236 -16q39 42 -10 106q-66 85 -198 79q-17 -1 -34 -3q-12 -2 -13 3q-3 11 19 20q5 2 10 3q212 34 289 -62q52 -66 5 -136q-60 -86 -204 -66q-57 8 -121 35q-211 90 -354 239q-77 -18 -129 -24q-106 -12 -198.5 4t-155 52t-91 91.5t-16.5 118z M85 157.5q5 -71.5 105.5 -109.5t286.5 -17q61 8 92 14q-104 121 -149 240q-63 -37 -86 -58q-2 -2 -7 -6q-6 -8 -8 -7t0 13q6 45 78 105l4 2q-29 96 -28 184l-60 -37q-113 -78 -173 -165t-55 -158.5zM518 666q37 23 124 72.5t151.5 92t117.5 89.5q116 102 100 175 q-13 61 -106 43q-67 -13 -151 -71q-211 -143 -236 -401zM547 344q43 -145 129 -270q250 78 408 215q123 106 70 154q-50 45 -249 10q-158 -27 -358 -109z" />
<glyph unicode="'" horiz-adv-x="305" d="M8 470q0 6 8 7q88 8 162 85t86 167l-8 -10q-37 -35 -80 -45t-65.5 10.5t-12 60t46.5 76.5q41 41 94.5 47t82.5 -37q27 -47 -10.5 -133t-120 -157.5t-171.5 -77.5q-13 -2 -12 7z" />
<glyph unicode="(" horiz-adv-x="741" d="M132 153.5q-3 75.5 14.5 173t52 208t91 226.5t127 220t164 196.5t197.5 149.5q45 25 62 7q14 -16 -23 -42q-111 -72 -215 -234.5t-165.5 -345t-81 -363.5t37.5 -288q16 -31 80 -41q10 -2 18.5 -15t-4.5 -19q-33 -12 -98 -17.5t-137 11t-94.5 57.5t-25.5 116.5z" />
<glyph unicode=")" horiz-adv-x="817" d="M67 -98q-15 16 23 41q111 74 215.5 236.5t165.5 345t80.5 362.5t-37.5 287q-14 31 -80 40q-10 2 -18 16.5t4 18.5q33 14 98.5 18.5t137 -12t94 -57.5t25.5 -115.5t-14.5 -173t-52 -208t-91 -225.5t-127 -220t-164 -196.5t-197.5 -149.5q-44 -26 -62 -8z" />
<glyph unicode="*" horiz-adv-x="1093" d="M46 328.5q3 9.5 17 11.5q133 25 367 104q-129 123 -246 283q-15 22 2 34q11 8 23 -5q98 -102 293 -248q119 207 252 356q8 10 19 10t15.5 -8t-2.5 -20q-141 -213 -188 -363q80 12 144.5 19.5t109.5 8.5t66.5 1t52.5 -4l30 -4q12 0 18.5 -9.5t2.5 -18.5t-16 -9 q-209 -20 -385 -64q133 -80 284 -223q18 -18 5 -33q-9 -10 -23 0q-129 88 -340 189q-78 -221 -168 -367q-14 -24 -32 -11q-11 8 -3 24q55 143 107 370q-182 -41 -379 -49q-14 0 -21.5 8t-4.5 17.5z" />
<glyph unicode="+" d="M179.5 345q-1.5 28 8 56.5t23.5 28.5q143 14 289 14q86 141 190 246q19 19 72 6q30 -8 18 -18q-109 -113 -196 -234q195 -1 297 -30q12 -4 13 -16.5t-8 -22.5t-24 -10q-172 14 -332 0q-131 -201 -141 -347q0 -14 -11 -18t-21.5 2t-10.5 21q12 150 107 335 q-90 -10 -258 -39q-14 -2 -15.5 26z" />
<glyph unicode="," horiz-adv-x="468" d="M-20 -213q0 5 8 6q90 8 163.5 85t86.5 167l-11 -8q-37 -37 -79 -47t-64.5 10t-13 61t46.5 76q41 41 94 47t82 -37q27 -47 -10 -133t-119 -157.5t-170 -77.5q-13 0 -14 8z" />
<glyph unicode="-" d="M179.5 345q-1.5 28 8 56.5t23.5 28.5q293 29 502 -2q25 -4 23 -23q0 -14 -19 -14q-96 -2 -174 -12t-188.5 -30.5t-159.5 -29.5q-14 -2 -15.5 26z" />
<glyph unicode="." horiz-adv-x="413" d="M96 61q4 41 37 76t73 46.5t66.5 -9t22.5 -61.5t-37 -76q-33 -37 -74 -48.5t-65 11.5q-27 20 -23 61z" />
<glyph unicode="/" horiz-adv-x="1218" d="M31 -188q45 129 256 471t409.5 627.5t221.5 285.5q3 0 19 3q80 16 80 -7q1 -9 -11 -25q-262 -340 -553 -771t-379 -638q-15 -32 -37 -19q-27 15 -6 73z" />
<glyph unicode="0" horiz-adv-x="1105" d="M70 244q45 221 321 454q78 63 167 105.5t192.5 55.5t191.5 -32q88 -43 116.5 -130t-13 -205.5t-152.5 -237.5q-138 -149 -367 -245q-265 -111 -391 -31q-106 67 -65 266zM156 285q-70 -180 13 -250q10 -9 24 -15q76 -37 220 26t277 206q88 96 123 188t20.5 150t-57.5 78 q-187 91 -394 -76q-155 -125 -226 -307z" />
<glyph unicode="1" horiz-adv-x="634" d="M25.5 499q1.5 21 31.5 38q37 20 206 149t306 200.5t205 26.5q16 -12 9 -20q-3 -3 -11 -2q-53 6 -118.5 -65.5t-129 -194.5t-116 -241t-106.5 -246t-75 -171q-100 14 -139 84q-25 45 10 146q90 250 260 471q-117 -78 -303 -178q-31 -18 -29.5 3z" />
<glyph unicode="2" horiz-adv-x="1193" d="M-53 -3.5q-4 19.5 9 48.5t44 58.5t101.5 60.5t170.5 49q72 14 111 33q348 150 479 223q92 53 132 117.5t28 118t-57 93.5t-109 50q-233 34 -424 -67q-102 -54 -108 -102q-6 -52 122 -33q35 5 78 16q166 41 238 116q8 8 12 0q18 -55 -73 -113.5t-160 -74.5 q-263 -65 -320 10q-38 50 45 127q63 59 198.5 112.5t282 79t279.5 -1t184 -116.5q47 -68 2 -165t-178 -181q-141 -90 -549 -228q111 -2 217.5 -18t200.5 -48t146.5 -89.5t40.5 -130.5q-3 -17 -12 -18q-6 -1 -8 6q-1 4 1 10q10 35 -38 62.5t-133 43.5t-188.5 22.5t-215 -1 t-201.5 -25.5q-35 -8 -94.5 -26.5t-96 -31t-84 -19.5t-59.5 7q-10 6 -14 25.5z" />
<glyph unicode="3" horiz-adv-x="1230" d="M-8 -33q-25 154 262 273q98 39 270 49t234 -10q16 -4 25.5 -13.5t3 -15.5t-30.5 -4q-53 4 -231.5 -35t-309.5 -94q-106 -45 -144 -91t-13.5 -79t88 -53.5t149.5 -20.5q198 0 426 103q238 108 271 238q25 96 -81 181q-82 68 -202 78q-60 5 -61 33q-1 37 106 43 q102 6 187 52t75 138q-6 78 -100.5 115t-272.5 -2q-114 -29 -143 -88q-20 -41 26 -62q70 -33 119 -38q14 -2 11 -14q-2 -9 -17 -9q-117 -6 -205 33q-70 29 -37 92q23 41 88.5 76t143.5 51q51 12 110.5 21.5t145.5 13.5t152.5 -6.5t116.5 -46.5t52 -97q2 -63 -83 -137 t-183 -106q92 -8 145 -50q59 -49 71.5 -122.5t-19 -149.5t-107.5 -149.5t-180 -122.5q-143 -68 -327.5 -108t-348.5 -13.5t-182 147.5z" />
<glyph unicode="4" horiz-adv-x="872" d="M0 296q0 7 6 18.5t17 21.5q33 33 135 108q45 33 159.5 123t204.5 157t194.5 136.5t180.5 96t111 1.5q16 -12 8 -20q-3 -3 -10 -2q-86 8 -197 -148.5t-205 -369.5q143 -10 225 -54.5t64 -123.5q-3 -17 -15 -14q-8 2 -4 12q15 40 -65 66q-87 28 -242 28q-59 -152 -69 -213 q-18 -115 57 -152q4 -4 1 -8t-9 -6q-154 -16 -199 90q-45 100 37 281q-78 -8 -117 -15q-33 -6 -104.5 -25.5t-100.5 -19.5q-53 0 -59 21q-4 4 -4 11zM158 383q102 27 272 37q23 43 90 153q74 123 101 158q-25 -16 -103 -74.5t-188.5 -142.5t-171.5 -131z" />
<glyph unicode="5" horiz-adv-x="1253" d="M8 43q-23 135 228 238q84 33 234.5 42t201.5 -8q29 -8 28 -21q-1 -9 -28 -7q-47 2 -202 -32t-267 -81q-188 -79 -148 -149q35 -62 200 -71q206 -10 382 81q127 66 185.5 135.5t48 127.5t-73.5 112q-47 39 -153.5 64.5t-242.5 23.5l-41 -45q-22 -25 -52 -12q-30 16 1 46 q180 156 299 285q-31 27 -40 57.5t-5 51t15 26.5q10 12 41.5 8t55 -13t61.5 -22.5t61 -19.5q154 -37 349 1t189 112q0 9 6 12q7 -6 9 -14q-2 -80 -75 -141.5t-169 -86t-194.5 -37t-155.5 4.5q-66 12 -111 37q-31 -33 -95.5 -97.5t-92.5 -95.5q86 16 174 21.5t184 -12 t154 -62.5q119 -102 48 -245.5t-265 -236.5q-92 -45 -254 -79.5t-317.5 -17t-172.5 119.5z" />
<glyph unicode="6" horiz-adv-x="993" d="M96 44q-98 118 0 362q100 246 344 436t518 237q46 7 52 -11q3 -10 -17 -18q-5 -1 -12 -3q-188 -43 -435 -280t-341 -488q-37 -109 -36 -167.5t38 -71.5t86 0t108 48q88 53 146 113q203 209 225 315q15 72 -63 48q-108 -34 -277 -182q-65 -57 -94 -95q-30 -38 -41.5 -22.5 t22.5 54.5q135 154 295 242q205 114 302 51q81 -53 26 -190q-46 -114 -176 -238q-133 -127 -324 -184q-248 -74 -346 44z" />
<glyph unicode="7" horiz-adv-x="741" d="M61 615q-5 8 7 20q35 31 62.5 95.5t27.5 113.5q-1 88 33 84q22 -3 34 -27q2 -3 2 -6q0 -12 -4 -27.5t-4 -21.5q96 -23 193.5 -17.5t253 22.5t182.5 17q53 1 63 -22q-84 6 -225 -154q-102 -111 -245.5 -299t-178.5 -282q-45 -117 21 -152q6 -4 -0.5 -9t-10.5 -5 q-102 -12 -144 49t-11 137q27 72 124 181.5t248.5 254t163.5 158.5q-43 -25 -182 -25q-182 0 -268 86q-12 -33 -48 -88t-61 -80q-23 -19 -33 -3z" />
<glyph unicode="8" horiz-adv-x="933" d="M8 100q-6 43 22.5 90.5t81 88t95.5 68.5t88 52l151 82q-193 68 -182 156q10 94 106.5 174t220.5 118t253 37t200 -55l15 -12q63 72 65 133q0 18 10.5 24.5t18.5 -2t8 -26.5q-6 -76 -78 -170q12 -37 -8 -90q-4 -8 -10 -13t-10 -2t-4 17q0 31 -4 43q-127 -143 -435 -352 q100 -33 156.5 -88.5t54.5 -116.5q-2 -86 -92 -155.5t-198.5 -101.5t-192.5 -30q-137 0 -228.5 32t-103.5 99zM222 69q17 -60 126 -61q193 -4 323 97q118 91 75 192q-34 80 -171 137l-161 -110q-221 -159 -192 -255zM496 694q-86 -108 8 -182q360 199 512 342l-10 6 q-98 49 -266.5 -10t-243.5 -156z" />
<glyph unicode="9" horiz-adv-x="903" d="M39 455q31 132 154 262q123 131 305 185t305 -13q227 -142 10 -451q-10 -16 -42 -54t-69.5 -84t-86 -104.5t-93.5 -119t-88 -123t-72.5 -118.5t-46 -104t-9.5 -84t38 -53q10 -4 -5 -12q-4 -2 -5 -2q-129 16 -125 135q4 90 53 203t141.5 239t152.5 200.5t157 185.5 q16 21 8 22q-213 -213 -340 -291q-185 -110 -289 -32q-88 65 -53 213zM191 310q11 -70 120 -24q109 47 256 193q8 6 37 35l37 37q8 8 31.5 32.5t35 39t29 37t30 44t24.5 46.5q33 66 1 89t-98 7q-74 -20 -167 -76.5t-160 -136.5q-191 -224 -176 -323z" />
<glyph unicode=":" horiz-adv-x="522" d="M94 61q4 41 37 76t73 46.5t66.5 -9t22.5 -61.5t-37 -76q-33 -37 -73 -47t-66.5 10t-22.5 61zM281.5 404.5q5.5 39.5 37.5 74.5q31 35 72 46t68 -9q25 -20 20.5 -61t-37.5 -76q-33 -37 -72.5 -47t-66.5 10q-27 23 -21.5 62.5z" />
<glyph unicode=";" horiz-adv-x="522" d="M8 -213q0 5 8 6q88 8 162 85t86 167l-8 -8q-37 -37 -80 -48.5t-65.5 11.5t-12 62.5t46.5 74.5q41 41 94.5 47t82.5 -37q27 -47 -10.5 -133t-120 -157.5t-171.5 -77.5q-13 0 -12 8z" />
<glyph unicode="&#x3c;" horiz-adv-x="606" d="M64.5 372q-3.5 3 4 9t23.5 16l51 29q135 82 255 177t149 159q10 21 48 24q16 1 17 -6q1 -3 -2 -6q-63 -137 -372 -328q53 -23 104 -84t70.5 -139.5t-41.5 -150.5q-51 -57 -51 -39q0 6 10 22q27 55 4 124t-90.5 128.5t-134.5 59.5q-23 0 -32 1t-12.5 4z" />
<glyph unicode="=" d="M105.5 143.5q-1.5 26.5 8 55t23.5 30.5q260 25 504 -2q14 -2 20.5 -11t1 -18.5t-19.5 -9.5q-94 -2 -174 -12t-184.5 -29.5t-163.5 -27.5q-14 -2 -15.5 24.5zM179.5 376.5q-1.5 26.5 8 55.5t23.5 31q264 25 502 -2q14 -2 20 -11.5t2 -18.5t-18 -9q-96 -2 -176 -12.5 t-184.5 -30t-161.5 -27.5q-14 -2 -15.5 24.5z" />
<glyph unicode="&#x3e;" horiz-adv-x="602" d="M39 27q68 135 375 325q-51 23 -103.5 84.5t-73 141t43.5 151.5q51 57 51 38q0 -6 -10 -22q-27 -55 -4.5 -123.5t90 -128t135.5 -59.5q29 0 38 -2t4 -9.5t-28 -21.5q-6 -4 -45 -26q-133 -82 -256 -178.5t-152 -157.5q-10 -22 -49 -25q-18 2 -16 13z" />
<glyph unicode="?" horiz-adv-x="1144" d="M60.5 858q15.5 49 78 112.5t162.5 125.5q98 57 197 96q329 129 492 114q145 -12 192 -122q29 -80 14.5 -145.5t-73 -131t-131 -118t-163 -105.5t-168 -96t-145 -88t-96.5 -80q-45 -51 -17 -80q8 -8 6.5 -18.5t-11 -13.5t-19.5 3q-96 86 176 273q154 111 375 278 q225 210 106 303q-93 73 -322 40q-112 -16 -210 -56q-111 -47 -197 -96q-88 -53 -142 -103.5t-62.5 -82t16 -46t100.5 2t184 65.5q121 55 227.5 124.5t139.5 125.5q0 2 2 4q4 10 12 0q18 -27 -20 -82q-135 -199 -305 -273q-100 -45 -185.5 -60t-136.5 -2t-71.5 48t-5 84z M144.5 62.5q5.5 39.5 37.5 74.5q31 35 72 46t68 -9q25 -20 20.5 -61t-37.5 -76q-33 -37 -72.5 -47t-66.5 10q-27 23 -21.5 62.5z" />
<glyph unicode="@" horiz-adv-x="1241" d="M5 414.5q-13 101.5 16.5 204t106.5 197.5t189 157q164 88 372 93t331 -93.5t47 -278.5q-35 -86 -121 -168q-117 -113 -170 -139q-90 -45 -147.5 2t-40.5 131l6 27q-49 -86 -129 -141q-53 -37 -104.5 -40.5t-83 24.5t-49 72t-5 104.5t52.5 119.5q59 84 166 119t197 -10 q53 -27 78 -66q33 0 63.5 -21.5t7.5 -62.5q-53 -88 -63 -113q-33 -76 -14.5 -105.5t98.5 17.5q88 57 159.5 150.5t55.5 185.5q-16 98 -135 161t-274.5 61.5t-274.5 -68.5q-131 -76 -201.5 -181.5t-67.5 -207t54 -186.5t167 -129t265 -25q288 35 482 269q142 171 152 334 q7 119 -69 153q-17 6 -3 15q6 4 14 1q119 -52 85 -236q-35 -198 -207 -385q-224 -244 -511 -270q-150 -12 -260.5 30t-166 119.5t-68.5 179zM355 449.5q3 -27.5 19.5 -38t44 0t66.5 44t78 89.5q2 2 15.5 18.5t23.5 29.5t24.5 34.5t23.5 40t15.5 37t3 32t-17.5 21.5 q-47 27 -111.5 -6t-115.5 -117q-37 -59 -54.5 -108.5t-14.5 -77z" />
<glyph unicode="A" horiz-adv-x="2109" d="M-41 249q61 169 340 285q153 63 354 99q220 40 420 40q190 0 361 -36q76 -16 141 -37q55 57 163.5 171t172 179.5t150.5 148.5t159 138q106 84 210 120q80 28 141 28q18 -1 35 -3q73 -10 117.5 -27t67.5 -40q3 -3 3 -6t-3 -7q-6 -6 -12 1q-12 12 -41 23q-28 12 -82 16 q-16 1 -32 1q-38 1 -82 -7q-62 -10 -147 -50.5t-171 -107.5q-72 -57 -159 -137t-140 -134.5t-162.5 -168t-148.5 -152.5q205 -76 223 -199q2 -12 -1 -16t-8 0t-7 12q-16 39 -114.5 61.5t-180.5 28.5l-23 2q-416 -401 -735 -510q-154 -53 -310 -59q-30 -1 -58 -1 q-118 1 -200 21q-101 26 -153 64q-103 80 -103 180q0 38 15 79zM150 1q7 -6 14 -11q59 -44 222 -50q14 0 28 -1q153 0 346 55q291 90 692 485q-62 3 -126 3q-274 0 -574 -56q-463 -83 -602 -244q-44 -51 -44 -96.5t44 -84.5zM1825 53q-13 59 -13 118q0 100 37 202 q43 125 145.5 284.5t199 276.5t185.5 218t93 110q11 17 19 17q9 0 14 -25q3 -15 3 -28q0 -25 -11 -38q-61 -76 -132 -179.5t-152 -237.5t-143.5 -272.5t-102.5 -267.5q-34 -109 -34 -204q-1 -17 1 -35q8 -110 69 -174q4 -2 3 -8.5t-5 -8.5q-1 -1 -3 -1q-3 0 -7 3 q-131 92 -166 250z" />
<glyph unicode="B" horiz-adv-x="1316" d="M41 166q20 86 167.5 312.5t293 415.5t170.5 189q12 0 20 -11t6 -23q-256 -322 -307 -387q479 80 715 202q140 74 196 156q26 38 26 71q0 37 -34 69q-64 58 -256 59q-168 0 -459.5 -83t-406.5 -182q-35 -27 -22 -47q8 -14 1.5 -16t-16.5 6q-43 25 -59 76q-8 24 -8 40 q0 19 10 29q88 127 408.5 226.5t508.5 99.5q152 0 261 -30q108 -30 150 -86q34 -44 34 -96q0 -12 -2 -26q-10 -66 -94.5 -145.5t-229.5 -153.5q-150 -78 -364 -126q75 7 141 7q101 0 181 -16q132 -28 189.5 -88.5t62.5 -142.5v-16q0 -74 -42 -152q-47 -86 -140 -171 t-218 -146q-203 -98 -469 -99q-113 0 -200 23.5t-113.5 41t-63.5 48.5q-38 31 -20 31q12 0 36 -11q75 -26 221 -26h11q123 0 280.5 31.5t280.5 101.5q102 57 167.5 137t77.5 156q3 20 2 38q0 54 -24 100q-33 64 -132 98q-73 25 -173 25q-35 0 -74 -3q-135 -12 -270 -59.5 t-178 -110.5q-47 -68 -80 -124t-66 -119.5t-51 -96.5q-12 -30 -36 -29q-12 1 -12 15q0 7 3 18z" />
<glyph unicode="C" horiz-adv-x="1472" d="M49 328q0 274 297 542q223 201 536.5 346.5t583.5 145.5q70 0 136.5 -16.5t121 -64.5t54.5 -120q0 -100 -101.5 -201.5t-244 -173t-284.5 -120t-235 -56.5q-20 -2 -57 -2q-23 0 -54.5 3t-68.5 14.5t-37 29.5q0 10 13 11q4 0 20 -4.5t31 -4.5q98 0 291.5 87t355.5 216.5 t162 227.5q0 63 -62.5 87.5t-136.5 24.5q-240 0 -516 -137t-477 -323q-270 -252 -271 -480q0 -98 49.5 -171.5t130.5 -113.5t168 -58.5t177 -18.5q86 0 211 18q217 39 371.5 102.5t310.5 190.5q8 4 10 4q10 0 10 -12q0 -6 -8 -18q-154 -166 -428 -271.5t-514 -105.5 q-139 0 -258 41t-203 140t-84 241z" />
<glyph unicode="D" horiz-adv-x="1726" d="M-10 95q6 3 30 -15q111 -78 414 -86h23q244 0 530 80q299 84 510 245q158 119 240 240t86 221v12q-1 92 -55 172q-58 85 -168 139q-110 53 -268 77q-94 14 -197 14q-71 0 -146 -6q-242 -23 -479 -111q-236 -87 -360 -203q-78 -73 -78 -138q0 -37 26 -70q15 -20 0 -28 q-7 -4 -16 5q-30 33 -46 95q-7 25 -6 54q0 42 14 93q24 86 103 149q160 127 446 212t564 85q225 0 386 -68.5t235 -178.5t84 -250q1 -20 2 -39q0 -121 -50 -240q-58 -139 -185.5 -271t-303.5 -223q-213 -109 -497 -157q-157 -26 -301 -26q-116 0 -224 18q-240 38 -305 167 q-10 20 -10 28q0 3 2 4zM293 207q33 129 313.5 524t319.5 395h10h12q4 0 10 -2q8 -2 8 -7q0 -3 -2 -9q-4 -8 -14 -18q-174 -193 -373.5 -483t-254.5 -437q-7 -16 -15 -16q-4 0 -9 4q-9 8 -9 24q0 11 4 25z" />
<glyph unicode="E" horiz-adv-x="1708" d="M39 377q14 98 74.5 210.5t162.5 221.5q178 190 432.5 339.5t456.5 199.5q126 25 241 25q2 -1 5 -1q117 0 202 -54t91 -155v-12q0 -69 -41 -154q-12 -24 -18 -7q-3 8 2 18q18 42 18 73q0 87 -139 94q-15 1 -32 1q-210 0 -561 -145q-375 -155 -579 -345 q-126 -118 -192 -226q-68 -110 -68 -194q0 -80 44 -144q44 -66 136 -98q94 -32 216 -42q31 -3 64 -3q98 0 214 23q303 55 594 211t428 354q27 40 27 20q0 -8 -5 -24q-55 -156 -374.5 -364.5t-646.5 -280.5q-137 -26 -255 -26h-28q-129 4 -222 44.5t-155.5 103t-84.5 150.5 q-13 54 -13 111q0 37 6 76zM356 605q-1 4 -1 8q0 21 35 49q42 34 151 55q67 17 161 16q80 1 178 -11q214 -26 281 -101q13 -15 13 -27q0 -6 -4 -12q-11 -16 -42 4q-66 47 -215 50h-21q-140 0 -298 -36q-25 -4 -66 -15.5t-58 -15.5t-49 -6h-10q-23 0 -28 8q-19 10 -27 34z " />
<glyph unicode="F" horiz-adv-x="1361" d="M-4 849q-1 10 -1 20q0 53 34 113q41 71 127 118q197 113 472 183.5t511 74.5q20 1 38 1q125 1 211 -23q99 -26 138 -77t48 -111q2 -15 2 -32q0 -46 -20 -100q-26 -72 -63 -133.5t-86 -120.5l-76 -90q31 -16 55 -41q20 -25 10 -40.5t-40 5.5q-23 14 -64 29 q-283 -338 -354 -435q-2 -4 -24.5 -33.5t-29.5 -40t-25.5 -37t-26 -43t-17.5 -41t-13 -46t-3 -41.5q0 -68 50 -68q15 0 34 6q17 5 16 -5t-16 -15q-30 -10 -54 -10q-33 0 -54 19q-34 30 -34 79v5q2 52 27 95q47 88 123 191.5t187.5 244t148.5 189.5q-52 7 -111 7 q-132 0 -297 -36q-25 -4 -64.5 -15t-58 -15.5t-50.5 -6.5t-38 9q-18 10 -26 32l-2 8q0 20 35 50q42 35 151 55q64 12 156 12q40 0 88 -2q152 -8 260 -41q92 128 127 224q22 60 22 104q1 26 -7 46q-20 54 -73 85t-143 34q-20 1 -40 1q-71 0 -144 -8q-94 -10 -207 -35 q-370 -79 -598 -184q-169 -78 -169 -143q0 -34 46 -64q13 -9 -7 -10q-13 0 -22 6q-51 35 -59 97z" />
<glyph unicode="G" horiz-adv-x="1867" d="M20 360q15 99 75.5 211.5t162.5 221.5q178 190 431 338.5t458 197.5q129 27 246.5 27t201.5 -55.5t91 -155.5v-12q0 -70 -41 -154q-12 -24 -18 -7q-3 8 1 19q18 41 18 72q0 87 -139 95q-15 1 -31 1q-211 0 -562 -147q-375 -156 -578 -344q-125 -117 -192 -226 q-67 -110 -67 -193q0 -78 43 -143q44 -67 136 -100t215 -43q30 -2 62 -2q99 0 217 23q276 49 546.5 185t423.5 314q12 40 19 74q8 42 -28 39q-30 -3 -66 -33q-35 -28 -42 -7q-6 17 21 38q63 45 122 49h11q52 0 84 -37q23 -27 23 -73q0 -106 -120 -312q-173 -297 -314 -446 q-119 -127 -270.5 -205t-307.5 -78q-162 0 -269.5 71.5t-129.5 225.5q-3 16 7 15.5t13 -13.5q20 -117 111.5 -190.5t208.5 -73.5q63 0 129.5 25.5t113.5 54t111.5 87t92.5 87.5t87 92q236 260 354 516q-150 -152 -404.5 -293t-504.5 -194q-140 -28 -260 -28h-23 q-129 3 -222 45t-155.5 103.5t-83.5 150.5q-13 53 -13 110q0 38 5 77z" />
<glyph unicode="H" horiz-adv-x="1662" d="M62 268q20 60 75.5 115t164 102t255.5 74q177 31 333 31h19q360 561 396 561q2 0 10 1t12 0t9 -3t5 -8t-5 -16.5t-17 -26.5q-166 -221 -354 -510q95 -6 190 -25q287 -59 307 -190q1 -14 -4 -14.5t-8 10.5q-20 51 -225 69q-63 6 -135 6q-103 0 -226 -12 q-303 -481 -403 -719q-11 -23 -19 -23q-4 0 -7 7q-3 6 -3 17q0 21 12 57q53 152 363 657q-119 -16 -174 -27q-361 -63 -475 -197q-33 -43 -33 -79q0 -39 39 -70q12 -9 -4 -8q-12 0 -19 6q-55 43 -77 99q-11 29 -11 59q0 28 9 57zM1299 -56q-3 6 -3 16q0 21 13 58 q45 129 238.5 456t374.5 597t204 270q2 0 10 1q4 1 7 0.5t5 -0.5q4 -1 9.5 -3t5.5 -8t-5.5 -16.5t-17.5 -26.5q-217 -285 -468 -692.5t-347 -634.5q-11 -23 -19 -23q-4 0 -7 6z" />
<glyph unicode="I" horiz-adv-x="1218" d="M16 -98q-1 6 -1 14q-1 17 7 40q10 32 38 65.5t92.5 66.5t154.5 55q101 26 241 26q48 0 101 -3q186 315 408.5 650t247.5 335q2 0 10 1t12 0t9 -3t5 -8t-5 -16.5t-17 -26.5q-303 -399 -621 -936q133 -14 234.5 -48t167.5 -107q56 -62 57 -144q0 -15 -2 -31 q-4 -24 -14 -22.5t-6 20.5q2 7 2 15q0 46 -67 82q-77 43 -203 61q-88 13 -181 12q-40 0 -82 -2q-104 -186 -143 -285q-11 -23 -19 -23q-4 0 -7 7q-3 6 -3 17q0 21 12 57q25 66 109 225q-98 -8 -188 -35q-35 -10 -94.5 -33.5t-96.5 -39t-84 -24.5t-59 9q-11 7 -15 29z M178 858q-10 29 -10 61q0 37 14 77q26 74 111 120q158 92 393.5 146.5t443.5 54.5q66 0 135.5 -12.5t143.5 -40.5q75 -27 115 -83q32 -45 32 -103q0 -14 -2 -29q-1 -19 -10 -18t-6 16q2 10 2 20q0 64 -112 91q-85 21 -204 21q-165 0 -395 -41q-391 -70 -549 -187 q-67 -50 -67 -97t66 -92q14 -9 -4 -10h-3q-12 0 -20 8q-52 34 -74 98z" />
<glyph unicode="J" horiz-adv-x="1382" d="M-346 -346q24 108 102 229q90 139 238.5 268.5t312.5 223.5q35 268 245 538.5t468 401.5q113 57 224 59h8q107 0 187 -59q83 -61 101 -174q4 -23 4 -49q0 -134 -101 -341q-120 -247 -314.5 -498t-446.5 -480.5t-473 -339.5q-141 -70 -258 -85q-35 -5 -65 -5 q-73 0 -122 26q-71 37 -103 107q-18 40 -18 92q0 40 11 86zM-207 -402q-9 -31 -9 -56q0 -32 14 -54q26 -39 78 -56q35 -12 80 -12q21 0 45 2q73 9 149 41q262 109 571 421.5t512 659.5q181 309 181 501q0 23 -3 45q-12 121 -98 164q-39 19 -96 19q-69 0 -164 -28 q-274 -94 -450.5 -317t-213.5 -510q208 102 390 102q26 0 52 -2q123 -10 144 -92q6 -23 4 -27t-14 2q-6 3 -11 2q-20 3 -43 3q-178 0 -516 -216q25 -59 72 -63q14 -2 14 -13q0 -5 -7 -8q-5 -2 -14 -2q-19 0 -54 9q-37 10 -64 43q-319 -217 -459 -396q-70 -92 -90 -162z" />
<glyph unicode="K" horiz-adv-x="1366" d="M-56 -185q-3 6 -3 17q0 20 12 57q66 190 354.5 719t394.5 615q22 18 53 18q16 0 34 -5q34 -9 34 -32q0 -19 -22 -47q-203 -266 -490 -719q-258 -403 -344 -604q-10 -24 -17 -24q-3 0 -6 5zM375 500q0 9 22 30q203 186 681 497t675 331q6 1 11 1q23 0 22 -15 q0 -25 -33 -37q-492 -170 -1257 -756q197 65 361 65q146 0 265 -52q176 -76 206 -229q5 -28 6 -56q0 -150 -159 -294q-96 -87 -241 -157q-46 -22 -59 -22q-5 0 -5 3q0 14 74 80q92 81 140 177q47 93 48 174q0 86 -42 162q-40 74 -122.5 112.5t-197.5 45.5q-14 1 -29 1 q-105 0 -239 -43q-83 -25 -111 -25q-16 0 -16 7z" />
<glyph unicode="L" horiz-adv-x="1507" d="M8 -60q-2 6 -2 13q0 17 10 41q14 33 50 65.5t119 66.5t202 56q125 23 311.5 23t378 -25.5t315.5 -106.5q107 -70 108 -171q0 -16 -3 -33q-4 -22 -16 -22l-1 1q-14 2 -7 19q2 8 2 15q0 53 -110 93q-176 64 -470 64q-48 0 -99 -2q-187 -6 -333 -37q-47 -10 -124 -33.5 t-125 -39t-110 -24.5q-20 -3 -35 -3q-31 0 -42 12q-13 8 -19 28zM127 188q-1 2 -1 4l1 2q2 2 6 1q10 -6 33.5 -7.5t59.5 4t84 32t96 71.5q55 55 235 311q-172 35 -203 131q-4 14 1.5 15.5t11.5 -9.5q24 -37 150 -37q47 0 108 5h6q125 174 255 308t292 224q122 67 250 95 q105 23 184 23q16 0 32 -1q88 -6 136 -31q114 -60 114 -165q0 -20 -4 -41q-31 -161 -274 -303q-106 -63 -244 -113q-323 -118 -603 -118q-22 0 -44 1q-68 0 -123 10q-12 -16 -47 -70t-48 -74l-41 -62q-28 -42 -44.5 -62.5t-38 -46t-39.5 -43.5q-61 -60 -134 -76 q-42 -10 -74 -9q-23 0 -42 5q-43 12 -51 26zM766 717q264 33 577 147q373 136 465 291q23 39 23 71q0 49 -54 80q-5 3 -10 5q-41 14 -109 16h-10q-66 1 -166 -25q-108 -28 -208 -79q-244 -129 -508 -506z" />
<glyph unicode="M" horiz-adv-x="2711" d="M-4 849q-1 10 -1 20q0 53 34 113q41 71 127 118q197 113 472 183.5t511 74.5q20 1 38 0q125 0 211 -22q99 -26 138 -77t48 -111q2 -15 2 -32q0 -46 -20 -100q-26 -72 -63 -133.5t-86 -120.5q-20 -27 -138 -165t-184 -220q451 473 721 649q124 82 220 110q58 17 100 18 q27 0 47 -8q51 -18 75 -66q20 -40 21 -92q0 -12 -1 -22q-5 -66 -34 -137q-47 -113 -141 -272q250 260 459 416q183 135 344 161q28 4 50 4q97 0 95 -84q-3 -82 -102 -229q-573 -844 -600 -1136q-3 -23 -3 -43.5t3 -36.5q6 -33 19.5 -47.5t30.5 -17.5t34.5 3.5t34.5 18.5 q14 10 24 -3.5t-2 -23.5q-24 -24 -65 -24q-9 -1 -19 1q-55 6 -108.5 28t-91.5 75q-34 48 -33 108v13q4 88 25.5 151.5t141 255t373.5 545.5q140 195 140 279q0 39 -30 54q-18 9 -41 9q-59 0 -155 -58q-24 -15 -47 -32q-254 -193 -567 -536q-86 -139 -213 -326 q-17 -27 -53 -27q-14 0 -30 4q-42 9 -42 33q0 5 2 10q1 3 2 7q340 590 381 755q13 57 13 98q0 24 -4 42q-11 52 -67 59q-5 1 -11 1q-55 0 -156 -69q-176 -113 -436.5 -362.5t-499.5 -517.5q-6 -6 -15 -6q-120 -151 -148 -151h-2q-5 2 -5 8q0 25 67 119q22 30 48 62 q16 20 132.5 162t162 200t118 160.5t109.5 176.5q53 105 53 178q0 168 -280 168h-7q-293 -2 -757 -160q-331 -113 -330 -209v-8q5 -31 47 -59q14 -8 -4 -10q-13 -1 -23 6q-51 35 -59 97z" />
<glyph unicode="N" horiz-adv-x="1198" d="M-153 -304q-3 6 -3 17q0 21 13 58q59 174 383.5 691t447.5 662q53 168 121 219q15 11 40 11q35 0 88 -21q78 -32 78 -69q0 -16 -16 -29q-92 -78 -145 -301q-49 -207 -49 -431v-34q4 -242 61 -381q84 217 384 722t335 505q2 0 18.5 2t27.5 3t25 -2q12 -3 11 -11 q0 -9 -14 -33q-209 -272 -434.5 -635t-331.5 -596l6 -10q39 -59 90 -84q26 -12 47.5 -12.5t40.5 12.5q8 4 13.5 -5.5t-3.5 -15.5q-47 -34 -102 -34q-21 0 -43 6q-80 18 -139 100q-97 130 -141 312q-42 171 -41 328v22q3 168 38 329q-219 -297 -456.5 -685t-325.5 -593 q-10 -23 -17 -23q-4 -1 -7 6z" />
<glyph unicode="O" horiz-adv-x="1435" d="M286 209q-9 39 -8 84q0 69 21 155q35 140 129 291q111 176 271.5 314.5t289.5 181.5q84 25 160 25t131 -50.5t61 -144.5q1 -10 0 -20q0 -65 -22 -132q-6 -24 -15 -8q-4 8 -1 19q10 36 10 64q0 90 -107 90h-2q-153 -1 -395 -158q-212 -137 -328 -295q-115 -159 -147 -297 q-12 -51 -11 -94q-1 -74 33 -124q54 -80 182 -102q29 -5 62 -5q113 0 272 56q287 102 467 324q235 294 235 657q0 26 -1 52q-6 98 -31.5 154.5t-52.5 69.5t-53 5q-14 -5 -13 5.5t15 14.5q19 7 38 7q48 0 98 -41q70 -57 79 -207q1 -22 1 -44q0 -190 -78 -356 q-87 -184 -230 -366q-180 -227 -422 -359q-102 -55 -210 -65q-26 -2 -51 -2q-78 0 -144 24q-87 32 -149 104.5t-84 172.5z" />
<glyph unicode="P" horiz-adv-x="1103" d="M-30 -33q0 2 1 4q27 102 217 398q-82 20 -135 61q-51 42 -59 96q-1 9 -1 16q0 44 36 79q19 17 18 0q0 -9 -10 -21q-14 -21 -14 -48q0 -11 2 -23q8 -42 47 -72q57 -45 137 -58q160 238 321.5 448t188.5 210q12 0 21.5 -14.5t9.5 -28.5q-258 -319 -469 -625q20 -1 41 -1 q183 0 421 78q265 87 402 181q119 80 181 170q60 87 61 160q-1 3 -1 6q-2 76 -49 134.5t-153 84.5q-64 16 -140 17q-49 0 -104 -7q-195 -23 -431.5 -98.5t-336.5 -159.5q-35 -27 -22 -47q8 -14 1.5 -16t-16.5 6q-43 25 -59 76q-8 24 -8 40q0 19 10 29q76 109 353.5 201 t551.5 119q47 4 91 5q98 -1 176 -23q112 -32 167.5 -94t66.5 -147q3 -21 3 -43q-1 -64 -25 -131q-32 -89 -110 -177t-189 -154q-172 -98 -439 -180q-215 -66 -387 -66q-42 0 -81 4q-182 -262 -231 -391q-10 -30 -38 -33h-3q-15 0 -16 19q0 7 2 16z" />
<glyph unicode="Q" horiz-adv-x="1302" d="M-134 -388q-1 3 -1 8q0 17 10 40q12 29 43 58.5t99.5 62.5t164.5 57q-127 44 -127 231v23q18 338 281.5 691.5t595.5 521.5q94 47 187 61q39 6 75 6q50 0 94 -12q76 -19 137.5 -63t90.5 -121q26 -71 26 -156v-12q-2 -93 -52 -214.5t-147 -252.5q-133 -182 -328.5 -342 t-336.5 -205q-92 -27 -174 -27t-136 55q-51 50 -51 141v13q2 74 43 166q7 19 15 12.5t2 -22.5q-19 -49 -19 -83q0 -80 103 -80h5q165 4 449 173q251 150 388 313q131 158 178 295q24 70 24 125q0 53 -22 93q-45 81 -171 102q-29 5 -62 5q-112 0 -277 -56 q-365 -121 -584 -429.5t-237 -691.5q-1 -20 -1 -38q0 -96 27 -144q31 -57 78 -61l16 2q98 18 240 24q40 2 82 2q104 0 217 -11q158 -15 288 -49t203 -106q53 -53 53 -120q0 -25 -7 -52q-7 -22 -19 -23q-12 3 -8 19q4 11 4 21q0 55 -117 94q-171 58 -445 58q-61 0 -128 -3 q-171 -7 -307 -37q-47 -10 -127 -33.5t-130.5 -39t-112.5 -24.5q-21 -3 -36 -3q-31 0 -41 12q-12 6 -15 26z" />
<glyph unicode="R" horiz-adv-x="1202" d="M-32 -77q0 8 3 20q31 129 293 510q-10 37 -10 61v8q2 31 54 73q47 38 76 38h5q121 166 215 280.5t113 114.5q14 0 23.5 -13.5t9.5 -27.5q-164 -203 -336 -438l4 -14l74 6q156 10 338 70.5t313 148.5q102 70 161 144q60 72 66 138v9q0 60 -77 99q-83 42 -255 42 q-168 0 -459.5 -83t-406.5 -181q-33 -29 -22 -47q8 -14 1.5 -16.5t-18.5 5.5q-43 25 -59 76q-7 23 -6 39q0 20 10 29q68 98 302 185t490 123q142 20 247 20q85 0 147 -13q63 -12 112 -54q48 -43 66 -107q10 -36 10 -74q0 -31 -6 -63q-14 -73 -88 -156.5t-199 -155.5 q-139 -82 -327.5 -143.5t-337.5 -69.5q-23 -2 -66 -2q66 -164 263.5 -331t326.5 -167q51 0 90 24.5t45 61.5q0 10 10 6q6 -3 4 -10q-14 -121 -196 -135q-18 -1 -36 -1q-125 0 -251 60q-144 70 -240 168.5t-151 202.5q-217 -315 -268 -444q-10 -29 -38 -34h-4q-14 0 -15 18z " />
<glyph unicode="S" horiz-adv-x="1208" d="M-16 193q76 -68 220 -100q120 -27 240 -26q24 1 48 1q144 6 253 38q55 16 120 52.5t119 84.5t54 106.5t-77 105.5q-6 4 -124 51q-119 48 -185 108q-59 54 -59 128q0 9 1 18q16 135 180 272t370 218q201 79 346 79h7q95 -3 153 -39q50 -32 51 -96q0 -9 -1 -18 q-4 -39 -74 -115t-150 -149q-78 -74 -142 -170q-58 -87 -59 -156q0 -7 1 -13q-48 37 -60 93q-4 19 -5 39q1 37 15 75q22 58 50.5 106t64.5 91q88 106 228 203q-14 24 -52 26h-14q-31 0 -64 -9q-40 -11 -89.5 -30.5t-77 -33t-51.5 -27.5q-184 -98 -344 -230.5t-168 -197.5 q-2 -25 11 -46.5t44 -39t61.5 -31.5t77.5 -33.5t78 -33.5q123 -62 153 -154q10 -33 10 -64q0 -58 -35 -114q-54 -86 -169 -144q-109 -55 -237 -77.5t-197 -22.5h-18q-157 0 -308 64q-160 68 -196 211z" />
<glyph unicode="T" horiz-adv-x="886" d="M-35 937q-1 7 -1 14q0 37 18 76q22 46 73 91t123 74q219 86 509 122q171 21 322 21q105 0 201 -10q231 -23 391 -85t202 -135q21 -36 21 -73q0 -38 -22 -76q-27 -37 -67 -45q-20 -4 -19 13q1 15 21 45q25 38 25 69q0 96 -227 133q-130 21 -298 21t-373 -21 q-504 -52 -737 -146q-128 -52 -128 -108q0 -27 30 -55q11 -9 -3.5 -9t-25.5 9q-31 31 -35 75zM463 297q39 109 131 249t401 574q24 33 43 33q9 0 16 -7q5 -7 5 -13q0 -4 -2 -9q-330 -492 -449 -835q-18 -49 -32.5 -106.5t-27.5 -135.5q-6 -35 -5 -66q0 -38 8 -68 q16 -56 63 -69q11 -3 22 -3l56 22q17 13 17 2q0 -7 -13 -17q-32 -29 -84 -29q-10 0 -22 1q-183 15 -183 208q0 107 56 269z" />
<glyph unicode="U" horiz-adv-x="1380" d="M21 1087q-11 27 -11 53q0 34 19 67q9 15 22 26q96 78 340 120q122 21 220 21q157 0 252 -54t95 -155q0 -26 -6 -55q-20 -100 -214.5 -455.5t-233.5 -474.5q-22 -65 -22 -113.5t22 -80.5q21 -29 63 -29q47 0 121 37q113 63 249 215.5t230.5 293t219 337t167.5 258.5 q54 76 126 76h9q35 -2 35 -19q0 -6 -6 -12q-188 -181 -482 -749q-179 -346 -180 -498q0 -97 74 -115q8 -1 15 -1q27 0 49 17q11 9 13.5 3t-9.5 -15q-47 -41 -96 -41q-177 0 -177 155q0 138 140 400q-209 -272 -385 -358q-59 -27 -108 -27q-60 0 -106 40q-68 61 -68 156 q0 20 3 42q18 125 104.5 312t174.5 364.5t106 269.5q6 31 6 57q0 126 -147 126h-12q-173 -5 -422 -138q-78 -42 -121 -76q-18 -14 -32 -14q-23 0 -37 34z" />
<glyph unicode="V" horiz-adv-x="991" d="M24 800q14 158 68 261q55 104 148 178q94 75 191 99q29 7 58 7q65 1 127 -39q88 -56 125 -198q31 -115 31 -266q0 -291 -115 -713q594 899 983 1128q55 35 120 57q64 22 122 22h3q60 0 85 -33q3 -6 3 -10q0 -5 -6 -7q-11 -4 -23 0h-15q-119 0 -289 -121 q-182 -129 -357 -321.5t-346 -411.5t-283.5 -383t-155.5 -244q-7 -13 -18 -13q-5 0 -11 3q-12 7 -4 23q94 158 102 170q-126 -58 -172 -58h-2q-5 2 -6 4q170 627 191 973q2 32 2 62q0 89 -18 159q-24 94 -68 130q-36 29 -80 29q-10 0 -22 -2q-58 -9 -124.5 -87t-126.5 -211 q-77 -176 -78 -345q0 -28 3 -56q2 -27 -10 -26q-5 1 -9 11q-27 52 -27 148q0 37 4 81z" />
<glyph unicode="W" horiz-adv-x="1667" d="M27 514q-10 31 -10 76q0 66 21 158q36 158 103 258q55 82 141 148q85 64 176 94q83 27 157 28q8 0 15 -1q81 -3 135 -65.5t58 -175.5v-23q0 -189 -90 -462q90 133 210 258t235 211q160 117 251 117q113 0 120 -180v-27q0 -231 -144 -637q502 791 833 991q55 33 119 55.5 t124 22.5t85 -35q1 -16 -26 -16q-8 1 -16 1q-94 0 -222 -85q-140 -92 -268.5 -226.5t-279 -326t-250 -331.5t-201.5 -296q-12 -24 -174 -78q-55 -18 -69 -18q-5 0 -6 2q0 1 1 2q2 6 35.5 81t61.5 143.5t66.5 170t75.5 216t64 224.5q19 80 19 131q0 89 -60 89h-8 q-118 -12 -367 -292q-164 -184 -303 -397q-90 -215 -188 -376q-15 -23 -183 -77q-60 -20 -75 -20q-6 0 -5 4l49 96q48 95 89 181t98 211t106.5 255t81.5 241q33 113 33 196q0 95 -44 150q-37 46 -90 46q-45 0 -101 -33q-119 -69 -230 -261q-121 -205 -133 -402 q-2 -24 -11 -26q-4 -1 -8 6q-1 2 -1 4z" />
<glyph unicode="X" horiz-adv-x="1024" d="M-288 -207q-4 3 -4 9q0 11 16 32q242 326 544 651q-68 180 -75 374q-1 24 -1 46q0 157 44 223q22 42 118 69q34 10 54 10q29 0 29 -20q0 -9 -9 -24q-47 -73 -52 -225q-1 -20 -1 -42q0 -132 28 -269q732 733 1212 733h15q4 0 6 -4q1 -2 1 -3q0 -3 -2 -5q-3 -4 -7 -5h-7 q-246 0 -734 -391q-225 -178 -465 -407q51 -197 133 -354.5t162 -200.5q43 -25 93 -25h14q58 4 89 41q4 4 9.5 4t7.5 -5t-2 -11q-45 -57 -152 -57q-131 0 -260 137t-221 346q-383 -377 -547 -602q-19 -27 -30 -27q-3 0 -6 2z" />
<glyph unicode="Y" horiz-adv-x="1867" d="M18 960q-1 7 -1 15q0 41 28 87q33 54 98 93q150 86 363 140.5t395 58.5h20q96 0 161 -18q71 -19 106 -52t40 -86q1 -15 1 -30q0 -38 -9 -74q-12 -52 -44.5 -123.5t-63.5 -127t-75 -127.5q-30 -50 -44 -75q-190 -332 -219 -393q-67 -136 -67 -201q0 -46 34 -57q8 -3 18 -3 q57 0 167 94q129 109 229 226t143 180q332 481 410 742q14 47 31 51q18 17 28 -12q42 -114 42 -268q0 -177 -55 -406q-103 -430 -300 -717q-158 -229 -359.5 -373.5t-408.5 -144.5q-213 0 -356.5 132t-175.5 413q-2 20 4 27.5t14 0t10 -23.5q29 -213 149 -348t275 -135 q61 0 124 23.5t114 55t112.5 91t101.5 104.5t97 124t85 120t79 118q417 635 417 1075q0 20 -1 40q-49 -166 -167 -375t-253 -379q-49 -61 -117 -134t-162 -162t-186 -142q-72 -40 -124 -40q-15 0 -28 3q-37 8 -47 45q-4 14 -4 31q0 29 11 67q16 60 41.5 126.5t70.5 152.5 t84 156.5t88 154.5q125 209 152 303q15 51 15 91q0 149 -208 151h-7q-222 0 -591 -123q-254 -87 -254 -162q0 -5 1 -10q5 -23 36 -43q10 -7 -4 -7q-11 0 -19 5q-39 27 -45 75z" />
<glyph unicode="Z" horiz-adv-x="1521" d="M-3 12q-15 22 -15 41q0 29 32 53q74 49 133 76l7 4q295 295 682 580t669 375q-78 69 -329 69q-43 0 -92 -2q-342 -14 -550 -108q-137 -62 -136 -134q0 -36 34 -75q7 -9 -4 -8.5t-20 8.5q-42 41 -42 94q0 49 36 107q76 120 243 182q151 54 355 68q59 4 115 4 q136 0 251 -23q92 -16 158 -61q60 -41 60 -112q0 -6 -1 -13q7 -7 7 -14q0 -9 -11 -19q-2 -20 -16 -60q-4 -10 -9 -12.5t-6 2.5q-1 4 2 10q8 25 6 46l-6 -5q-352 -160 -696 -401.5t-606 -472.5q125 40 384 39q54 0 114 -1q487 -14 671 -140q84 -58 84 -134q0 -31 -14 -65 q-9 -21 -19 -21q-2 0 -3 1q-9 3 -1 18q13 25 13 46q0 72 -157 98q-101 17 -249 17q-310 0 -827 -76q-99 -15 -160 -26q-8 -2 -15 -2q-42 1 -72 47z" />
<glyph unicode="[" horiz-adv-x="817" d="M2 -96q-10 29 81 216t248.5 442t299.5 421q51 61 81.5 94t91 77t109.5 50q95 10 322 -8q23 -2 17 -24q-5 -19 -25 -19q-186 0 -301 -14q-78 -6 -170 -125q-190 -250 -369.5 -610.5t-142.5 -475.5q18 -20 80.5 -32.5t116.5 -13.5l55 -1q14 -2 17 -12t-4 -20.5t-22 -10.5 q-6 0 -94 -3t-160.5 -3t-144.5 17.5t-86 54.5z" />
<glyph unicode="\" horiz-adv-x="1116" d="M51 1167q-29 39 15 39q17 0 54 -7q16 -3 19 -3q23 0 221.5 -285.5t409.5 -627.5t256 -471q20 -58 -7 -73q-22 -12 -36 19q-88 207 -379 638t-553 771z" />
<glyph unicode="]" horiz-adv-x="817" d="M-101 -130q5 19 25 19q160 0 301 15q78 10 170 127q188 246 367.5 608t144.5 477q-18 20 -81.5 31.5t-117.5 12.5l-55 1q-20 4 -16 23.5t25 19.5q8 0 69.5 3t119.5 4t124.5 -3t114 -21.5t57.5 -46t-81 -217t-247.5 -442.5t-298.5 -422q-174 -207 -284 -221 q-94 -12 -320 8q-23 2 -17 24z" />
<glyph unicode="^" horiz-adv-x="681" d="M10 702q11 18 27 17q53 -2 145 48t176 118q21 35 105 104q39 32 38 20q0 -3 -3 -8q-35 -70 -25 -139t57.5 -119.5t100.5 -42.5q25 4 27 -6q3 -16 -44 -26q-123 -31 -198.5 20t-77.5 129q-80 -66 -170 -104.5t-152 -34.5q-21 0 -6 24z" />
<glyph unicode="_" horiz-adv-x="1138" d="M0 -154h1139v-102h-1139v102z" />
<glyph unicode="`" horiz-adv-x="626" d="M76 901q13 18 86 38q31 7 28 -3q-29 -43 76 -124t197 -95q24 -3 27 -12q1 -4 -7 -7q-15 -6 -47 -2q-111 14 -204 56.5t-133 84.5t-23 64z" />
<glyph unicode="a" horiz-adv-x="987" d="M5 211q31 98 120 192q101 109 253 155q68 21 126 21q72 0 129 -32q63 -39 80 -88q25 0 49 -10.5t38 -34.5q4 -7 5 -15q0 -20 -25 -49q-6 -8 -28.5 -34.5t-46 -57.5t-41.5 -57q-54 -79 -54 -120q0 -9 2 -17q6 -16 28 -16q34 0 105 38q143 82 318 246q20 20 26 6q1 -3 1 -6 q0 -8 -9 -17q-252 -238 -397 -303q-66 -29 -113 -29q-49 1 -79 31q-33 33 -33 81q0 40 22 91l15 35q-94 -115 -213 -186q-91 -54 -158 -54q-51 0 -88 31q-48 40 -48 110q0 39 16 89zM152 65q6 -30 35 -30q28 0 78 27q84 46 192 155q7 5 27 25l40 40l48 48t48 52q18 24 34 50 q14 24 15 41q0 18 -14 31q-22 15 -54 15q-41 -1 -101 -27q-104 -46 -199 -156q-150 -177 -150 -258q0 -7 1 -13z" />
<glyph unicode="b" horiz-adv-x="819" d="M-111 18q133 186 207 304q-47 -47 -116 -105q-18 -15 -26 -5.5t15 30.5q61 51 86 74.5t78 90t115 162.5q258 401 303 553q9 29 9 49q0 41 -40 43q-5 0 -4.5 4.5t4.5 4.5q94 -4 109 -125q1 -8 0 -17q0 -161 -267 -628q102 102 206 143q52 21 97 21t83 -21q55 -44 55 -121 q0 -29 -8 -63q-29 -123 -135 -248q-107 -126 -234 -184q-68 -31 -121 -31q-46 0 -82 24q-46 31 -46 102q0 42 16 99q-72 -109 -109 -147q-45 -51 -82 -52h-9q-54 0 -104 43zM204 108q-1 -15 -1 -28q0 -74 41 -96q23 -14 52 -14q39 0 88 25q87 44 155 150q69 107 77 205 q1 13 1 24q0 77 -42 101q-21 14 -49 14q-38 0 -89 -27q-87 -46 -154 -151q-70 -105 -79 -203z" />
<glyph unicode="c" horiz-adv-x="700" d="M-8 139q0 173 160 302q154 124 324 124h16q92 -2 128 -48q20 -27 20 -57q0 -23 -11 -48q-17 -36 -49 -36h-2q-27 1 -11 34q26 47 26 76q-1 16 -9 26q-10 12 -32 12q-33 0 -93 -24q-86 -39 -176 -144.5t-107 -195.5q-3 -17 -3 -32q-1 -28 9 -51q14 -37 50 -53q18 -9 44 -8 q22 0 52 6q62 14 141 64q117 74 297 240q24 24 28 4v-5q0 -12 -12 -22q-250 -229 -383 -291q-103 -48 -193 -48q-44 0 -86 12q-128 36 -128 163z" />
<glyph unicode="d" horiz-adv-x="806" d="M-48 208q-1 3 -1 6q0 12 18 28q8 6 137 145q76 84 184 133q100 45 196 45h16q74 -2 111.5 -30.5t37.5 -73.5q74 156 159 296t138 199q43 50 121 52h8q73 0 121 -43q-43 -27 -168 -176.5t-227 -296.5q-135 -194 -209 -396q-40 -108 -40 -181q0 -62 30 -97q6 -8 1 -12 q-3 -2 -6 -3q-3 0 -6 2q-65 53 -65 170q0 95 43 232q-84 -109 -178 -189q-70 -57 -156 -68q-16 -2 -31 -2q-66 0 -118 39q-64 48 -64 148v9q0 46 19 104q-41 -37 -46 -39q-19 -15 -25 -1zM186 160q-4 -28 -4 -50q0 -73 47 -88q10 -3 22 -3q83 0 249 167q45 43 75 93 q16 47 43 108q-18 -12 -29 -3t1 34q20 38 20 63q0 21 -14 31q-14 11 -36 11q-28 0 -71 -17q-96 -37 -190 -143.5t-113 -202.5z" />
<glyph unicode="e" horiz-adv-x="700" d="M-8 135q-2 176 158 306q153 124 323 124h16q101 -2 137 -50q18 -24 17 -51q0 -28 -18 -60q-37 -64 -131 -109q-109 -51 -198 -51h-13q-23 1 -27 8q-3 5 7 8q8 2 22 2q82 0 192 57q109 59 109 123v8q-5 48 -67 51h-7q-34 0 -74 -18q-86 -39 -165.5 -135t-96.5 -188 q-3 -17 -3 -32q-1 -40 19 -70q25 -39 81 -38h6q94 2 239.5 102.5t251.5 203.5q24 24 25 4q0 -15 -13 -27q-76 -70 -101.5 -93.5t-101 -83.5t-122.5 -85t-118 -50.5t-136 -25.5q-94 0 -151.5 45t-59.5 125z" />
<glyph unicode="f" horiz-adv-x="514" d="M-4 -55q-2 17 -2 36q0 151 125 439q-10 -4 -15 0q-6 4 -13 18.5t-11 36t1 43t28.5 43t64.5 31.5q12 4 33 8q152 281 293 377q88 59 188 63h14q92 0 164 -49q40 -26 67.5 -67t27.5 -85q0 -6 -6 -7q-8 -1 -11 10q-12 47 -47 72.5t-78 27.5h-14q-36 0 -73 -8 q-44 -10 -79 -33q-121 -78 -280 -295q113 -10 164 -49q28 -22 43 -43q12 -23 7 -33t-28 2q-43 27 -112 27q-66 0 -156 -25l-27 -39q-125 -201 -181 -385q-29 -95 -29 -157q0 -59 26 -90q7 -9 -2 -13q-2 -1 -3 -1q-3 0 -5 3q-61 49 -74 142z" />
<glyph unicode="g" horiz-adv-x="841" d="M-604 -268v5q0 9 6 9q14 1 18 -16q2 -12 8.5 -36t31 -68t61.5 -77.5t107 -58.5q57 -21 128 -21q14 0 29 1q115 6 216 66.5t181 162.5t141.5 203.5t133 226.5t121.5 190q-63 -72 -159.5 -164t-146.5 -120q-91 -54 -158 -54q-50 0 -87 31q-48 40 -48 110q0 39 16 89 q31 98 120 192q102 109 253 155q68 21 126 21q72 0 129 -32q63 -39 79 -88q33 0 84 -36q28 -19 28 -33q0 -11 -17 -19q-37 -18 -93.5 -100.5t-115 -186.5t-143.5 -222t-177 -214.5t-220 -155.5q-116 -54 -240 -54q-12 0 -25 1q-164 8 -263.5 73.5t-123.5 219.5zM146 44 q13 -9 30 -9q38 0 96 43q139 92 291 268q69 80 69 125q0 16 -8 28q-13 16 -40 16q-47 0 -138 -48q-72 -39 -156.5 -126t-127.5 -163q-34 -62 -34 -97q0 -25 18 -37z" />
<glyph unicode="h" horiz-adv-x="821" d="M-37 217q-1 2 -1 5q0 10 18 26q125 109 196 201q53 125 195.5 347t292.5 367q100 100 216 136q53 16 96 16q50 0 85 -23q45 -29 45 -98q0 -10 -1 -20q-7 -84 -71 -181q-51 -80 -206.5 -195.5t-288.5 -172.5q-26 -11 -30 4q-4 12 21 22q119 53 267.5 168t193.5 191 q55 87 55 136q0 23 -12 37q-11 13 -30 13q-49 0 -156 -82q-158 -127 -331 -354.5t-298 -458.5q57 82 105 135q116 129 225 129q10 0 20 -1q82 -10 98 -88q2 -13 2 -27q0 -31 -12 -66q-18 -53 -112 -211q-48 -79 -49 -109q0 -18 18 -18q3 0 7 1q22 3 61 28q115 72 299 241 q24 24 23 6q0 -14 -13 -28q-152 -156 -313 -260q-75 -49 -138 -49q-15 0 -30 3q-74 15 -80 85q-1 6 -1 12q0 66 58 156q10 14 76.5 96t89.5 127q10 21 10 36q0 25 -31 28h-9q-68 0 -168 -98q-25 -25 -50 -54q-104 -127 -166 -228l-51 -112l6 20q-4 -8 -8 -24l2 4 q-1 -2 -1 -5l-1 1q-11 -25 -59 -41q-12 -4 -19 -4q-13 0 -11 13q1 7 7 17q4 10 22.5 57.5t51.5 131.5t63 160q-80 -88 -149 -144q-21 -17 -29 -4z" />
<glyph unicode="i" horiz-adv-x="557" d="M-47 208q-1 2 -1 5q0 16 23 33q43 35 153 143.5t144 126.5q44 24 76 24q19 0 34 -9q12 -7 5 -15q-85 -86 -153 -246q-44 -104 -44 -156q0 -28 13 -42q11 -12 31 -12q40 0 118 48q116 74 242 187q20 19 26 -1v-4q0 -5 -4 -9q-98 -86 -166 -141q-68 -56 -164 -108 q-90 -48 -150 -48h-9q-67 4 -101 34q-33 30 -33 70t11 77q10 34 23 54q18 29 82 105q-23 -18 -71 -61.5t-65 -55.5q-17 -14 -20 1zM395 678q4 35 33 67q28 33 64 43q12 3 23 3q21 -1 35 -13q19 -16 19 -44v-10q-4 -36 -32 -69q-29 -31 -65 -40q-12 -3 -22 -3q-20 0 -36 12 q-19 16 -20 44q0 5 1 10z" />
<glyph unicode="j" horiz-adv-x="323" d="M-1096 -272q-1 3 -1 6q0 10 9 10q11 -1 13 -14q20 -115 108 -186.5t205 -71.5q139 0 325.5 144t332.5 347q152 203 233 387q-35 -45 -109 -104q-4 -4 -10 0t-7 11t3 13q143 115 160 213q0 33 -25 41q-6 4 -5 8.5t6 8.5t10 4h9q56 0 75 -72q5 -19 5 -43q0 -117 -111 -336 q-132 -264 -236 -375q-115 -121 -279 -202.5t-317 -81.5q-158 0 -263.5 71.5t-130.5 221.5zM223 678q4 35 33 67q27 33 64 43q12 3 23 3q21 0 35 -13q20 -15 20 -44q0 -5 -1 -10q-4 -36 -32 -69q-29 -31 -65 -40q-12 -3 -22 -3q-21 0 -36 12q-20 16 -20 44q0 5 1 10z" />
<glyph unicode="k" horiz-adv-x="681" d="M-44 211q0 15 24 37q31 27 124 141q205 455 537 760q173 159 313 159q9 0 18 -1q98 -7 114 -92q3 -15 3 -31q0 -108 -137 -243q-4 -3 -8 -7q-82 -78 -202.5 -160t-221.5 -125q-26 -11 -30 4q-4 12 22 23q94 43 215 129t195 164q119 125 119 180q0 12 -6 21q-9 15 -31 15 q-40 0 -123 -51q-66 -40 -140 -106q-150 -133 -301 -327.5t-250 -356.5q143 190 295 252q56 21 101 20q35 0 63 -12q57 -26 57 -82q0 -7 -1 -14q-12 -98 -121 -178q-70 -49 -186 -77q-62 -15 -109 -15q-42 0 -74 12q65 -84 179 -150q98 -57 162 -56q10 0 19 1 q31 4 52.5 21.5t21.5 39.5q0 4 5 4.5t5 -4.5q0 -72 -108 -98q-46 -10 -91 -10q-91 0 -178 42q-130 62 -173 146q-45 -111 -53 -211q-2 -20 -2 -38q0 -70 26 -101q6 -8 1 -12q-2 -2 -5 -2t-6 2q-66 55 -74 121q-3 23 -3 49q0 118 68 293q-49 -49 -88 -78q-17 -15 -17 2z M180 305q4 -10 17 -31l10 -6q16 -9 43 -9q34 1 86 15q92 26 151 70q73 56 73 118q0 8 -1 15q-7 54 -67 54h-8q-74 -5 -175 -95q-84 -76 -129 -131z" />
<glyph unicode="l" horiz-adv-x="602" d="M-14 239q-1 2 -1 4q0 8 13 19q96 78 207 225q203 264 317 465q21 40 21 61q0 13 -7 20q-11 10 -40 -7q-4 -2 -19.5 -9t-21.5 -9q-14 -6 -17.5 -1t6.5 15q49 37 135.5 69.5t141.5 34.5q86 0 86 -54q0 -30 -27 -77q-33 -55 -173 -207.5t-171 -191.5q-210 -276 -268 -440 q-15 -44 -15 -72q0 -55 56 -55q10 0 21 2q28 4 65 18q88 33 200.5 123t176.5 156q24 24 28 7q3 -12 -10 -26q-175 -179 -276 -247q-129 -87 -227 -87q-14 0 -27 2q-63 8 -93 44q-27 33 -27 80v9q3 54 19.5 106t44.5 110q-66 -70 -92 -86q-21 -14 -26 -1z" />
<glyph unicode="m" horiz-adv-x="1060" d="M-117 18q12 18 60.5 79t96.5 126.5t85 120.5q-88 -88 -150 -137q-20 -17 -24 -1q-3 13 18 32q4 4 33 29.5t38 33.5t34.5 31.5t38 38t31 36t30.5 41t23 37.5q10 25 9 48.5t-9 29.5q-10 8 -9.5 19.5t10.5 14.5q3 1 7 1q8 0 18 -4q53 -25 62 -94q2 -15 2 -30q0 -57 -23 -126 q41 63 88 125q80 102 161 108h7q58 0 58 -66q0 -39 -25 -95q-23 -51 -61 -123q86 111 133 162q109 112 210 112q15 0 29 -2q79 -13 90 -89q2 -10 2 -20q0 -37 -20 -79q-33 -66 -137 -205q-51 -69 -52 -98q0 -17 19 -20q3 -1 7 0q26 0 73 30q117 80 233 192q16 16 27 5 q3 -3 3 -7q0 -6 -7 -12q-84 -80 -138.5 -127t-139.5 -99q-79 -48 -132 -48h-8q-66 4 -90 45q-12 20 -13 54q0 34 13 81q27 80 231 309q26 29 26 45q0 13 -17 16q-6 1 -12 1q-52 0 -140 -72q-32 -26 -61 -57q-59 -63 -120 -170t-89 -189q-13 -38 -49 -38q-10 0 -21 3 q-34 9 -33 30q0 4 2 7q160 285 193 363q29 66 29 97q0 29 -25 29h-3q-51 -4 -125 -85q-6 -6 -11 -13q-82 -98 -172 -256q-74 -115 -119 -161q-45 -51 -82 -52h-9q-52 0 -104 43z" />
<glyph unicode="n" horiz-adv-x="806" d="M-117 18q12 18 60.5 79t96.5 126.5t85 120.5q-88 -88 -150 -137q-20 -17 -24 -1q-3 13 18 32q4 4 33 29.5t38 33.5t34.5 31.5t38 38t31 36t30.5 41t23 37.5q10 25 9 48.5t-9 29.5q-10 8 -9.5 19.5t10.5 14.5q3 1 7 1q8 0 18 -4q53 -25 62 -94q2 -15 2 -31q0 -73 -37 -170 q80 104 121 150q105 118 208 118q12 0 25 -2q79 -11 95 -83q3 -13 3 -27q0 -37 -20 -78q-20 -45 -135 -205q-29 -37 -40 -62.5t-7 -38t18 -14.5t35.5 7.5t48.5 25.5q84 59 217 182q20 20 22 -1q0 -13 -10 -23q-199 -184 -294 -230q-66 -33 -116 -33q-35 0 -61 16 q-39 24 -38 77q0 34 16 80q37 104 211 301q30 33 30 50q0 12 -15 16q-7 2 -15 2q-46 0 -129 -71q-25 -21 -49 -46q-57 -61 -149.5 -193.5t-143.5 -189.5q-45 -51 -82 -52h-9q-52 0 -104 43z" />
<glyph unicode="o" horiz-adv-x="763" d="M-45 214q0 15 20 32q51 43 125 115.5t111 103.5q51 43 111 71q58 30 128 38q16 2 31 2q52 0 97 -23q60 -29 78 -88q7 -23 7 -50q0 -40 -17 -88q-28 -79 -101 -157q-47 -53 -131 -107q168 27 356 203q10 8 18 7t9 -8l-1 -1q0 -8 -8 -16q-225 -213 -421 -213h-7 q-76 -39 -146 -57q-50 -13 -94 -14q-17 0 -32 2q-57 6 -84 56q-16 29 -16 73q0 30 8 67q8 43 31 90q-27 -27 -52 -43q-9 -8 -14.5 -6.5t-5.5 11.5zM130 180q-13 -39 -13 -68q0 -55 43 -79q21 -10 47 -10q52 0 125 38q-4 0 -13 5q-24 12 -24 39q0 15 7 35q20 56 73 104 q43 39 89 48q17 3 30 3q25 0 41 -10q20 -12 24 -35q50 78 50 131q0 54 -46 84q-27 22 -71 22q-27 -1 -60 -9q-88 -22 -168 -95q-98 -93 -134 -203z" />
<glyph unicode="p" horiz-adv-x="763" d="M-309 -459v11q0 177 364 727q-39 -39 -80 -70q-18 -15 -18.5 0.5t23.5 36.5q100 86 217 233q117 152 137 172q47 47 86 47q59 0 108 -51q-41 -49 -153 -203q98 92 197 129q50 18 90 18.5t69 -18.5q47 -32 47 -101q0 -28 -8 -62q-27 -119 -131 -240q-104 -123 -225 -180 q-67 -31 -117 -31q-40 0 -70 21q-49 33 -49 101q0 58 35 140q-454 -647 -454 -774q0 -13 5 -20q7 -11 -1 -13h-2q-3 0 -5 2q-61 53 -65 125zM210 77q5 -48 30 -65q16 -12 41 -12q41 0 104 32q102 50 197 161q63 76 98 155q31 69 31 112q0 6 -1 11q-4 45 -24 68 q-16 11 -41 11q-43 0 -113 -34q-110 -53 -204 -164q-63 -74 -93 -150q-26 -66 -26 -111q0 -7 1 -14z" />
<glyph unicode="q" horiz-adv-x="710" d="M-5 211q31 98 120 192q102 109 253 155q68 21 126 21q72 0 129 -32q63 -39 79 -88q14 0 17 -6q47 -8 90 -39q-121 -156 -318.5 -452t-254.5 -449q-16 -42 -16 -73q0 -45 34 -65q7 -5 -8 -12q-88 14 -107 125q-3 18 -3 37q0 43 12 93q18 73 37.5 116t58.5 119 q70 133 180 307q-66 -72 -152 -125q-91 -54 -158 -54q-50 0 -87 31q-48 40 -48 110q0 39 16 89zM135 62q6 -31 39 -33h3q33 0 99 45q70 47 152 131q14 14 152 172q6 6 18 20.5t18 18.5l5 4q24 33 24 55q0 17 -14 27q-23 15 -54 15q-41 0 -95 -25q-97 -46 -191 -156 q-80 -94 -121 -168q-36 -65 -36 -97q0 -4 1 -9z" />
<glyph unicode="r" horiz-adv-x="739" d="M-40 212q0 15 24 36q143 123 235 260q-19 11 -19 47q0 9 2 19q6 52 34 102q50 86 103 86q8 0 15 -2q25 -6 29 -39q1 -4 0 -9q0 -32 -23 -83q-12 -27 -41.5 -64t-56.5 -53q76 25 221 25q29 0 57 -13q30 -12 46 -40q5 -8 4 -18q0 -23 -27 -56q-90 -104 -149 -199 q-53 -79 -53 -117q0 -13 6 -22q10 -12 30 -12q47 0 155 69q152 98 263 203q10 10 18.5 8t8.5 -10.5t-8 -18.5q-72 -66 -125.5 -110.5t-132.5 -102.5q-78 -58 -147 -88q-61 -26 -109 -26h-13q-67 4 -101 34q-33 30 -33 70v2q1 41 12.5 75t25.5 54q23 31 84 124t67 103 q18 28 -10 42q-22 10 -50 11q-8 0 -17 -1q-23 -2 -33 2l-6 -8q-135 -178 -266 -283q-20 -17 -20 3z" />
<glyph unicode="s" horiz-adv-x="628" d="M-119 113q-1 3 -1 5q0 5 7 4q6 0 9 -7q38 -83 122 -83q7 0 15 1q47 4 89 29.5t76.5 71.5t59.5 86t55.5 98.5t44.5 80.5q45 76 107.5 137.5t114.5 75.5q-13 6 -29 6q-41 0 -107 -34q-92 -48 -169.5 -113t-168 -147t-98.5 -88q-29 -23 -33 -7q-3 13 11 25q53 45 153.5 140 t152.5 139.5t126 80.5q58 28 109 27q14 0 28 -2q43 -10 53 -27q-53 -23 -87 -119t-76 -223t-105 -198q53 20 164.5 95t197.5 163q19 17 26 3q1 -3 1 -6q0 -7 -8 -16q-70 -70 -126 -118t-140 -107t-171 -91t-171 -32q-182 0 -232 150z" />
<glyph unicode="t" horiz-adv-x="567" d="M-28 221q-3 3 -3 8q0 10 17 23q150 131 204 199q-39 -14 -55 2q-10 8 -15 28.5t20.5 50t90.5 48.5q35 8 60 10q31 45 76 112.5t72.5 107.5t43.5 56q16 20 78 34q54 13 87 13h9q63 -2 63 -13q0 -10 -32 -38q-143 -139 -260 -278q139 -23 182 -88q17 -28 3 -39q-8 -7 -23 8 q-43 43 -139 43q-41 0 -91 -8q-166 -213 -208 -348q-14 -39 -15 -68q1 -26 13 -45q15 -24 46 -24q20 0 46 10q57 20 153.5 92.5t151.5 124t88 84.5q20 23 26.5 10.5t-10.5 -27.5q-176 -184 -276 -257q-139 -101 -239 -101q-14 0 -27 2q-85 10 -105 92q-6 24 -6 52 q0 67 35 155l4 10l-37 -35q-18 -17 -28 -6z" />
<glyph unicode="u" horiz-adv-x="937" d="M24 268q-1 3 -1 6q0 12 14 23q63 53 131 124t106 99q62 46 127 47q3 0 7 -1q68 -3 94 -53q11 -22 10 -50q0 -37 -18 -86q-14 -31 -35 -61.5t-55.5 -78t-43.5 -59.5q-52 -75 -53 -102q0 -13 13 -15h6q38 0 110 66l66 63q100 109 176 209l65 82l11 11q35 39 73 40 q60 0 111 -45q-12 -18 -40 -53t-55.5 -70.5t-63.5 -83t-62.5 -88t-54 -87t-39 -79t-15.5 -65.5t17 -47q9 -9 -4 -9q-5 0 -9 1q-66 23 -75 100q-1 13 -1 27q0 101 64 237q-218 -282 -355 -282h-1q-66 0 -92 43q-12 21 -12 54q0 35 14 83q31 92 208 291q24 27 24 43 q0 10 -9 16q-6 5 -16 5q-25 0 -68 -34q-55 -41 -143.5 -123.5t-104.5 -97.5q-17 -14 -21 0z" />
<glyph unicode="v" horiz-adv-x="626" d="M-49 209q0 12 18 29q4 4 33 29.5t38 33.5t34.5 31.5t38 38t31 36t30.5 41t23 37.5q10 25 9 48.5t-9 29.5q-10 8 -9.5 19.5t10 14.5t25.5 -3q72 -33 78 -94q5 -31 5 -70q0 -68 -16 -158q-24 -142 -77 -225l-4 -6q23 14 35 27q84 84 190.5 294.5t173.5 276.5q29 29 72 29 q10 0 22 -2q58 -10 78 -58q1 -3 1 -6q0 -5 -6 -5t-9 7q-14 31 -39 31q-28 0 -70 -39q-74 -72 -193.5 -264.5t-199.5 -272.5q-42 -41 -112 -63q-39 -12 -67 -12q-22 0 -36 8q33 47 70 152.5t56.5 186.5t17.5 81l-87 -86q-66 -68 -131 -119q-11 -9 -17.5 -8.5t-6.5 10.5z" />
<glyph unicode="w" horiz-adv-x="1060" d="M-46 213q0 16 23 35q49 37 155 143.5t140 124.5q44 24 76 24q19 0 34 -9q12 -7 5 -15q-59 -59 -116.5 -168.5t-73.5 -191.5q-5 -29 -5 -49q0 -15 3 -24q6 -22 30.5 -16.5t49 21.5t53.5 43q35 29 140 164t157 162q35 18 62 18q25 0 43 -15q14 -11 5 -20 q-104 -111 -141 -284q-6 -35 -5 -56.5t11 -27.5t23.5 -5t32 11t36 23.5t35.5 29.5q55 49 113 121q6 193 84 278q26 31 106 40q11 1 20 1q38 0 37 -19v-4q-2 -9 -12 -22q-125 -154 -149 -241q-10 -36 -10 -59q0 -26 12 -36q6 -5 16 -5q23 0 64 32q74 61 88 76q19 19 22 2 q1 -3 1 -6q0 -8 -7 -15q-66 -66 -96 -88q-30 -23 -64 -37q-18 -7 -34 -7q-17 0 -34 6q-34 14 -40 67q-195 -231 -313 -231h-7q-68 2 -102 32q-32 29 -31 66v4q2 39 10 78q-165 -180 -267 -180h-7q-67 2 -101 32q-33 30 -33 71v2q1 42 11 76t23 54q18 29 82 105 q-129 -109 -136 -115q-19 -15 -19 4z" />
<glyph unicode="x" horiz-adv-x="634" d="M-222 -210q-5 2 -5 7t6 13q182 244 391 450h-2q-30 82 -30 155v13q3 78 32 121q22 30 111 67q54 22 49 4q-1 -3 -4 -8q-33 -53 -33 -146q0 -39 6 -85q353 313 588 313h12q4 0 4 -3q0 -5 -6 -5h-2q-139 0 -426 -225q-53 -43 -160 -137q23 -102 65 -186.5t89 -110.5 q27 -14 55 -14q4 1 10 1q34 2 50 23q3 5 7 1.5t1 -7.5q-30 -41 -83 -41h-9q-195 4 -304 223q-254 -242 -376 -406q-13 -19 -27 -19q-4 0 -9 2z" />
<glyph unicode="y" horiz-adv-x="854" d="M-535 -272q0 10 4.5 14t10.5 0t6 -12q20 -115 109.5 -186.5t205.5 -71.5q154 0 314.5 117.5t304.5 312.5q137 188 328 557q-47 -72 -113 -156q-256 -315 -393 -315q-66 0 -92 43q-12 21 -12 54q0 35 14 83q29 82 208 291q24 27 24 43q0 11 -10 17q-6 4 -14 4 q-24 0 -67 -34q-57 -41 -157.5 -135t-121.5 -110q-19 -15 -20 1q-1 13 14 25q39 31 131 125t133 125q62 46 127 46h7q69 -3 94 -53q12 -22 12 -51q0 -37 -18 -85q-14 -31 -36 -62.5t-55.5 -76.5t-44.5 -60q-52 -75 -52 -102q0 -14 15 -14h5q38 4 110 65q80 74 184.5 200 t178.5 234q66 152 114 166q19 6 35 6q36 0 54 -31q8 -13 8 -23q0 -16 -21 -25q-14 -5 -35 -3q-5 1 -10 1q-59 0 -100 -87q-25 -53 -63 -169.5t-70.5 -215t-108.5 -229.5t-176 -238q-117 -123 -265.5 -200.5t-301.5 -77.5q-158 0 -263.5 71.5t-130.5 221.5z" />
<glyph unicode="z" horiz-adv-x="858" d="M-582 -494q16 43 58.5 89.5t126.5 96.5t196 93q224 87 407 87q64 0 122 -11q37 -8 63.5 -25.5t26.5 -32.5q0 -12 -17 -8q-30 8 -72 8q-67 -1 -163 -21q-156 -32 -311 -91q-181 -68 -249 -166q-23 -33 -23 -56q0 -33 45 -48q27 -9 66 -9q68 0 175 27q119 27 262 90 q220 92 356 259q90 111 90 193q0 37 -18 67q-52 86 -244 86q-16 0 -34 -1q-102 -2 -258 -37q-40 -8 -37 18q4 35 49 67q12 8 22 12q4 2 106.5 29.5t192.5 64.5q181 75 181 107q0 22 -80 26q-48 3 -90 3q-222 0 -248 -81q-33 22 -33 56q0 8 2 18q41 151 330 151h26 q113 0 164 -39q38 -29 38 -66q0 -12 -4 -26q-17 -53 -89 -100q-63 -41 -234 -96q41 4 78 4q105 0 181 -30q102 -40 130 -116q9 -25 8 -53q0 -57 -36 -129q-55 -106 -197 -217q-158 -125 -333 -199q-141 -61 -263 -90q-125 -29 -223 -35q-26 -2 -49 -2q-65 1 -105 13 q-56 16 -82 46q-17 19 -16 44q0 14 6 30z" />
<glyph unicode="{" horiz-adv-x="817" d="M86 90q6 154 195 418q33 59 11 100t-81 64q-43 16 -28.5 42.5t55.5 33.5q82 16 157.5 87.5t184.5 241.5q66 104 174 149.5t217.5 38t228.5 -19.5q18 -2 15 -21.5t-21 -17.5q-176 27 -277.5 -4t-193.5 -174q-164 -258 -477 -317q-12 0 -21 -6q27 -10 39 -15.5t40 -16.5 t43 -19.5t37 -22t31 -26.5t18 -28.5t6 -32t-15 -34.5q-59 -84 -102 -223q-20 -66 -30.5 -117t-11.5 -118.5t36.5 -101.5t113.5 -22q84 12 119 23q17 4 17 -11q0 -18 -19 -24q-236 -61 -350.5 -10t-110.5 184z" />
<glyph unicode="|" horiz-adv-x="471" d="M157 -279q0 4 1 9q55 227 60 768.5t-23 853.5q-2 23 7 32t24.5 5.5t29.5 -8.5t28.5 -12t18.5 -7q23 -6 25 -337t-22.5 -722t-67.5 -528q-20 -64 -58 -73q-24 -6 -23 19z" />
<glyph unicode="}" horiz-adv-x="870" d="M-214 -63.5q3 18.5 21 16.5q176 -25 277.5 6t194.5 174q166 262 477 316l20 6q-163 64 -198 110q-31 41 0 84q59 90 102 225q20 63 30.5 115.5t11.5 119.5t-37 100.5t-114 23.5q-84 -12 -118 -23q-17 -6 -18 10q0 18 20 25q236 61 350 9t110 -185q-6 -143 -194 -418 q-33 -59 -11.5 -99t81.5 -63q41 -18 27.5 -43.5t-54.5 -33.5q-82 -14 -158 -86t-184 -244q-51 -78 -122 -123t-162 -54t-160.5 -6t-176.5 17q-18 2 -15 20.5z" />
<glyph unicode="~" horiz-adv-x="1196" d="M125 483q92 176 256 176q80 0 227 -65q160 -74 209 -74q39 0 75 24.5t55.5 50.5t49.5 73l74 -115q-111 -176 -256 -176q-86 0 -209 67q-127 72 -235 72q-104 0 -172 -147z" />
<glyph unicode="&#xa1;" horiz-adv-x="536" d="M-145 -401q0 25 31.5 57.5t86 78.5t78.5 70q88 92 172 229.5t113 234t-8 120.5q-10 3 -7 10.5t15 1.5q88 -45 67.5 -180t-93 -282.5t-146.5 -225.5q-57 -63 -110.5 -100t-88.5 -46t-61.5 -5t-37.5 15t-11 22zM373.5 558.5q5.5 39.5 38.5 74.5q31 37 71.5 48.5t67.5 -11.5 q25 -20 20.5 -61.5t-36.5 -76.5q-31 -35 -72 -46t-68 10q-27 23 -21.5 62.5z" />
<glyph unicode="&#xa2;" horiz-adv-x="768" d="M111 463q-2 176 158.5 306t338.5 126q10 -2 27 -2q137 205 151 205q8 0 13.5 -1t12.5 -5.5t5 -15.5t-16 -29q-63 -82 -119 -164q53 -18 69.5 -58.5t-6.5 -85.5q-17 -37 -50 -35q-27 1 -11 33q29 51 25 85t-47 32q-164 -244 -320 -504q94 -29 244 64l94 59q38 21 35 -3 q-2 -21 -25 -36q-94 -59 -172 -94q-109 -49 -209 -45q-6 -12 -38.5 -75.5t-62.5 -125t-42 -94.5q-10 -29 -33 -27q-27 2 -10 50q23 70 141 276q-70 10 -111.5 53t-41.5 111zM262 485q-16 -80 43 -118q121 201 293 471l-20 -11q-92 -41 -197 -147.5t-119 -194.5z" />
<glyph unicode="&#xa3;" horiz-adv-x="1159" d="M-93 -43q-3 12 4 31.5t24.5 40t55.5 42t93 38.5q47 51 127 245.5t98 225.5q-55 2 -87 32.5t-9 70.5t111 65q4 2 19 4t31.5 5t20.5 3q199 401 357 508q88 59 189 64t178 -48t93 -149q1 -8 -3 -10q-7 -3 -11 10q-16 59 -70.5 83.5t-114 14.5t-106.5 -39q-72 -47 -168 -168 t-176 -258q174 -18 207 -45q31 -22 43 -43q12 -23 8 -33t-26 2q-63 39 -326 -33q-4 -4 -37 -91t-98.5 -198.5t-153.5 -195.5l78 12q82 6 204 6.5t254 -23.5t241.5 -57.5t168 -98t31.5 -146.5q-7 -22 -19 -17q-9 3 -3 17q27 58 -106 106q-200 73 -520 72q-115 0 -210 -14 q-41 -6 -109.5 -21.5t-111.5 -25t-95.5 -14.5t-64.5 12q-8 6 -11 18z" />
<glyph unicode="&#xa4;" horiz-adv-x="1337" d="M182 203q-11 50 3 126q5 27 14 33q27 16 172 136q-58 90 -58 196q0 109 56 193q-100 80 -170 137q-24 12 -17 135q3 32 6 31q25 -25 250 -221q104 90 240 90q137 0 242 -94q145 129 247 225q4 3 7 -12q12 -70 -5 -132q-5 -18 -12 -22q-4 -4 -65.5 -52t-106.5 -83 q57 -90 57 -195q0 -111 -57 -196q150 -123 172 -136q25 -17 22 -130q-3 -35 -8 -33l-251 223q-102 -92 -241.5 -92t-244.5 92l-248 -223q-2 -4 -4 4zM418 690.5q0 -108.5 77.5 -186.5t186.5 -78t186.5 78t77.5 186.5t-77.5 186t-186.5 77.5t-186.5 -77.5t-77.5 -186z" />
<glyph unicode="&#xa5;" horiz-adv-x="991" d="M108 302q9 57 37 58q141 10 281 15l43 135q-166 -25 -223 -31q-26 -3 -16 51q10 57 36 58q117 10 230 14q2 6 5 17.5t5 17.5q45 188 35 422q-4 106 -36 179t-78 93.5t-106.5 -32t-117.5 -179.5q-72 -160 -60 -311q2 -15 -4 -18q-5 -2 -10 8q-27 53 -16.5 177t53.5 202 q43 80 114.5 138t147.5 76.5t143.5 -25.5t96.5 -153q25 -84 18.5 -215t-19 -230t-24.5 -148q139 213 333.5 404.5t387.5 305.5q45 27 94 43.5t96.5 16.5t65.5 -27q6 -10 0 -11t-21 -1q-168 12 -419.5 -222.5t-454.5 -529.5q78 -2 178 -14q26 -3 28 -20t-24 -17 q-123 -2 -225 -12q-47 -74 -94 -162q82 -4 192 -17q28 -3 30 -19.5t-26 -16.5q-123 -2 -225 -13q-2 -4 -5 -11t-3 -9q-129 -412 8 -445q39 -12 76 19q18 13 18 2q0 -7 -12 -17q-43 -35 -109 -28q-199 16 -180 248q10 100 45 221q-158 -23 -272 -37q-26 -3 -17 50z" />
<glyph unicode="&#xa6;" horiz-adv-x="471" d="M157 -279q0 4 1 9q53 211 59 716q0 20 24.5 27.5t48 -1.5t23.5 -32q-27 -508 -75 -665q-20 -64 -58 -73q-24 -6 -23 19zM195 1352q-2 23 7 32t24.5 5.5t29.5 -8.5t28.5 -12t18.5 -7q37 -10 19 -676q0 -31 -51.5 -33t-53.5 31q0 340 -22 668z" />
<glyph unicode="&#xa7;" horiz-adv-x="1132" d="M-532 -211q76 -68 220 -99.5t288.5 -25.5t252.5 39q55 16 120 52t119 84t54 106.5t-78 105.5q-6 4 -123.5 51.5t-184 107.5t-58.5 146q14 111 108.5 193t200 117.5t209.5 42.5q-6 20 -2 51q16 135 180 272t370 218t353 79q96 -2 153.5 -39t49.5 -114q-4 -39 -74 -115 t-149.5 -149.5t-143 -169t-57.5 -169.5q-49 37 -60.5 92.5t10 114t50.5 106.5t65 91q88 106 228 203q-14 23 -52 25.5t-78 -8.5t-89.5 -30.5t-77 -33t-51.5 -27.5q-184 -98 -344 -230.5t-168 -197.5q-2 -25 11 -46.5t44 -39t61.5 -31.5t77.5 -33.5t78 -33.5q92 -47 135 -118 t33 -139.5t-65.5 -129t-143.5 -89.5q-66 -18 -179.5 -20t-189.5 14q86 -98 40 -211.5t-187 -185.5q-109 -55 -237 -77.5t-197 -22.5q-166 -4 -326 64.5t-196 209.5zM193 299q0 -20 7 -38.5t23.5 -35t31.5 -29t44 -27.5t47.5 -23.5t55 -25t53.5 -24.5q219 -20 374 27 q78 23 141.5 80t73 125t-82.5 127q-16 10 -91 38.5t-143 66.5t-102 85q-8 -4 -49 -15.5t-71 -21.5t-74 -31.5t-79 -46.5q-160 -109 -159 -231z" />
<glyph unicode="&#xa8;" horiz-adv-x="643" d="M137 818q4 30 28.5 58.5t55.5 36.5t51 -8q20 -14 17.5 -47t-27.5 -59q-25 -29 -56.5 -36t-52 9t-16.5 46zM387 818q4 30 28.5 58.5t55.5 36.5t51 -8q20 -14 17.5 -47t-29.5 -59q-25 -29 -55.5 -36t-51 9t-16.5 46z" />
<glyph unicode="&#xa9;" horiz-adv-x="1570" d="M52.5 503q-17.5 128 20.5 257t135 248.5t238 197.5q164 90 397.5 110.5t424.5 -42.5q90 -31 167 -103.5t93 -160.5q20 -117 -37 -267.5t-168 -290t-284 -241.5t-363 -121q-188 -16 -327.5 37t-209 150.5t-87 225.5zM127 756.5q-23 -109.5 8 -215t109 -181t209 -114.5 t292 -19q205 25 365 126.5t258 248.5q105 150 82 287q-20 119 -134 207t-261.5 123.5t-311 24.5t-278.5 -77q-141 -80 -228 -190.5t-110 -220zM326 605q2 138 123 265q94 100 259.5 165t301.5 65q111 0 154.5 -61.5t-27.5 -147.5q-111 -123 -134 -92q-16 22 21 70 q8 11 18 20q63 55 64.5 98t-39.5 62.5t-100 19.5q-117 0 -244 -65.5t-217 -163.5q-111 -131 -108 -229.5t107.5 -147.5t264.5 -21q106 20 211.5 69.5t163.5 96.5q9 7 12 0q2 -4 -2 -8q-49 -61 -182 -137t-246 -103q-178 -41 -290.5 33t-110.5 212z" />
<glyph unicode="&#xaa;" horiz-adv-x="591" d="M-16 625.5q0 23.5 7 48t15 24.5q203 27 342 4q10 0 14.5 -8t1 -15t-13.5 -7q-66 -4 -119 -13.5t-127.5 -28t-109.5 -26.5q-10 -2 -10 21.5zM15 785q-48 55 8 156q20 36 53 71q61 66 152 93.5t153 -7.5q35 -23 47 -54q27 0 44 -14t-3 -51q-55 -61 -72 -88 q-39 -59 -30.5 -83t79.5 13q88 49 191 148q17 15 17 1q0 -6 -5 -12q-150 -141 -237 -182q-80 -35 -116 1t-7 104l8 22q-55 -68 -127 -112q-106 -63 -155 -6zM95 800q22 -34 119 45q29 24 60 56q2 2 15.5 14.5t25 23.5t28.5 28.5t27.5 31t20.5 29.5t9 25.5t-7 17.5 q-31 20 -93 -7.5t-120 -92.5q-111 -131 -85 -171z" />
<glyph unicode="&#xab;" horiz-adv-x="937" d="M64.5 372q-3.5 3 4 9t23.5 16q4 2 21.5 12.5t25.5 16.5q131 80 255 177t153 159q10 21 48 24q16 1 17 -6q0 -2 -2 -6q-63 -137 -372 -328q51 -23 103 -84t71.5 -140t-41.5 -150q-51 -57 -51 -39q0 6 10 22q27 55 4 124t-90.5 128.5t-134.5 59.5q-23 0 -32 1t-12.5 4z M386 423q5 7 28 21l47 27q129 78 253 176t152 160q10 22 50 25q17 -2 16 -13q-70 -141 -375 -325q51 -23 103.5 -85.5t72 -141.5t-42.5 -150q-50 -56 -50 -39q0 6 11 22q25 55 2.5 124t-90 128.5t-135.5 59.5q-29 0 -38 2t-4 9z" />
<glyph unicode="&#xac;" horiz-adv-x="739" d="M-40 209q-3 16 24 39q229 199 313 399q9 23 29 15q14 -6 8 -23q-27 -59 -74 -129l21 8q98 18 202 19q29 0 57.5 -12.5t45 -40t-22.5 -74.5q-90 -104 -149 -199q-72 -106 -47 -139q33 -41 185.5 57t262.5 203q10 10 18.5 8t8.5 -10.5t-8 -18.5q-72 -66 -125.5 -110.5 t-132 -103t-147.5 -88t-122 -25.5q-68 4 -101.5 34.5t-32.5 71.5t12.5 75t25.5 54q23 31 84 124t67 103q18 29 -10 42.5t-67 9.5q-23 -2 -33 2l-6 -8q-135 -178 -266 -283q-17 -14 -20 0z" />
<glyph unicode="&#xad;" d="M179.5 345q-1.5 28 8 56.5t23.5 28.5q293 29 502 -2q25 -4 23 -23q0 -14 -19 -14q-96 -2 -174 -12t-188.5 -30.5t-159.5 -29.5q-14 -2 -15.5 26z" />
<glyph unicode="&#xae;" horiz-adv-x="1570" d="M48 612.5q11 112.5 54 221t133.5 208t210.5 164.5q164 90 397.5 110.5t424.5 -42.5q90 -31 167 -103.5t93 -160.5q20 -117 -37 -267.5t-168 -290t-284 -241.5t-363 -121q-162 -14 -289 23t-199.5 112.5t-111.5 175t-28 212zM126 558q40 -155 181 -249q0 8 2 15 q16 76 178 309q-9 25 -6 43q2 18 33 43.5t49 23.5q178 242 198.5 242t20.5 -27q-100 -123 -204 -266q2 -2 2 -10q25 4 45 4q96 6 207.5 43t189.5 92q61 41 97 86t40 85t-46 65.5t-155 25.5q-102 0 -280 -50t-248 -111q-20 -16 -14 -26.5t2 -11.5t-10 3q-27 16 -36.5 48 t1.5 40q61 90 323.5 154.5t399.5 37.5q39 -8 68.5 -33.5t39.5 -64.5t1 -83t-53 -95t-120 -96q-201 -115 -405 -129q-8 0 -21.5 -1t-17.5 -1q39 -98 158.5 -200t197.5 -102q33 0 56.5 14.5t25.5 37.5q2 6 7 4q3 -1 3 -6q-8 -74 -121 -82q-127 -10 -241.5 73.5t-169.5 186.5 q-129 -184 -162 -268q-6 -16 -20 -21q176 -104 423 -74q205 25 365 126.5t258 248.5q104 150 82 287q-20 119 -134 207t-261.5 123.5t-311 24.5t-278.5 -77q-205 -117 -292 -285.5t-47 -323.5z" />
<glyph unicode="&#xaf;" horiz-adv-x="671" d="M107.5 809q-1.5 27 5 55.5t16.5 28.5q168 20 290 14.5t179 -30.5q10 -2 11 -15.5t-6 -24t-17 -10.5q-49 6 -98.5 7.5t-83 -1t-81 -8.5t-69 -11t-71.5 -15.5t-66 -14.5q-8 -2 -9.5 25z" />
<glyph unicode="&#xb0;" horiz-adv-x="1337" d="M245 1003q-4 24 3 58q8 41 52 97t85 91q47 39 106.5 53.5t116.5 -8.5q55 -23 51 -90t-69 -141q-75 -79 -195 -113q-136 -38 -150 53zM287 1019q2 -26 22 -36q29 -12 84.5 10.5t104.5 73.5q31 35 43 67.5t6.5 52t-19.5 27.5q-84 41 -174 -54q-72 -76 -67 -141z" />
<glyph unicode="&#xb1;" d="M114 -40q-1 28 8 56.5t23 28.5q293 29 502 -2q25 -4 24 -23q-1 -14 -20 -14q-96 -2 -174 -12t-188.5 -30.5t-159.5 -29.5q-14 -2 -15 26zM202 474.5q-1 27.5 8 56t23 28.5q129 12 291 16q90 147 189 246q20 20 74 6q29 -8 18 -20q-98 -98 -197 -234q203 -1 297 -30 q12 -4 13.5 -16.5t-8 -22.5t-23.5 -10q-164 12 -332 2q-131 -205 -141 -349q0 -14 -11.5 -18t-21.5 2t-10 21q10 145 104 335q-78 -8 -258 -38q-14 -2 -15 25.5z" />
<glyph unicode="&#xb2;" horiz-adv-x="991" d="M33 574.5q-2 13.5 6 34t30.5 41t71.5 42t119 33.5q41 6 78 23q262 117 334 155q86 47 105.5 108.5t-15.5 104.5t-94 51q-176 26 -312 -54q-73 -43 -59 -73q16 -33 139 -2q111 28 166 80q6 8 8 2q12 -39 -53 -81t-111 -50q-195 -49 -225 12q-17 34 35 82 q61 57 196.5 101.5t274.5 38.5t186 -88q33 -47 2.5 -115t-124.5 -127q-96 -61 -383 -158q174 -2 306 -52t115 -148q-1 -10 -7 -11q-6 3 -7 11q10 33 -57 57q-132 48 -358 30q-68 -5 -124 -18q-29 -6 -89 -24.5t-84.5 -23.5t-59.5 1q-8 4 -10 17.5z" />
<glyph unicode="&#xb3;" horiz-adv-x="845" d="M27 618q-18 100 168 177q63 25 172.5 30.5t150.5 -6.5q10 -2 16.5 -7t1 -9t-19.5 -4q-33 2 -147.5 -23.5t-198.5 -60.5q-90 -37 -109.5 -74t22.5 -58.5t116 -23.5q98 -2 262 71q202 89 203 181q0 43 -48 82q-49 45 -131 51q-38 3 -38 21q-1 23 67 28q68 4 122 33t48 88 q-4 51 -64.5 74.5t-175.5 -0.5q-84 -22 -95 -64q-6 -21 20 -32q45 -20 75 -25q11 -2 9 -9q-1 -5 -11 -5q-76 -2 -133 20q-43 20 -22 60q27 55 147 81q45 10 95.5 16.5t118 6.5t112.5 -23.5t47 -72.5q2 -41 -53.5 -88t-118.5 -70q55 0 92 -31q80 -63 34 -173.5t-183 -176.5 q-92 -43 -211 -69.5t-223.5 -9t-116.5 94.5z" />
<glyph unicode="&#xb4;" horiz-adv-x="563" d="M74 711q-2 5 9 9q9 3 23 5q106 8 235.5 90t104.5 133q-5 12 22 3q67 -24 101 -54q14 -27 -37 -71t-161.5 -84t-237.5 -44q-55 -2 -59 13z" />
<glyph unicode="&#xb5;" horiz-adv-x="735" d="M-352 -590q-8 135 236.5 534.5t398.5 553.5q45 45 84 45q59 0 110 -49q-45 -49 -131 -158q-6 -10 -110 -158q-78 -111 -40.5 -117t115.5 66l66 63q100 109 176 209q57 74 65 82q2 2 6 7l3 4q35 39 73 40q62 0 113 -45q-12 -18 -40 -53t-55.5 -70.5t-63.5 -83t-62.5 -88 t-54 -87t-39 -79t-15.5 -65.5t17 -47q9 -9 -4 -9q-5 0 -9 1q-66 23 -75 100q-10 109 63 264q-223 -283 -358 -282h-19q-418 -625 -374 -690q8 -11 -4 -14q-4 -1 -7 1q-61 61 -65 125z" />
<glyph unicode="&#xb6;" horiz-adv-x="948" d="M-299 -385q6 12 20 16q49 10 103.5 50t112 112t104.5 137.5t105.5 166t89 154.5t81 148.5t56.5 106.5q-104 -14 -175 15.5t-51 123.5q31 150 213.5 289t339.5 172q25 6 88.5 23.5t98.5 23.5q45 8 65 6q88 88 164 105q43 7 49 -13q-6 -6 -36.5 -16t-45.5 -23 q-88 -66 -215 -261t-234.5 -397t-229 -394.5t-199.5 -251.5q-10 -10 -21 -10q-10 -4 -10 4q8 14 31 32q111 111 297 472q18 37 69.5 140t82 159.5t78.5 142.5t97.5 154.5t100.5 127.5q-10 0 -17 -2q-174 -37 -587 -813q-17 -30 -23 -43q-57 -109 -146 -242.5t-215 -270 t-216 -154.5q-25 -4 -25 10z" />
<glyph unicode="&#xb7;" horiz-adv-x="475" d="M196.5 319q4.5 41 36.5 76q33 37 73 47.5t66.5 -10t22.5 -60.5t-37 -77q-33 -35 -73.5 -46t-65.5 9q-27 20 -22.5 61z" />
<glyph unicode="&#xb8;" horiz-adv-x="1552" d="M217 -463q0 12 16 17q23 6 59 9t54.5 6t37.5 23.5t30 59.5q2 4 2 12q0 18 -19.5 60.5t-19.5 64.5q0 49 43 96t92 47q10 0 13 -2t1 -8q-31 -4 -60.5 -34.5t-29.5 -61.5q0 -18 44 -79.5t44 -98.5q0 -121 -297 -121q-10 0 -10 10z" />
<glyph unicode="&#xb9;" horiz-adv-x="692" d="M92 913.5q0 16.5 25 30.5q33 16 119 81t160.5 119t155.5 86t120 5q14 -9 8 -15q-2 -2 -8 -1q-41 4 -92.5 -51.5t-100.5 -151.5t-90 -185.5t-83 -191.5t-56 -133q-80 14 -109 67q-20 35 9 113q70 195 200 365q-68 -47 -235 -140q-23 -14 -23 2.5z" />
<glyph unicode="&#xba;" horiz-adv-x="458" d="M-27 897q0 10 13 21q31 27 74.5 69.5t66.5 61.5q123 100 219 53q55 -25 51 -92.5t-69 -139.5q-33 -35 -80 -61q100 12 213 121q14 12 16 -2q1 -4 -4 -8q-135 -131 -256 -129q-61 -33 -114.5 -42.5t-86 19.5t-18.5 98q8 37 18 54l-30 -25q-12 -12 -13 2zM-16 625.5 q0 23.5 7 48t15 24.5q203 27 342 4q10 0 14.5 -8t1 -15t-13.5 -7q-66 -4 -119 -13.5t-127.5 -28t-109.5 -26.5q-10 -2 -10 21.5zM20.5 872.5q-18.5 -65.5 16.5 -96.5q37 -20 121 25q-59 27 -49 98q8 51 50 93.5t93 54.5q-68 14 -140.5 -47.5t-91 -127zM139 903 q-10 -74 37 -90q29 16 70 57q47 51 56.5 99.5t-13.5 60.5q-29 16 -85.5 -30t-64.5 -97z" />
<glyph unicode="&#xbb;" horiz-adv-x="970" d="M39 27q68 135 375 325q-51 23 -103.5 84.5t-72 141t42.5 151.5q51 57 51 38q0 -6 -10 -22q-27 -55 -4.5 -123.5t90 -128t135.5 -59.5q29 0 38 -2t4 -9.5t-28 -21.5q-6 -4 -45 -26q-131 -80 -255 -177.5t-153 -158.5q-10 -22 -49 -25q-18 2 -16 13zM420 63q-1 3 2 7 q33 72 137.5 158.5t235.5 166.5q-51 23 -103.5 85.5t-72 141t42.5 150.5q51 57 50 38q0 -6 -10 -22q-27 -55 -4 -123.5t90.5 -128t135.5 -59.5q29 0 38 -2t4 -9.5t-28 -21.5q-6 -4 -45 -26q-131 -80 -255 -177.5t-153 -158.5q-10 -22 -47 -25q-16 -1 -18 6z" />
<glyph unicode="&#xbc;" horiz-adv-x="1218" d="M84 -66q45 129 256 471.5t409.5 628t221.5 285.5q3 0 19 3q79 15 79 -6q1 -10 -12 -26q-266 -348 -555 -776t-377 -633q-14 -32 -35 -20q-27 15 -6 73zM92 913.5q0 16.5 25 30.5q33 16 119 81t160.5 119t155.5 86t120 5q14 -9 8 -15q-2 -2 -8 -1q-41 4 -92.5 -51.5 t-100.5 -151.5t-90 -185.5t-83 -191.5t-56 -133q-80 14 -109 67q-20 35 9 113q70 195 200 365q-68 -47 -235 -140q-23 -14 -23 2.5zM416 201q-16 8 12 41q20 20 102 82q35 25 123 94t157 119.5t148.5 102.5t137 72.5t84.5 2.5q14 -9 6 -16q-2 -2 -8 -1q-63 6 -147.5 -112.5 t-160.5 -282.5q248 -18 222 -137q-4 -12 -12 -9q-5 2 -3 9q13 31 -50 51q-66 21 -183 21q-47 -119 -53 -162q-14 -88 43 -115q8 -6 -7 -12q-117 -14 -151 69q-31 74 29 213q-45 -2 -89 -12q-27 -4 -81 -18.5t-74 -14.5q-41 0 -45 15zM530 276q113 25 209 27q10 20 70 119 q60 101 76 119q-20 -12 -78.5 -56.5t-143.5 -109t-133 -99.5z" />
<glyph unicode="&#xbd;" horiz-adv-x="1368" d="M84 -66q45 129 256 471.5t409.5 628t221.5 285.5q3 0 19 3q79 15 79 -6q1 -10 -12 -26q-266 -348 -555 -776t-377 -633q-14 -32 -35 -20q-27 15 -6 73zM92 913.5q0 16.5 25 30.5q33 16 119 81t160.5 119t155.5 86t120 5q14 -9 8 -15q-2 -2 -8 -1q-41 4 -92.5 -51.5 t-100.5 -151.5t-90 -185.5t-83 -191.5t-56 -133q-80 14 -109 67q-20 35 9 113q70 195 200 365q-68 -47 -235 -140q-23 -14 -23 2.5zM362.5 -29.5q-2.5 15.5 7 37t33 44t76.5 45t129 36.5q49 8 82 23q272 121 361 168q70 39 99.5 88t20 89t-43 70.5t-80.5 36.5 q-186 27 -332 -57q-78 -45 -68 -77q12 -39 150 -5q121 29 178 88q6 4 8 0q14 -41 -54.5 -85t-119.5 -56q-213 -52 -245 13q-18 37 38 89q68 61 213.5 109.5t295 41t200.5 -95.5q35 -53 2 -124.5t-133 -135.5q-115 -72 -414 -170q115 -2 216 -22.5t176 -70.5t63 -124 q-2 -11 -9 -12q-5 -1 -6 5q-1 3 0 7q6 25 -28.5 46.5t-99 32.5t-142.5 16.5t-161 0t-150 -19.5q-27 -6 -71 -19.5t-72.5 -22.5t-63.5 -14t-45 5q-8 4 -10.5 19.5z" />
<glyph unicode="&#xbe;" horiz-adv-x="1458" d="M27 618q-18 100 168 177q63 25 172.5 30.5t150.5 -6.5q10 -2 16.5 -7t1 -9t-19.5 -4q-33 2 -147.5 -23.5t-198.5 -60.5q-90 -37 -109.5 -74t22.5 -58.5t116 -23.5q98 -2 262 71q202 89 203 181q0 43 -48 82q-49 45 -131 51q-38 3 -38 21q-1 23 67 28q68 4 122 33t48 88 q-4 51 -64.5 74.5t-175.5 -0.5q-84 -22 -95 -64q-6 -21 20 -32q45 -20 75 -25q11 -2 9 -9q-1 -5 -11 -5q-76 -2 -133 20q-43 20 -22 60q27 55 147 81q45 10 95.5 16.5t118 6.5t112.5 -23.5t47 -72.5q2 -41 -53.5 -88t-118.5 -70q55 0 92 -31q80 -63 34 -173.5t-183 -176.5 q-92 -43 -211 -69.5t-223.5 -9t-116.5 94.5zM293 -188q45 129 256 471t409.5 627.5t221.5 285.5q3 0 17 3q81 16 81 -6q0 -10 -12 -26q-266 -348 -555 -776t-377 -633q-14 -32 -35 -19q-27 15 -6 73zM674 216q4 13 16 26q14 16 103 82q31 23 121 93t156.5 119.5t147 103.5 t139 73.5t85.5 1.5q18 -18 -2 -17q-66 6 -151 -112.5t-156 -282.5q111 -8 173 -42t48 -95q-4 -12 -12 -9q-5 2 -3 9q11 30 -48 50q-67 22 -187 22q-45 -111 -51 -162q-14 -90 43 -115q7 -5 -6 -12q-119 -14 -152 69q-35 74 27 213q-47 -4 -88 -12q-25 -4 -79.5 -18.5 t-76.5 -14.5q-37 0 -45 15q-6 2 -2 15zM793 276q109 25 208 27q25 47 68 119q60 101 76 119z" />
<glyph unicode="&#xbf;" horiz-adv-x="536" d="M-465 -512q-43 100 5 196.5t155.5 174.5t224.5 145.5t228.5 134t148.5 111.5q45 51 16 80q-8 8 -6 18t11.5 13.5t19.5 -3.5q96 -86 -176 -272q-154 -111 -375 -279q-225 -210 -107 -302q93 -73 323 -40q112 16 210 56q111 47 197 96q88 53 142 103.5t62.5 82t-16.5 46 t-100.5 -2t-184.5 -65.5q-121 -55 -227 -125t-139 -125q0 -2 -2 -4q-4 -10 -13 0q-18 27 21 82q135 199 305 272q100 45 185 60.5t136.5 2t72 -48t5 -84t-78 -113t-162.5 -124.5q-98 -57 -197 -96q-329 -129 -492 -114q-144 13 -192 124zM373.5 558.5q5.5 39.5 38.5 74.5 q31 37 71.5 48.5t67.5 -11.5q25 -20 20.5 -61.5t-36.5 -76.5q-31 -35 -72 -46t-68 10q-27 23 -21.5 62.5z" />
<glyph unicode="&#xc0;" horiz-adv-x="2109" d="M-41 249q61 169 340 285q153 63 354 99q428 78 781 4q76 -16 141 -37q55 57 163.5 171t172 179.5t150.5 148.5t159 138q106 84 209.5 120t176.5 25.5t117.5 -27.5t67.5 -40q6 -6 0 -12.5t-12 0.5q-12 12 -40.5 23t-82 15.5t-115 -6t-146.5 -50.5t-171 -107 q-72 -57 -159 -137t-140 -134.5t-162.5 -168t-148.5 -152.5q205 -76 223 -199q2 -12 -1 -16t-8 0t-7 12q-16 39 -114.5 61.5t-180.5 28.5l-23 2q-416 -401 -735 -510q-154 -53 -310.5 -59t-258 19.5t-152.5 64.5q-142 110 -88 259zM150 1q7 -6 14 -11q59 -45 222 -50.5 t374 54.5q291 90 692 485q-330 16 -700 -53q-463 -83 -602 -244q-87 -102 0 -181zM1825 53q-35 158 24 320q43 125 145.5 284.5t199 276.5t185.5 218t93 110q25 38 33 -8t-8 -66q-61 -76 -132 -179.5t-152 -237.5t-143.5 -272.5t-102.5 -267.5t-32.5 -239.5t68.5 -173.5 q4 -2 3 -8.5t-5 -8.5t-10 2q-131 92 -166 250zM2374 1769q13 18 87 38q27 4 27 -3q-29 -43 75 -124t198 -95q25 -5 26 -12q4 -15 -49 -9q-2 0 -4 1q-111 12 -204 54t-133 85t-23 65z" />
<glyph unicode="&#xc1;" horiz-adv-x="2109" d="M-41 249q61 169 340 285q153 63 354 99q428 78 781 4q76 -16 141 -37q55 57 163.5 171t172 179.5t150.5 148.5t159 138q106 84 209.5 120t176.5 25.5t117.5 -27.5t67.5 -40q6 -6 0 -12.5t-12 0.5q-12 12 -40.5 23t-82 15.5t-115 -6t-146.5 -50.5t-171 -107 q-72 -57 -159 -137t-140 -134.5t-162.5 -168t-148.5 -152.5q205 -76 223 -199q2 -12 -1 -16t-8 0t-7 12q-16 39 -114.5 61.5t-180.5 28.5l-23 2q-416 -401 -735 -510q-154 -53 -310.5 -59t-258 19.5t-152.5 64.5q-142 110 -88 259zM150 1q7 -6 14 -11q59 -45 222 -50.5 t374 54.5q291 90 692 485q-330 16 -700 -53q-463 -83 -602 -244q-87 -102 0 -181zM1825 53q-35 158 24 320q43 125 145.5 284.5t199 276.5t185.5 218t93 110q25 38 33 -8t-8 -66q-61 -76 -132 -179.5t-152 -237.5t-143.5 -272.5t-102.5 -267.5t-32.5 -239.5t68.5 -173.5 q4 -2 3 -8.5t-5 -8.5t-10 2q-131 92 -166 250zM2479 1563q-1 5 8 9t24 5q106 8 235 90t105 133q-5 12 21 3q68 -24 102 -54q16 -27 -36 -71t-163 -84t-238 -44q-55 -2 -58 13z" />
<glyph unicode="&#xc2;" horiz-adv-x="2109" d="M-41 249q61 169 340 285q153 63 354 99q428 78 781 4q76 -16 141 -37q55 57 163.5 171t172 179.5t150.5 148.5t159 138q106 84 209.5 120t176.5 25.5t117.5 -27.5t67.5 -40q6 -6 0 -12.5t-12 0.5q-12 12 -40.5 23t-82 15.5t-115 -6t-146.5 -50.5t-171 -107 q-72 -57 -159 -137t-140 -134.5t-162.5 -168t-148.5 -152.5q205 -76 223 -199q2 -12 -1 -16t-8 0t-7 12q-16 39 -114.5 61.5t-180.5 28.5l-23 2q-416 -401 -735 -510q-154 -53 -310.5 -59t-258 19.5t-152.5 64.5q-142 110 -88 259zM150 1q7 -6 14 -11q59 -45 222 -50.5 t374 54.5q291 90 692 485q-330 16 -700 -53q-463 -83 -602 -244q-87 -102 0 -181zM1825 53q-35 158 24 320q43 125 145.5 284.5t199 276.5t185.5 218t93 110q25 38 33 -8t-8 -66q-61 -76 -132 -179.5t-152 -237.5t-143.5 -272.5t-102.5 -267.5t-32.5 -239.5t68.5 -173.5 q4 -2 3 -8.5t-5 -8.5t-10 2q-131 92 -166 250zM2383 1576q9 15 21 15q45 -2 126 40t153 102q27 38 99 96q26 19 20 6q-29 -59 -20 -120.5t50 -104.5t86 -35q20 3 23 -6q2 -8 -15 -16q-9 -4 -22 -7q-109 -27 -174.5 17.5t-65.5 111.5q-156 -127 -276 -121q-17 0 -5 22z" />
<glyph unicode="&#xc3;" horiz-adv-x="2109" d="M-41 249q61 169 340 285q153 63 354 99q428 78 781 4q76 -16 141 -37q55 57 163.5 171t172 179.5t150.5 148.5t159 138q106 84 209.5 120t176.5 25.5t117.5 -27.5t67.5 -40q6 -6 0 -12.5t-12 0.5q-12 12 -40.5 23t-82 15.5t-115 -6t-146.5 -50.5t-171 -107 q-72 -57 -159 -137t-140 -134.5t-162.5 -168t-148.5 -152.5q205 -76 223 -199q2 -12 -1 -16t-8 0t-7 12q-16 39 -114.5 61.5t-180.5 28.5l-23 2q-416 -401 -735 -510q-154 -53 -310.5 -59t-258 19.5t-152.5 64.5q-142 110 -88 259zM150 1q7 -6 14 -11q59 -45 222 -50.5 t374 54.5q291 90 692 485q-330 16 -700 -53q-463 -83 -602 -244q-87 -102 0 -181zM1825 53q-35 158 24 320q43 125 145.5 284.5t199 276.5t185.5 218t93 110q25 38 33 -8t-8 -66q-61 -76 -132 -179.5t-152 -237.5t-143.5 -272.5t-102.5 -267.5t-32.5 -239.5t68.5 -173.5 q4 -2 3 -8.5t-5 -8.5t-10 2q-131 92 -166 250zM2393 1550q-6 7 7 19q121 115 201 114.5t144.5 -36t105.5 -19.5q35 14 49 47q18 -4 21.5 -19.5t-8 -36t-34.5 -36.5q-63 -47 -121.5 -53t-92 15.5t-70.5 48t-55 28.5q-49 8 -121 -63q-16 -18 -26 -9z" />
<glyph unicode="&#xc4;" horiz-adv-x="2109" d="M-41 249q61 169 340 285q153 63 354 99q428 78 781 4q76 -16 141 -37q55 57 163.5 171t172 179.5t150.5 148.5t159 138q106 84 209.5 120t176.5 25.5t117.5 -27.5t67.5 -40q6 -6 0 -12.5t-12 0.5q-12 12 -40.5 23t-82 15.5t-115 -6t-146.5 -50.5t-171 -107 q-72 -57 -159 -137t-140 -134.5t-162.5 -168t-148.5 -152.5q205 -76 223 -199q2 -12 -1 -16t-8 0t-7 12q-16 39 -114.5 61.5t-180.5 28.5l-23 2q-416 -401 -735 -510q-154 -53 -310.5 -59t-258 19.5t-152.5 64.5q-142 110 -88 259zM150 1q7 -6 14 -11q59 -45 222 -50.5 t374 54.5q291 90 692 485q-330 16 -700 -53q-463 -83 -602 -244q-87 -102 0 -181zM1825 53q-35 158 24 320q43 125 145.5 284.5t199 276.5t185.5 218t93 110q25 38 33 -8t-8 -66q-61 -76 -132 -179.5t-152 -237.5t-143.5 -272.5t-102.5 -267.5t-32.5 -239.5t68.5 -173.5 q4 -2 3 -8.5t-5 -8.5t-10 2q-131 92 -166 250zM2441 1586q4 30 29 59q25 27 56.5 35.5t49.5 -7.5q20 -16 17.5 -48t-27.5 -58q-25 -29 -56.5 -36t-52 9t-16.5 46zM2691 1586q4 30 29 59q25 27 55.5 36t51 -7.5t17.5 -48.5t-28 -58q-25 -29 -56.5 -36t-52 9t-16.5 46z" />
<glyph unicode="&#xc5;" horiz-adv-x="2109" d="M-41 249q61 169 340 285q153 63 354 99q428 78 781 4q76 -16 141 -37q55 57 163.5 171t172 179.5t150.5 148.5t159 138q119 94 244 129q-8 35 0 68q8 43 52 99t85 91q47 39 106.5 53.5t118.5 -8.5q53 -25 50 -92.5t-70 -138.5q-37 -41 -101 -74q59 -23 86 -49 q6 -6 0 -12.5t-12 0.5q-27 31 -119 38q-104 -45 -161 -18q-131 -33 -275 -145q-72 -57 -159 -137t-140 -134.5t-162.5 -168t-148.5 -152.5q205 -76 223 -199q2 -12 -1 -16t-8 0t-7 12q-16 39 -114.5 61.5t-180.5 28.5l-23 2q-416 -401 -735 -510q-154 -53 -310.5 -59 t-258 19.5t-152.5 64.5q-142 110 -88 259zM150 1q7 -6 14 -11q59 -45 222 -50.5t374 54.5q291 90 692 485q-330 16 -700 -53q-463 -83 -602 -244q-87 -102 0 -181zM1825 53q-35 158 24 320q43 125 145.5 284.5t199 276.5t185.5 218t93 110q25 38 33 -8t-8 -66 q-61 -76 -132 -179.5t-152 -237.5t-143.5 -272.5t-102.5 -267.5t-32.5 -239.5t68.5 -173.5q4 -2 3 -8.5t-5 -8.5t-10 2q-131 92 -166 250zM2509 1376q63 10 127 4q41 23 78 62q31 35 43 67.5t6.5 52t-19.5 27.5q-57 27 -120.5 -12t-97.5 -101.5t-17 -99.5z" />
<glyph unicode="&#xc6;" horiz-adv-x="3661" d="M-97 293q113 279 1191 383q313 29 592 41q18 18 77.5 80.5t82 86t73.5 76t80 80t72 67.5t78.5 70.5t70.5 59.5q94 74 193.5 111.5t168 36.5t128.5 -13q55 -16 96 -54t55 -93q86 31 148 45q129 27 246.5 26.5t201.5 -54.5t90 -155q4 -80 -41 -165q-12 -26 -18 -9 q-3 8 2 19q69 157 -122 167q-215 11 -592 -146q-253 -105 -441 -236q123 -6 262 -23q488 -57 473 -184q-4 -32 -41 -68q-28 -28 -40 -17q-4 4 1 11q26 43 -207 87q-188 35 -315 40q-158 6 -311 6q-111 -111 -166.5 -213t-51 -180t50.5 -139.5t138 -92t212 -39.5t271 21 q303 53 594 209t428 357q27 37 28 19q0 -8 -5 -24q-55 -156 -375 -365.5t-647 -279.5q-193 -37 -343.5 -21.5t-247.5 85t-139 168t-21.5 228.5t106.5 265q-170 -6 -416 -22q-219 -219 -410.5 -364.5t-394.5 -215.5q-154 -53 -310.5 -59t-258 19.5t-152.5 64.5 q-203 158 -144 303zM67 172q-24 -92 97 -182q59 -45 222 -50.5t374 54.5q311 96 753 547q-279 -25 -374 -35q-1010 -96 -1072 -334zM1743 719q127 6 368 6l9 8q137 150 327.5 274.5t376.5 202.5q-23 109 -137 129q-217 31 -463 -161q-170 -135 -481 -459z" />
<glyph unicode="&#xc7;" horiz-adv-x="1552" d="M35 313q0 276 309 557q225 201 538.5 346.5t583.5 145.5q70 0 136.5 -16.5t121 -64.5t54.5 -120q0 -100 -101.5 -201.5t-244 -173t-284.5 -120t-237 -56.5q-18 -2 -57 -2q-23 0 -53.5 3t-67.5 14.5t-37 29.5q0 10 11 11q4 0 21 -4.5t32 -4.5q98 0 291.5 87t355.5 216.5 t162 227.5q0 63 -62.5 87.5t-136.5 24.5q-240 0 -516 -137t-477 -323q-285 -270 -285 -492q0 -90 45 -156.5t119 -100.5t151.5 -50t161.5 -16q242 0 523.5 101t498.5 251q6 6 13 6q10 0 10 -12q0 -6 -6 -13q-166 -174 -491.5 -305t-573.5 -131h-17q-31 -4 -60.5 -34.5 t-29.5 -61.5q0 -18 44 -79.5t44 -98.5q0 -121 -297 -121q-10 0 -10 10q0 12 16 17q23 6 59 9t54.5 6t37.5 23.5t30 59.5q2 4 2 12q0 18 -19.5 60.5t-19.5 64.5q0 41 29.5 82t68.5 55q-186 16 -313 111.5t-127 275.5z" />
<glyph unicode="&#xc8;" horiz-adv-x="1867" d="M39 377q14 98 74.5 210.5t162.5 221.5q178 190 432.5 339.5t456.5 199.5q129 25 246 24.5t202 -54.5t91 -155q4 -74 -41 -166q-12 -24 -18 -7q-3 8 2 18q68 157 -121 167q-215 12 -593 -144q-375 -155 -579 -345q-125 -117 -191.5 -225.5t-67.5 -190.5t43 -147.5 t136.5 -98t215 -43t278.5 20.5q303 55 594 211t428 354q27 40 27 20q0 -8 -5 -24q-55 -156 -374.5 -364.5t-646.5 -280.5q-154 -29 -283 -25.5t-222 44t-155.5 103t-84 151t-7.5 186.5zM356.5 605q-8.5 24 33.5 57.5t151 54.5q125 31 338.5 4.5t281.5 -100.5q20 -23 9 -39.5 t-42 4.5q-66 47 -215 50t-319 -36q-25 -4 -66 -15.5t-58 -15.5t-49 -6t-38 8q-18 10 -26.5 34zM1266 1696q13 18 87 37q27 4 27 -2q-27 -43 77 -124.5t196 -95.5q26 -3 27 -11q4 -15 -46 -10q-4 0 -8 1q-111 14 -204 56t-133 84t-23 65z" />
<glyph unicode="&#xc9;" horiz-adv-x="1867" d="M39 377q14 98 74.5 210.5t162.5 221.5q178 190 432.5 339.5t456.5 199.5q129 25 246 24.5t202 -54.5t91 -155q4 -74 -41 -166q-12 -24 -18 -7q-3 8 2 18q68 157 -121 167q-215 12 -593 -144q-375 -155 -579 -345q-125 -117 -191.5 -225.5t-67.5 -190.5t43 -147.5 t136.5 -98t215 -43t278.5 20.5q303 55 594 211t428 354q27 40 27 20q0 -8 -5 -24q-55 -156 -374.5 -364.5t-646.5 -280.5q-154 -29 -283 -25.5t-222 44t-155.5 103t-84 151t-7.5 186.5zM356.5 605q-8.5 24 33.5 57.5t151 54.5q125 31 338.5 4.5t281.5 -100.5q20 -23 9 -39.5 t-42 4.5q-66 47 -215 50t-319 -36q-25 -4 -66 -15.5t-58 -15.5t-49 -6t-38 8q-18 10 -26.5 34zM1337 1511q-2 5 9 9q9 3 24 4q106 8 235.5 90t104.5 133q-5 11 20 4q62 -18 96 -48q4 -3 5 -5q16 -29 -35 -73t-161.5 -83t-237.5 -43q-55 -3 -60 12z" />
<glyph unicode="&#xca;" horiz-adv-x="1867" d="M39 377q14 98 74.5 210.5t162.5 221.5q178 190 432.5 339.5t456.5 199.5q129 25 246 24.5t202 -54.5t91 -155q4 -74 -41 -166q-12 -24 -18 -7q-3 8 2 18q68 157 -121 167q-215 12 -593 -144q-375 -155 -579 -345q-125 -117 -191.5 -225.5t-67.5 -190.5t43 -147.5 t136.5 -98t215 -43t278.5 20.5q303 55 594 211t428 354q27 40 27 20q0 -8 -5 -24q-55 -156 -374.5 -364.5t-646.5 -280.5q-154 -29 -283 -25.5t-222 44t-155.5 103t-84 151t-7.5 186.5zM356.5 605q-8.5 24 33.5 57.5t151 54.5q125 31 338.5 4.5t281.5 -100.5q20 -23 9 -39.5 t-42 4.5q-66 47 -215 50t-319 -36q-25 -4 -66 -15.5t-58 -15.5t-49 -6t-38 8q-18 10 -26.5 34zM1265 1524q9 14 21 14q45 -2 125 40t152 101q19 32 95 93q33 25 25 10q-47 -84 -2 -178t119 -82q23 3 23 -8q0 -13 -37 -23q-109 -25 -174.5 19t-65.5 110q-68 -55 -145.5 -89 t-132.5 -32q-17 2 -3 25z" />
<glyph unicode="&#xcb;" horiz-adv-x="1867" d="M39 377q14 98 74.5 210.5t162.5 221.5q178 190 432.5 339.5t456.5 199.5q129 25 246 24.5t202 -54.5t91 -155q4 -74 -41 -166q-12 -24 -18 -7q-3 8 2 18q68 157 -121 167q-215 12 -593 -144q-375 -155 -579 -345q-125 -117 -191.5 -225.5t-67.5 -190.5t43 -147.5 t136.5 -98t215 -43t278.5 20.5q303 55 594 211t428 354q27 40 27 20q0 -8 -5 -24q-55 -156 -374.5 -364.5t-646.5 -280.5q-154 -29 -283 -25.5t-222 44t-155.5 103t-84 151t-7.5 186.5zM356.5 605q-8.5 24 33.5 57.5t151 54.5q125 31 338.5 4.5t281.5 -100.5q20 -23 9 -39.5 t-42 4.5q-66 47 -215 50t-319 -36q-25 -4 -66 -15.5t-58 -15.5t-49 -6t-38 8q-18 10 -26.5 34zM1364 1551.5q4 29.5 28.5 58t55.5 36.5t51 -8q20 -14 17 -46.5t-27 -59.5q-27 -29 -57.5 -36t-51 9.5t-16.5 46zM1614 1551.5q4 29.5 28.5 58t55.5 37t51 -8t16 -47t-28.5 -59.5 t-55 -36t-51 9.5t-16.5 46z" />
<glyph unicode="&#xcc;" horiz-adv-x="1218" d="M16.5 -97.5q-4.5 21.5 6 53.5t38 65.5t92 66.5t154.5 55q135 35 342 23q186 315 408.5 650t247.5 335q2 0 10 1t12 0t9 -3t5 -8t-5 -16.5t-17 -26.5q-303 -399 -621 -936q133 -14 234.5 -48t168 -107t54.5 -175q-4 -24 -14 -22.5t-6 20.5q12 55 -65 97t-203 60.5 t-263 10.5q-104 -186 -143 -285q-17 -35 -26 -16t9 74q25 66 109 225q-98 -8 -188 -35q-35 -10 -94.5 -33.5t-96.5 -39t-84 -24.5t-59 9q-10 8 -14.5 29.5zM178.5 858.5q-22.5 63.5 4 137t110.5 120.5q158 92 393.5 146.5t443.5 54.5q66 0 135.5 -12.5t143.5 -40 t114.5 -83.5t30.5 -132q-1 -19 -10 -18t-6 16q19 79 -110 111q-204 51 -599 -20q-391 -70 -549 -187q-134 -99 -1 -189q14 -9 -4 -10q-14 -1 -23 8q-51 35 -73.5 98.5zM1135 1634q12 17 87 37q27 4 27 -2q-27 -43 77 -125t196 -96q26 -3 27 -11q4 -15 -54 -10 q-111 14 -204 56.5t-133 85.5t-23 65z" />
<glyph unicode="&#xcd;" horiz-adv-x="1218" d="M16.5 -97.5q-4.5 21.5 6 53.5t38 65.5t92 66.5t154.5 55q135 35 342 23q186 315 408.5 650t247.5 335q2 0 10 1t12 0t9 -3t5 -8t-5 -16.5t-17 -26.5q-303 -399 -621 -936q133 -14 234.5 -48t168 -107t54.5 -175q-4 -24 -14 -22.5t-6 20.5q12 55 -65 97t-203 60.5 t-263 10.5q-104 -186 -143 -285q-17 -35 -26 -16t9 74q25 66 109 225q-98 -8 -188 -35q-35 -10 -94.5 -33.5t-96.5 -39t-84 -24.5t-59 9q-10 8 -14.5 29.5zM178.5 858.5q-22.5 63.5 4 137t110.5 120.5q158 92 393.5 146.5t443.5 54.5q66 0 135.5 -12.5t143.5 -40 t114.5 -83.5t30.5 -132q-1 -19 -10 -18t-6 16q19 79 -110 111q-204 51 -599 -20q-391 -70 -549 -187q-134 -99 -1 -189q14 -9 -4 -10q-14 -1 -23 8q-51 35 -73.5 98.5zM1254 1462q-1 5 9 9q9 3 23 4q106 8 235.5 90t104.5 133q-5 12 22 3q67 -23 101 -52q16 -29 -36 -73 t-162.5 -83t-237.5 -43q-54 -2 -59 12z" />
<glyph unicode="&#xce;" horiz-adv-x="1218" d="M16.5 -97.5q-4.5 21.5 6 53.5t38 65.5t92 66.5t154.5 55q135 35 342 23q186 315 408.5 650t247.5 335q2 0 10 1t12 0t9 -3t5 -8t-5 -16.5t-17 -26.5q-303 -399 -621 -936q133 -14 234.5 -48t168 -107t54.5 -175q-4 -24 -14 -22.5t-6 20.5q12 55 -65 97t-203 60.5 t-263 10.5q-104 -186 -143 -285q-17 -35 -26 -16t9 74q25 66 109 225q-98 -8 -188 -35q-35 -10 -94.5 -33.5t-96.5 -39t-84 -24.5t-59 9q-10 8 -14.5 29.5zM178.5 858.5q-22.5 63.5 4 137t110.5 120.5q158 92 393.5 146.5t443.5 54.5q66 0 135.5 -12.5t143.5 -40 t114.5 -83.5t30.5 -132q-1 -19 -10 -18t-6 16q19 79 -110 111q-204 51 -599 -20q-391 -70 -549 -187q-134 -99 -1 -189q14 -9 -4 -10q-14 -1 -23 8q-51 35 -73.5 98.5zM1149 1432q9 15 22 14q45 -2 124 40t151 101l2 2q24 35 96 93q32 24 25 8q-47 -82 -2 -176t119 -84 q20 4 22 -5q2 -8 -14 -16q-9 -5 -23 -8q-109 -27 -173 17t-66 112q-156 -127 -277 -121q-18 2 -6 23z" />
<glyph unicode="&#xcf;" horiz-adv-x="1218" d="M16.5 -97.5q-4.5 21.5 6 53.5t38 65.5t92 66.5t154.5 55q135 35 342 23q186 315 408.5 650t247.5 335q2 0 10 1t12 0t9 -3t5 -8t-5 -16.5t-17 -26.5q-303 -399 -621 -936q133 -14 234.5 -48t168 -107t54.5 -175q-4 -24 -14 -22.5t-6 20.5q12 55 -65 97t-203 60.5 t-263 10.5q-104 -186 -143 -285q-17 -35 -26 -16t9 74q25 66 109 225q-98 -8 -188 -35q-35 -10 -94.5 -33.5t-96.5 -39t-84 -24.5t-59 9q-10 8 -14.5 29.5zM178.5 858.5q-22.5 63.5 4 137t110.5 120.5q158 92 393.5 146.5t443.5 54.5q66 0 135.5 -12.5t143.5 -40 t114.5 -83.5t30.5 -132q-1 -19 -10 -18t-6 16q19 79 -110 111q-204 51 -599 -20q-391 -70 -549 -187q-134 -99 -1 -189q14 -9 -4 -10q-14 -1 -23 8q-51 35 -73.5 98.5zM1285 1463.5q3 31.5 28 58.5q25 29 56.5 36t52 -9.5t16.5 -46t-29 -58.5q-25 -27 -55.5 -36t-51 7.5 t-17.5 48zM1535 1463q3 32 28 59q25 29 56.5 36t52 -9.5t16 -46t-28.5 -58.5q-25 -27 -56.5 -36t-52.5 7q-18 16 -15 48z" />
<glyph unicode="&#xd0;" horiz-adv-x="1726" d="M-10 95q6 3 30 -15q111 -78 414 -86q254 -4 553 80.5t510 244.5q158 119 240 240t86 220.5t-54.5 184.5t-168 139t-268 77.5t-343.5 7.5q-242 -23 -478.5 -111t-360 -203.5t-52.5 -207.5q15 -20 0 -28q-7 -4 -16 5q-29 33 -45.5 94.5t7.5 147.5t103 149q160 127 446 212 t564 85q225 0 386 -68.5t235.5 -178t84 -250t-49 -279.5t-185.5 -271t-303 -223q-213 -109 -497.5 -156.5t-524.5 -9t-305 167.5q-14 29 -8 32zM183 476q-2 47 26 85q7 10 14 12q188 47 330 74q309 425 354 467q13 12 19 12h10h12q4 0 10.5 -2t7.5 -5t-2.5 -11t-13.5 -18 q-100 -111 -340 -433q258 37 322 37q20 2 19.5 -15t-21.5 -22q-289 -55 -381 -86q-162 -225 -227 -401q-10 -24 -24 -11.5t-5 48.5q27 111 190 342q-29 -10 -81 -25.5t-116.5 -35t-90.5 -27.5q-11 -4 -12 15z" />
<glyph unicode="&#xd1;" horiz-adv-x="1198" d="M-153 -303.5q-9 19.5 10 74.5q59 174 383.5 691t447.5 662q53 168 121 219q36 26 128 -10q81 -33 78 -72q-1 -14 -16 -26q-92 -78 -145 -301t-49 -465t61 -381q84 217 384 722t335 505q2 0 18.5 2t27.5 3t24.5 -2t11.5 -13.5t-14 -30.5q-209 -272 -434.5 -635 t-331.5 -596l6 -10q39 -59 90 -84t88 0q8 4 13.5 -5.5t-3.5 -15.5q-66 -47 -145.5 -28.5t-138.5 100.5q-96 129 -140.5 311.5t-41.5 350t38 329.5q-219 -297 -456.5 -685t-325.5 -593q-15 -36 -24 -16.5zM1087 1428q-6 7 9 20q115 115 200 115q66 0 116 -21.5t66.5 -34 t65.5 -0.5q37 12 51 45q18 -2 21.5 -17t-9 -35.5t-34.5 -39.5q-63 -47 -120.5 -52t-91.5 16.5t-71 48t-55 28.5q-53 6 -121 -65q-18 -18 -27 -8z" />
<glyph unicode="&#xd2;" horiz-adv-x="1228" d="M28.5 209q-22.5 100 12.5 239.5t129 290.5q111 176 271.5 314.5t289.5 181.5q82 25 159 25t132 -50.5t61 -144.5q4 -74 -22 -152q-8 -25 -16 -8q-4 8 -1 19q44 155 -98 154q-153 -1 -395 -158q-212 -137 -328 -295q-115 -158 -146.5 -296.5t22 -219t181.5 -102t334 51.5 q289 102 465 324q254 315 234 709q-4 98 -31 154.5t-53.5 69.5t-52.5 5q-9 -4 -11 3q-3 12 15 17q66 23 136.5 -34t78.5 -207q10 -215 -77 -399.5t-231 -366.5q-178 -225 -423 -359q-102 -55 -209 -65t-194 21.5t-148.5 104.5t-84 173zM930 1647q15 18 89 36q28 6 25 -2 q-29 -43 75 -125t196 -96q28 -4 28 -12q1 -14 -53 -8q-111 14 -204 56t-133 85t-23 66z" />
<glyph unicode="&#xd3;" horiz-adv-x="1228" d="M28.5 209q-22.5 100 12.5 239.5t129 290.5q111 176 271.5 314.5t289.5 181.5q82 25 159 25t132 -50.5t61 -144.5q4 -74 -22 -152q-8 -25 -16 -8q-4 8 -1 19q44 155 -98 154q-153 -1 -395 -158q-212 -137 -328 -295q-115 -158 -146.5 -296.5t22 -219t181.5 -102t334 51.5 q289 102 465 324q254 315 234 709q-4 98 -31 154.5t-53.5 69.5t-52.5 5q-9 -4 -11 3q-3 12 15 17q66 23 136.5 -34t78.5 -207q10 -215 -77 -399.5t-231 -366.5q-178 -225 -423 -359q-102 -55 -209 -65t-194 21.5t-148.5 104.5t-84 173zM892 1440q-1 5 8 9t24 5q104 6 234 89 t106 134q-5 12 22 3q69 -25 100 -54q16 -27 -36 -71t-162.5 -83.5t-237.5 -44.5q-55 -2 -58 13z" />
<glyph unicode="&#xd4;" horiz-adv-x="1228" d="M28.5 209q-22.5 100 12.5 239.5t129 290.5q111 176 271.5 314.5t289.5 181.5q82 25 159 25t132 -50.5t61 -144.5q4 -74 -22 -152q-8 -25 -16 -8q-4 8 -1 19q44 155 -98 154q-153 -1 -395 -158q-212 -137 -328 -295q-115 -158 -146.5 -296.5t22 -219t181.5 -102t334 51.5 q289 102 465 324q254 315 234 709q-4 98 -31 154.5t-53.5 69.5t-52.5 5q-9 -4 -11 3q-3 12 15 17q66 23 136.5 -34t78.5 -207q10 -215 -77 -399.5t-231 -366.5q-178 -225 -423 -359q-102 -55 -209 -65t-194 21.5t-148.5 104.5t-84 173zM972 1451q9 15 21 15q45 -2 125 40 t154 102q20 33 95 94q30 23 24 8q-29 -59 -20 -120.5t50 -104.5t86 -35q20 3 23 -6q2 -8 -15 -16q-9 -4 -22 -7q-109 -27 -174.5 18.5t-63.5 110.5q-68 -55 -145.5 -89t-132.5 -31q-17 0 -5 21z" />
<glyph unicode="&#xd5;" horiz-adv-x="1228" d="M28.5 209q-22.5 100 12.5 239.5t129 290.5q111 176 271.5 314.5t289.5 181.5q82 25 159 25t132 -50.5t61 -144.5q4 -74 -22 -152q-8 -25 -16 -8q-4 8 -1 19q44 155 -98 154q-153 -1 -395 -158q-212 -137 -328 -295q-115 -158 -146.5 -296.5t22 -219t181.5 -102t334 51.5 q289 102 465 324q254 315 234 709q-4 98 -31 154.5t-53.5 69.5t-52.5 5q-9 -4 -11 3q-3 12 15 17q66 23 136.5 -34t78.5 -207q10 -215 -77 -399.5t-231 -366.5q-178 -225 -423 -359q-102 -55 -209 -65t-194 21.5t-148.5 104.5t-84 173z" />
<glyph unicode="&#xd6;" horiz-adv-x="1228" d="M28.5 209q-22.5 100 12.5 239.5t129 290.5q111 176 271.5 314.5t289.5 181.5q82 25 159 25t132 -50.5t61 -144.5q4 -74 -22 -152q-8 -25 -16 -8q-4 8 -1 19q44 155 -98 154q-153 -1 -395 -158q-212 -137 -328 -295q-115 -158 -146.5 -296.5t22 -219t181.5 -102t334 51.5 q289 102 465 324q254 315 234 709q-4 98 -31 154.5t-53.5 69.5t-52.5 5q-9 -4 -11 3q-3 12 15 17q66 23 136.5 -34t78.5 -207q10 -215 -77 -399.5t-231 -366.5q-178 -225 -423 -359q-102 -55 -209 -65t-194 21.5t-148.5 104.5t-84 173zM1035.5 1499q2.5 33 27.5 60 q25 29 56.5 36t52 -9.5t16.5 -46.5t-28.5 -58.5t-56.5 -36.5t-52 8q-18 14 -15.5 47zM1284 1499q4 31 28.5 59.5t56.5 35.5t52 -9q18 -14 15.5 -46t-27.5 -58q-25 -29 -56.5 -37t-52 8t-16.5 47z" />
<glyph unicode="&#xd7;" horiz-adv-x="634" d="M-48 0q-10 5 1 20q49 74 217 240h-2q-78 203 -29 289q18 30 101 67q51 23 48 4q-1 -3 -3 -8q-16 -43 -12.5 -120.5t20.5 -110.5q180 160 266 211q50 30 74 8q15 -13 -10 -29q-74 -49 -154 -110q-53 -43 -160 -137q23 -102 65 -186.5t89 -110.5q31 -16 64.5 -13.5 t50.5 23.5q3 5 7 1.5t1 -7.5q-33 -45 -92 -41q-195 4 -304 223q-186 -178 -202 -197q-20 -24 -36 -16z" />
<glyph unicode="&#xd8;" horiz-adv-x="1228" d="M28.5 209q-22.5 100 12.5 239.5t129 290.5q111 176 271.5 314.5t289.5 181.5q82 25 159 25t132 -50.5t61 -144.5q4 -74 -22 -152q-8 -25 -16 -8q-4 8 -1 19q44 155 -98 154q-153 -1 -395 -158q-212 -137 -328 -295q-115 -158 -146.5 -296.5t22 -219t181.5 -102t334 51.5 q289 102 465 324q254 315 234 709q-4 98 -31 154.5t-53.5 69.5t-52.5 5q-9 -4 -11 3q-3 12 15 17q66 23 136.5 -34t78.5 -207q10 -215 -77 -399.5t-231 -366.5q-178 -225 -423 -359q-102 -55 -209 -65t-194 21.5t-148.5 104.5t-84 173z" />
<glyph unicode="&#xd9;" horiz-adv-x="1380" d="M51 1014q-26 62 9 120q9 15 22 25q96 78 340 120q317 55 471 -32q119 -67 90 -211q-20 -102 -186 -420.5t-205 -435.5q-45 -131 0 -193.5t184 7.5q78 43 159 115.5t138 139t134 176.5t113 168t108.5 179t89.5 150q31 49 54 26q12 -10 5 -22q-279 -485 -365 -834 q-12 -51 -21 -106.5t-14.5 -136t16 -136t71.5 -67.5q45 -10 75 18q15 13 17 3q1 -7 -10 -17q-35 -33 -105 -29q-291 23 -174 479q23 78 86 199q-209 -272 -385 -358q-131 -61 -193.5 5t-33.5 189q23 94 143.5 412.5t144.5 439.5q41 197 -170 197q-179 0 -418 -118 q-79 -39 -122 -73q-45 -36 -68 21zM1100 1348q13 18 86 36q31 7 28 -2q-29 -43 75 -125t198 -96q25 -4 27 -11q1 -4 -7 -7q-14 -5 -47 -2q-111 14 -204 56t-133 85t-23 66z" />
<glyph unicode="&#xda;" horiz-adv-x="1380" d="M51 1014q-26 62 9 120q9 15 22 25q96 78 340 120q317 55 471 -32q119 -67 90 -211q-20 -102 -186 -420.5t-205 -435.5q-45 -131 0 -193.5t184 7.5q78 43 159 115.5t138 139t134 176.5t113 168t108.5 179t89.5 150q31 49 54 26q12 -10 5 -22q-279 -485 -365 -834 q-12 -51 -21 -106.5t-14.5 -136t16 -136t71.5 -67.5q45 -10 75 18q15 13 17 3q1 -7 -10 -17q-35 -33 -105 -29q-291 23 -174 479q23 78 86 199q-209 -272 -385 -358q-131 -61 -193.5 5t-33.5 189q23 94 143.5 412.5t144.5 439.5q41 197 -170 197q-179 0 -418 -118 q-79 -39 -122 -73q-45 -36 -68 21zM1137 1142q-2 5 9 9q9 3 23 4q106 8 235.5 90t104.5 133q-5 12 22 4q67 -24 101 -53q14 -29 -37 -73t-161.5 -82.5t-237.5 -43.5q-55 -3 -59 12z" />
<glyph unicode="&#xdb;" horiz-adv-x="1380" d="M51 1014q-26 62 9 120q9 15 22 25q96 78 340 120q317 55 471 -32q119 -67 90 -211q-20 -102 -186 -420.5t-205 -435.5q-45 -131 0 -193.5t184 7.5q78 43 159 115.5t138 139t134 176.5t113 168t108.5 179t89.5 150q31 49 54 26q12 -10 5 -22q-279 -485 -365 -834 q-12 -51 -21 -106.5t-14.5 -136t16 -136t71.5 -67.5q45 -10 75 18q15 13 17 3q1 -7 -10 -17q-35 -33 -105 -29q-291 23 -174 479q23 78 86 199q-209 -272 -385 -358q-131 -61 -193.5 5t-33.5 189q23 94 143.5 412.5t144.5 439.5q41 197 -170 197q-179 0 -418 -118 q-79 -39 -122 -73q-45 -36 -68 21zM1083 1217q10 15 23 14q43 -2 122 39t150 98l4 6q20 33 95 92q31 25 29 14q0 -2 -3 -5q-49 -82 -4 -176.5t119 -84.5q20 4 23 -4q2 -8 -15 -16q-9 -5 -22 -8q-109 -27 -173.5 18t-64.5 113q-68 -57 -145.5 -91t-133.5 -32q-18 2 -4 23z " />
<glyph unicode="&#xdc;" horiz-adv-x="1380" d="M51 1014q-26 62 9 120q9 15 22 25q96 78 340 120q317 55 471 -32q119 -67 90 -211q-20 -102 -186 -420.5t-205 -435.5q-45 -131 0 -193.5t184 7.5q78 43 159 115.5t138 139t134 176.5t113 168t108.5 179t89.5 150q31 49 54 26q12 -10 5 -22q-279 -485 -365 -834 q-12 -51 -21 -106.5t-14.5 -136t16 -136t71.5 -67.5q45 -10 75 18q15 13 17 3q1 -7 -10 -17q-35 -33 -105 -29q-291 23 -174 479q23 78 86 199q-209 -272 -385 -358q-131 -61 -193.5 5t-33.5 189q23 94 143.5 412.5t144.5 439.5q41 197 -170 197q-179 0 -418 -118 q-79 -39 -122 -73q-45 -36 -68 21zM1161 1244q4 30 28.5 58.5t55.5 36.5t51 -8q20 -14 17.5 -47t-27.5 -59q-25 -29 -56.5 -36t-52 9t-16.5 46zM1411 1244q4 30 28.5 58.5t55.5 36.5t51 -8q20 -14 17.5 -47t-29.5 -59q-25 -29 -55.5 -36t-51 9t-16.5 46z" />
<glyph unicode="&#xdd;" horiz-adv-x="1867" d="M18 960q-6 48 27 102t98 93q150 86 363 140.5t395 58.5q109 2 180.5 -17.5t106.5 -52.5t40 -86t-7.5 -104.5t-45 -123t-63.5 -127t-75 -127.5q-30 -50 -44 -75q-190 -332 -219 -393q-114 -232 -33 -258q57 -18 185.5 91t228.5 226t143 180q332 481 410 742q14 47 31 51 q18 17 28 -12q88 -238 -25.5 -680.5t-289.5 -679.5q-137 -186 -313 -302t-357 -116q-186 0 -310 106.5t-153 331.5q-2 16 3.5 22.5t12.5 0.5t9 -19q27 -172 130.5 -280.5t240.5 -108.5q74 0 149.5 36t133 81t129 127t109.5 131t99 137q199 279 304.5 594.5t95.5 526.5 q-49 -166 -167 -375t-253 -379q-49 -61 -117 -134t-162 -162t-186 -141.5t-152 -37.5q-37 8 -47 45t6.5 97.5t42 127t70.5 152.5t84 156.5t88 154.5q125 209 152 303q71 240 -193 242q-223 2 -598 -123q-271 -93 -253 -172q5 -23 36 -43q10 -7 -4 -7q-11 0 -19 5 q-39 27 -45 75zM1308 1360q-3 11 33 14q106 8 234.5 90t103.5 133q-5 12 22 3q70 -25 101 -54q16 -27 -36 -70.5t-162.5 -83.5t-237.5 -44q-55 -2 -58 12z" />
<glyph unicode="&#xde;" horiz-adv-x="1103" d="M-32 -465q0 8 3 21q27 106 217 397q-82 20 -135 63q-51 41 -59 95.5t35 95.5q17 13 18 1q1 -10 -10 -24q-20 -29 -12 -70.5t47 -72.5q53 -41 137 -57q70 104 248 383.5t248 386.5q-389 -92 -533 -215q-35 -27 -22 -45q8 -16 1.5 -18.5t-16.5 5.5q-43 27 -59.5 77t2.5 69 q63 94 276 175t463 122q168 254 256 372q12 16 26 -18q6 -14 5 -23q-94 -137 -211 -319q61 8 90 10q154 14 266.5 -17.5t168 -94t66.5 -147.5t-21.5 -173t-110.5 -176t-189 -154q-170 -98 -438 -181t-469 -60q-184 -272 -231 -392q-10 -30 -38 -34q-18 -3 -19 18zM281 -25 q197 -10 461 76t403 180q119 80 181.5 170.5t60 166t-49.5 135t-152.5 85t-244.5 9.5q-72 -6 -149 -25q-428 -682 -510 -797z" />
<glyph unicode="&#xdf;" horiz-adv-x="1316" d="M-336 -340q-12 16 21 33q90 41 266 354q37 63 122 223t160.5 294t143.5 237q51 76 73.5 110.5t78 107.5t92 110.5t97 91t115 81t124 48t143.5 20.5q342 0 342 -213q0 -84 -97.5 -172t-202 -140t-204.5 -87q-45 -14 -45 -31q0 -15 39 -16q170 -6 270.5 -61.5t116.5 -139.5 t-21.5 -179t-137 -189.5t-236.5 -161.5q-203 -98 -469 -99q-113 0 -200 23.5t-113.5 41t-63.5 48.5q-38 31 -20 31q12 0 36 -11q78 -27 232 -26q123 0 280.5 31.5t280.5 101.5q102 57 167.5 137t77 155.5t-21.5 139t-132 97.5t-247 22q-35 -4 -34 25q2 39 70 66q17 7 38 11 q504 123 504 340q0 178 -240 178q-125 0 -254 -100q-268 -211 -817 -1165q-8 -14 -39 -68.5t-41 -72t-36.5 -60.5t-43 -61.5t-41 -46t-48 -42t-48.5 -24.5q-25 -8 -37 8z" />
<glyph unicode="&#xe0;" horiz-adv-x="987" d="M5 211q31 98 120 192q102 109 253.5 155t254.5 -11q63 -39 80 -88q25 0 49 -10.5t38.5 -34t-20.5 -64.5q-6 -8 -28.5 -34.5t-46 -57.5t-41.5 -57q-66 -96 -51.5 -137t132.5 22q143 82 318 246q20 20 26 6q4 -11 -8 -23q-252 -238 -397 -303q-133 -59 -192.5 1.5 t-10.5 172.5l15 35q-94 -115 -213 -186q-160 -95 -246 -23q-75 63 -32 199zM152 65q11 -59 113 -3q84 46 192 155q6 6 27 25l40 40q21 19 48.5 47.5t47 52.5t35 50.5t14 43t-13.5 28.5q-51 35 -155.5 -11.5t-198.5 -156.5q-163 -192 -149 -271zM424 901q13 18 87 38 q27 4 28 -3q-27 -43 76.5 -124t195.5 -95q26 -3 28 -12q4 -15 -46 -10q-4 0 -9 1q-111 14 -204 56.5t-132.5 84.5t-23.5 64z" />
<glyph unicode="&#xe1;" horiz-adv-x="987" d="M5 211q31 98 120 192q102 109 253.5 155t254.5 -11q63 -39 80 -88q25 0 49 -10.5t38.5 -34t-20.5 -64.5q-6 -8 -28.5 -34.5t-46 -57.5t-41.5 -57q-66 -96 -51.5 -137t132.5 22q143 82 318 246q20 20 26 6q4 -11 -8 -23q-252 -238 -397 -303q-133 -59 -192.5 1.5 t-10.5 172.5l15 35q-94 -115 -213 -186q-160 -95 -246 -23q-75 63 -32 199zM152 65q11 -59 113 -3q84 46 192 155q6 6 27 25l40 40q21 19 48.5 47.5t47 52.5t35 50.5t14 43t-13.5 28.5q-51 35 -155.5 -11.5t-198.5 -156.5q-163 -192 -149 -271zM427 686q-3 11 34 14 q106 6 234 88t104 136q-5 10 19 3q64 -19 99 -50q4 -3 5 -5q16 -29 -36 -72.5t-163 -82.5t-238 -43q-55 -2 -58 12z" />
<glyph unicode="&#xe2;" horiz-adv-x="987" d="M5 211q31 98 120 192q102 109 253.5 155t254.5 -11q63 -39 80 -88q25 0 49 -10.5t38.5 -34t-20.5 -64.5q-6 -8 -28.5 -34.5t-46 -57.5t-41.5 -57q-66 -96 -51.5 -137t132.5 22q143 82 318 246q20 20 26 6q4 -11 -8 -23q-252 -238 -397 -303q-133 -59 -192.5 1.5 t-10.5 172.5l15 35q-94 -115 -213 -186q-160 -95 -246 -23q-75 63 -32 199zM152 65q11 -59 113 -3q84 46 192 155q6 6 27 25l40 40q21 19 48.5 47.5t47 52.5t35 50.5t14 43t-13.5 28.5q-51 35 -155.5 -11.5t-198.5 -156.5q-163 -192 -149 -271zM362 718q10 15 23 15 q45 -2 123 38t149 99q0 2 5 7q22 33 95 92q30 22 23 8q-29 -59 -19.5 -120.5t50.5 -104.5t86 -35q20 3 23 -7q2 -8 -15 -15q-9 -4 -22 -7q-109 -27 -173.5 17.5t-64.5 111.5q-68 -55 -145.5 -89t-132.5 -32q-18 0 -5 22z" />
<glyph unicode="&#xe3;" horiz-adv-x="987" d="M5 211q31 98 120 192q102 109 253.5 155t254.5 -11q63 -39 80 -88q25 0 49 -10.5t38.5 -34t-20.5 -64.5q-6 -8 -28.5 -34.5t-46 -57.5t-41.5 -57q-66 -96 -51.5 -137t132.5 22q143 82 318 246q20 20 26 6q4 -11 -8 -23q-252 -238 -397 -303q-133 -59 -192.5 1.5 t-10.5 172.5l15 35q-94 -115 -213 -186q-160 -95 -246 -23q-75 63 -32 199zM152 65q11 -59 113 -3q84 46 192 155q6 6 27 25l40 40q21 19 48.5 47.5t47 52.5t35 50.5t14 43t-13.5 28.5q-51 35 -155.5 -11.5t-198.5 -156.5q-163 -192 -149 -271zM393 709q-6 7 6 20 q121 115 201 115q66 0 112 -21.5t73.5 -35t62.5 -1.5q39 21 51 48q18 -4 21.5 -19.5t-9 -35t-34.5 -38.5q-63 -47 -121 -53t-91.5 15.5t-70.5 48t-55 28.5q-49 8 -121 -63q-16 -18 -25 -8z" />
<glyph unicode="&#xe4;" horiz-adv-x="987" d="M5 211q31 98 120 192q102 109 253.5 155t254.5 -11q63 -39 80 -88q25 0 49 -10.5t38.5 -34t-20.5 -64.5q-6 -8 -28.5 -34.5t-46 -57.5t-41.5 -57q-66 -96 -51.5 -137t132.5 22q143 82 318 246q20 20 26 6q4 -11 -8 -23q-252 -238 -397 -303q-133 -59 -192.5 1.5 t-10.5 172.5l15 35q-94 -115 -213 -186q-160 -95 -246 -23q-75 63 -32 199zM152 65q11 -59 113 -3q84 46 192 155q6 6 27 25l40 40q21 19 48.5 47.5t47 52.5t35 50.5t14 43t-13.5 28.5q-51 35 -155.5 -11.5t-198.5 -156.5q-163 -192 -149 -271zM481 729q4 31 29 59.5 t55.5 35.5t50.5 -9q20 -14 17.5 -46t-29.5 -58q-25 -27 -55.5 -36t-51 7t-16.5 47zM730 730q3 32 30 58q25 29 55.5 36t51 -9t16.5 -46t-29 -58q-25 -27 -55.5 -36t-51 7t-17.5 48z" />
<glyph unicode="&#xe5;" horiz-adv-x="987" d="M5 211q31 98 120 192q102 109 253.5 155t254.5 -11q63 -39 80 -88q25 0 49 -10.5t38.5 -34t-20.5 -64.5q-6 -8 -28.5 -34.5t-46 -57.5t-41.5 -57q-66 -96 -51.5 -137t132.5 22q143 82 318 246q20 20 26 6q4 -11 -8 -23q-252 -238 -397 -303q-133 -59 -192.5 1.5 t-10.5 172.5l15 35q-94 -115 -213 -186q-160 -95 -246 -23q-75 63 -32 199zM152 65q11 -59 113 -3q84 46 192 155q6 6 27 25l40 40q21 19 48.5 47.5t47 52.5t35 50.5t14 43t-13.5 28.5q-51 35 -155.5 -11.5t-198.5 -156.5q-163 -192 -149 -271zM450 695q-5 25 3 61 q8 43 51 100t84 90q47 39 107.5 53.5t117.5 -8.5q55 -25 51 -92.5t-71 -138.5q-73 -79 -192 -113q-135 -39 -151 48zM492 716q2 -27 22 -36q29 -12 84 10.5t102 73.5q47 49 52.5 95t-19.5 52q-84 40 -175 -55q-72 -76 -66 -140z" />
<glyph unicode="&#xe6;" horiz-adv-x="1200" d="M5 211q31 98 120 192q102 109 253.5 155t254.5 -11q51 -31 72 -68q141 92 288 86q100 -2 136 -50t-0.5 -111.5t-131.5 -108.5q-117 -55 -211 -51q-24 1 -27 8q-2 4 6 7t23 3q82 0 191 57q116 63 110 131q-5 48 -66 51q-37 2 -81 -18q-84 -39 -178 -149.5t-111 -198.5 q-10 -57 27 -87t102 -28q94 2 243 105.5t249 204.5q23 22 25 2q1 -15 -13 -29q-192 -175 -280 -232q-157 -103 -295 -106q-135 -20 -208 42.5t-22 178.5l15 35q-94 -115 -213 -186q-160 -95 -246 -23q-75 63 -32 199zM152 65q11 -59 113 -3q84 46 192 155q6 6 27 25l40 40 q21 19 48.5 47.5t47 52.5t35 50.5t14 43t-13.5 28.5q-51 35 -155.5 -11.5t-198.5 -156.5q-163 -192 -149 -271z" />
<glyph unicode="&#xe7;" horiz-adv-x="700" d="M-111 -393q2 8 17 12q20 6 55 9t54.5 7.5t40 25t30.5 58.5q6 20 -18.5 71.5t-16.5 82.5q14 68 68 104q-125 33 -127 158q-2 176 159.5 306t340.5 124q92 -2 127.5 -48t9.5 -105q-17 -37 -51 -36q-27 1 -11 34q41 74 17.5 102.5t-125.5 -12.5q-86 -39 -176 -144.5 t-107 -195.5q-8 -47 6.5 -83t49 -52.5t97 -2t140.5 63.5q117 74 297 240q24 24 28 4q3 -15 -12 -27q-250 -229 -383 -291q-133 -59 -245 -43q-35 -25 -45 -71q-4 -18 46 -90t40 -111q-27 -104 -295 -105q-14 0 -11 15z" />
<glyph unicode="&#xe8;" horiz-adv-x="700" d="M-8 135q-2 176 158.5 306t338.5 124q100 -2 136.5 -50t-0.5 -111.5t-131 -108.5q-117 -55 -211 -51q-23 1 -27 8q-3 5 7 8q8 2 22 2q82 0 192 57q116 63 109 131q-5 48 -67 51q-37 2 -81 -18q-86 -39 -165.5 -135t-96.5 -188q-10 -61 16.5 -101.5t86.5 -38.5 q94 2 239.5 102.5t251.5 203.5q24 24 25 4q0 -15 -13 -27q-76 -70 -101.5 -93.5t-101 -83.5t-122.5 -85t-118 -50.5t-136 -25.5q-94 0 -151.5 45t-59.5 125zM227 901q13 18 88 38q27 4 27 -3q-29 -43 75.5 -124t196.5 -95q24 -3 27 -12q1 -4 -6 -7q-15 -6 -47 -2 q-111 14 -204 56.5t-133 84.5t-24 64z" />
<glyph unicode="&#xe9;" horiz-adv-x="700" d="M-8 135q-2 176 158.5 306t338.5 124q100 -2 136.5 -50t-0.5 -111.5t-131 -108.5q-117 -55 -211 -51q-23 1 -27 8q-3 5 7 8q8 2 22 2q82 0 192 57q116 63 109 131q-5 48 -67 51q-37 2 -81 -18q-86 -39 -165.5 -135t-96.5 -188q-10 -61 16.5 -101.5t86.5 -38.5 q94 2 239.5 102.5t251.5 203.5q24 24 25 4q0 -15 -13 -27q-76 -70 -101.5 -93.5t-101 -83.5t-122.5 -85t-118 -50.5t-136 -25.5q-94 0 -151.5 45t-59.5 125zM329 686q-1 5 8 10q9 4 23 4q68 4 155 44t144.5 92.5t40.5 87.5q-5 11 22 2q71 -26 101 -54q16 -29 -36 -72.5 t-162.5 -82.5t-237.5 -43q-55 -2 -58 12z" />
<glyph unicode="&#xea;" horiz-adv-x="700" d="M-8 135q-2 176 158.5 306t338.5 124q100 -2 136.5 -50t-0.5 -111.5t-131 -108.5q-117 -55 -211 -51q-23 1 -27 8q-3 5 7 8q8 2 22 2q82 0 192 57q116 63 109 131q-5 48 -67 51q-37 2 -81 -18q-86 -39 -165.5 -135t-96.5 -188q-10 -61 16.5 -101.5t86.5 -38.5 q94 2 239.5 102.5t251.5 203.5q24 24 25 4q0 -15 -13 -27q-76 -70 -101.5 -93.5t-101 -83.5t-122.5 -85t-118 -50.5t-136 -25.5q-94 0 -151.5 45t-59.5 125zM285 718q9 15 22 15q45 -2 123 38t150 99q0 2 4 7q29 38 101 95q26 18 20 5q-31 -53 19 -119.5t128 -107.5t127 -33 q-96 -13 -172 -29q-109 -27 -173.5 16.5t-66.5 110.5q-158 -125 -278 -119q-16 0 -4 22z" />
<glyph unicode="&#xeb;" horiz-adv-x="700" d="M-8 135q-2 176 158.5 306t338.5 124q100 -2 136.5 -50t-0.5 -111.5t-131 -108.5q-117 -55 -211 -51q-23 1 -27 8q-3 5 7 8q8 2 22 2q82 0 192 57q116 63 109 131q-5 48 -67 51q-37 2 -81 -18q-86 -39 -165.5 -135t-96.5 -188q-10 -61 16.5 -101.5t86.5 -38.5 q94 2 239.5 102.5t251.5 203.5q24 24 25 4q0 -15 -13 -27q-76 -70 -101.5 -93.5t-101 -83.5t-122.5 -85t-118 -50.5t-136 -25.5q-94 0 -151.5 45t-59.5 125zM383 729q4 31 28.5 59.5t55.5 35.5t51 -9q20 -14 17 -46t-27.5 -58.5t-56 -35.5t-52 7t-16.5 47zM633 729 q4 31 28.5 59.5t55.5 35.5t51 -9q20 -14 17 -46t-29 -58q-25 -27 -55.5 -36t-51 7t-16.5 47z" />
<glyph unicode="&#xec;" horiz-adv-x="557" d="M-47 208q-4 18 22 38q43 35 153 143.5t144 126.5q71 38 110 15q12 -7 5 -15q-84 -86 -152.5 -245.5t-31.5 -198.5q33 -37 149.5 36.5t241.5 186.5q20 19 26 -1q2 -8 -4 -13q-98 -86 -165.5 -141.5t-164 -107.5t-159.5 -48q-68 4 -101.5 34.5t-32.5 71.5t11 75t23 54 q18 29 82 105q-23 -18 -71 -61.5t-65 -55.5q-17 -14 -20 1zM135 889q13 18 87 37q31 7 28 -2q-29 -43 74.5 -124t197.5 -95q25 -5 27 -13q4 -15 -49 -9q-2 0 -4 1q-111 12 -204 54t-133 85t-24 66z" />
<glyph unicode="&#xed;" horiz-adv-x="557" d="M-47 208q-4 18 22 38q43 35 153 143.5t144 126.5q71 38 110 15q12 -7 5 -15q-84 -86 -152.5 -245.5t-31.5 -198.5q33 -37 149.5 36.5t241.5 186.5q20 19 26 -1q2 -8 -4 -13q-98 -86 -165.5 -141.5t-164 -107.5t-159.5 -48q-68 4 -101.5 34.5t-32.5 71.5t11 75t23 54 q18 29 82 105q-23 -18 -71 -61.5t-65 -55.5q-17 -14 -20 1zM298 686q-1 5 8 10q9 4 24 4q68 4 154.5 44t144 92.5t41.5 87.5q-5 10 19 3q64 -19 99 -50q4 -3 5 -5q16 -29 -36 -72.5t-163 -82.5t-238 -43q-55 -2 -58 12z" />
<glyph unicode="&#xee;" horiz-adv-x="557" d="M-47 208q-4 18 22 38q43 35 153 143.5t144 126.5q71 38 110 15q12 -7 5 -15q-84 -86 -152.5 -245.5t-31.5 -198.5q33 -37 149.5 36.5t241.5 186.5q20 19 26 -1q2 -8 -4 -13q-98 -86 -165.5 -141.5t-164 -107.5t-159.5 -48q-68 4 -101.5 34.5t-32.5 71.5t11 75t23 54 q18 29 82 105q-23 -18 -71 -61.5t-65 -55.5q-17 -14 -20 1zM138 718q9 15 22 15q45 -2 122.5 38t149.5 99q0 2 4 7q22 33 98 93q30 21 23 7q-47 -84 -2 -178t119 -82q20 3 23 -7q2 -8 -15 -15q-9 -4 -23 -7q-109 -27 -174 17.5t-65 111.5q-68 -55 -145.5 -89t-133.5 -32 q-16 0 -3 22z" />
<glyph unicode="&#xef;" horiz-adv-x="557" d="M-47 208q-4 18 22 38q43 35 153 143.5t144 126.5q71 38 110 15q12 -7 5 -15q-84 -86 -152.5 -245.5t-31.5 -198.5q33 -37 149.5 36.5t241.5 186.5q20 19 26 -1q2 -8 -4 -13q-98 -86 -165.5 -141.5t-164 -107.5t-159.5 -48q-68 4 -101.5 34.5t-32.5 71.5t11 75t23 54 q18 29 82 105q-23 -18 -71 -61.5t-65 -55.5q-17 -14 -20 1zM237.5 729q4.5 31 29 59.5t55.5 35.5t51 -9q20 -14 17 -46t-27.5 -58.5t-56.5 -35.5t-52.5 7t-16 47zM487.5 729q4.5 31 29 59.5t55.5 35.5t51 -9q20 -14 17 -46t-27.5 -58.5t-56.5 -35.5t-52.5 7t-16 47z" />
<glyph unicode="&#xf0;" horiz-adv-x="819" d="M-123 1010q0 78 71.5 103.5t155.5 9t140 -49.5q86 -51 180 -170q76 0 215 -16q12 -2 18.5 -11.5t2 -17.5t-18.5 -8q-90 -2 -168 -12q43 -59 176 -269q47 -74 74 -122t54.5 -121.5t27.5 -129t-30.5 -116t-100.5 -107.5q-76 -51 -203 7.5t-233.5 183.5t-134 248t48.5 184 q74 43 178 1t207 -144q-35 59 -98.5 185t-94.5 181q-201 -35 -225 -39q-21 -5 -14 50q8 57 30 59q86 8 158 12q-102 147 -221 172q-39 14 -95.5 1t-56.5 -64q0 -14 -11 -19.5t-21.5 -0.5t-10.5 20zM282 350q9 -98 78 -205q68 -104 155 -149t138 -12q49 29 41 125t-78 202 q-68 106 -155.5 151.5t-138.5 12.5q-49 -27 -40 -125z" />
<glyph unicode="&#xf1;" horiz-adv-x="876" d="M-45 18q6 8 113.5 143.5t169 237t53.5 156.5q-31 -49 -106.5 -140t-153.5 -161q-18 -16 -22 4q-2 12 7 21q129 111 260 309q-9 9 5 9q5 0 8 -1q59 -23 65 -96q12 -88 -35 -201q80 104 121 150q120 133 236 116q79 -12 94 -86q9 -46 -16 -102q-25 -49 -138 -205 q-27 -37 -38 -62.5t-8 -38t17.5 -14.5t36 7.5t48.5 25.5q113 76 280 244q20 22 24 6t-11 -31q-207 -219 -359 -291q-113 -57 -176 -17t-22 157q39 104 213 301q49 56 13 66q-47 14 -143 -68q-24 -21 -49 -47q-66 -68 -170 -207q-51 -94 -122 -176q-47 -51 -84 -52 q-57 -4 -111 43zM393 709q-6 7 6 20q121 115 201 115q66 0 112 -21.5t73.5 -35t62.5 -1.5q39 21 51 48q18 -4 21.5 -19.5t-9 -35t-34.5 -38.5q-63 -47 -121 -53t-91.5 15.5t-70.5 48t-55 28.5q-49 8 -121 -63q-16 -18 -25 -8z" />
<glyph unicode="&#xf2;" horiz-adv-x="763" d="M-45.5 210.5q-3.5 16.5 20.5 35.5q55 43 129 117.5t107 101.5q51 43 110.5 71.5t129 37t127.5 -20.5q59 -29 77.5 -88t-9.5 -138t-101 -157q-47 -53 -131 -107q168 27 356 203q10 8 18.5 7t8 -9t-8.5 -16q-229 -217 -428 -213q-76 -39 -145.5 -57.5t-126.5 -11.5 t-84 56.5t-8 139.5q8 43 31 90q-27 -27 -52 -43q-17 -15 -20.5 1.5zM34 172q-32 -111 25 -160q70 -35 205 41q-100 43 -82 164q12 84 82 155t158 89q-113 25 -234.5 -76.5t-153.5 -212.5zM233 221q-20 -119 62 -149q59 37 115 96q53 59 77.5 115.5t20.5 93.5t-27 57 q-51 29 -142 -48t-106 -165zM264 901q13 18 88 38q27 4 27 -3q-29 -43 75.5 -124t196.5 -95q24 -3 27 -12q1 -4 -6 -7q-15 -6 -47 -2q-111 14 -204 56.5t-133 84.5t-24 64z" />
<glyph unicode="&#xf3;" horiz-adv-x="763" d="M-45.5 210.5q-3.5 16.5 20.5 35.5q55 43 129 117.5t107 101.5q51 43 110.5 71.5t129 37t127.5 -20.5q59 -29 77.5 -88t-9.5 -138t-101 -157q-47 -53 -131 -107q168 27 356 203q10 8 18.5 7t8 -9t-8.5 -16q-229 -217 -428 -213q-76 -39 -145.5 -57.5t-126.5 -11.5 t-84 56.5t-8 139.5q8 43 31 90q-27 -27 -52 -43q-17 -15 -20.5 1.5zM34 172q-32 -111 25 -160q70 -35 205 41q-100 43 -82 164q12 84 82 155t158 89q-113 25 -234.5 -76.5t-153.5 -212.5zM233 221q-20 -119 62 -149q59 37 115 96q53 59 77.5 115.5t20.5 93.5t-27 57 q-51 29 -142 -48t-106 -165zM403 711q-3 11 33 14q66 4 153 44t144.5 92t40.5 87q-5 10 20 3q64 -19 99 -49q3 -3 4 -5q16 -29 -36 -73t-162.5 -83t-237.5 -43q-55 -2 -58 13z" />
<glyph unicode="&#xf4;" horiz-adv-x="763" d="M-45.5 210.5q-3.5 16.5 20.5 35.5q55 43 129 117.5t107 101.5q51 43 110.5 71.5t129 37t127.5 -20.5q59 -29 77.5 -88t-9.5 -138t-101 -157q-47 -53 -131 -107q168 27 356 203q10 8 18.5 7t8 -9t-8.5 -16q-229 -217 -428 -213q-76 -39 -145.5 -57.5t-126.5 -11.5 t-84 56.5t-8 139.5q8 43 31 90q-27 -27 -52 -43q-17 -15 -20.5 1.5zM34 172q-32 -111 25 -160q70 -35 205 41q-100 43 -82 164q12 84 82 155t158 89q-113 25 -234.5 -76.5t-153.5 -212.5zM233 221q-20 -119 62 -149q59 37 115 96q53 59 77.5 115.5t20.5 93.5t-27 57 q-51 29 -142 -48t-106 -165zM285 718q9 15 22 15q45 -2 123 38t150 99q0 2 4 7q29 38 101 95q26 18 20 5q-47 -84 -2.5 -178t118.5 -82q20 3 23 -7q2 -8 -15 -15q-9 -4 -22 -7q-109 -27 -173.5 16.5t-66.5 110.5q-158 -125 -278 -119q-16 0 -4 22z" />
<glyph unicode="&#xf5;" horiz-adv-x="763" d="M-45.5 210.5q-3.5 16.5 20.5 35.5q55 43 129 117.5t107 101.5q51 43 110.5 71.5t129 37t127.5 -20.5q59 -29 77.5 -88t-9.5 -138t-101 -157q-47 -53 -131 -107q168 27 356 203q10 8 18.5 7t8 -9t-8.5 -16q-229 -217 -428 -213q-76 -39 -145.5 -57.5t-126.5 -11.5 t-84 56.5t-8 139.5q8 43 31 90q-27 -27 -52 -43q-17 -15 -20.5 1.5zM34 172q-32 -111 25 -160q70 -35 205 41q-100 43 -82 164q12 84 82 155t158 89q-113 25 -234.5 -76.5t-153.5 -212.5zM233 221q-20 -119 62 -149q59 37 115 96q53 59 77.5 115.5t20.5 93.5t-27 57 q-51 29 -142 -48t-106 -165z" />
<glyph unicode="&#xf6;" horiz-adv-x="763" d="M-45.5 210.5q-3.5 16.5 20.5 35.5q55 43 129 117.5t107 101.5q51 43 110.5 71.5t129 37t127.5 -20.5q59 -29 77.5 -88t-9.5 -138t-101 -157q-47 -53 -131 -107q168 27 356 203q10 8 18.5 7t8 -9t-8.5 -16q-229 -217 -428 -213q-76 -39 -145.5 -57.5t-126.5 -11.5 t-84 56.5t-8 139.5q8 43 31 90q-27 -27 -52 -43q-17 -15 -20.5 1.5zM34 172q-32 -111 25 -160q70 -35 205 41q-100 43 -82 164q12 84 82 155t158 89q-113 25 -234.5 -76.5t-153.5 -212.5zM233 221q-20 -119 62 -149q59 37 115 96q53 59 77.5 115.5t20.5 93.5t-27 57 q-51 29 -142 -48t-106 -165zM432 729q4 31 29 59q25 27 56.5 35t49.5 -8q20 -14 17.5 -46t-27.5 -58.5t-56.5 -35.5t-52 7t-16.5 47zM682 729q4 31 28.5 59.5t55.5 35.5t51 -9q20 -14 17 -46t-27.5 -58.5t-56 -35.5t-52 7t-16.5 47z" />
<glyph unicode="&#xf7;" d="M179.5 345q-1.5 28 8 56.5t23.5 28.5q319 33 549 -2q25 -4 23 -23q0 -14 -19 -14q-76 -2 -159 -10t-127 -15.5t-149.5 -24.5t-133.5 -22q-14 -2 -15.5 26zM210.5 134q4.5 40 37.5 77q33 35 72.5 46t66.5 -9.5t23 -61.5t-37 -75q-33 -37 -74 -48.5t-66 11.5 q-27 20 -22.5 60zM484 601.5q5 39.5 36 74.5q33 37 74 48.5t68 -11.5q25 -20 20.5 -61.5t-37.5 -76t-73 -46t-66 9.5q-27 23 -22 62.5z" />
<glyph unicode="&#xf8;" horiz-adv-x="763" d="M-45 210q-3 16 20 36q51 43 125 115.5t111 103.5q98 84 209 104q129 184 143 185q2 0 12 2q49 10 51 -3q1 -6 -8 -18l-120 -162q45 -4 80 -20q59 -29 77.5 -88t-9.5 -138t-101 -157q-47 -53 -131 -107q168 27 356 203q10 8 18.5 7t8 -9t-8.5 -16q-229 -217 -428 -213 q-162 -86 -270 -68q-55 -98 -74 -141q-11 -26 -25 -11q-12 13 -1 46q16 45 57 119q-80 45 -51 182q8 43 31 90q-27 -27 -52 -43q-17 -15 -20 1zM25.5 148.5q-21.5 -93.5 33.5 -136.5l4 -2q43 74 117 195q0 2 1 6t1 6q18 121 133 197l33 49q-104 -16 -202.5 -118.5t-120 -196 zM113 4q69 4 151 49q-57 25 -74 74q-33 -49 -77 -123zM229 188q-2 -90 66 -116q59 37 115 96q53 59 77.5 115.5t20.5 93.5t-27 57q-35 18 -92 -14q-45 -63 -160 -232z" />
<glyph unicode="&#xf9;" horiz-adv-x="937" d="M23.5 268.5q-3.5 14.5 13.5 28.5q61 53 130 122.5t107 100.5q66 49 134.5 46t93 -53t-7.5 -136q-14 -31 -36 -63.5t-52.5 -73.5t-45.5 -62q-78 -111 -40 -117t116 66l66 63q100 109 176 209q57 74 65 82l11 11q33 39 71 40q62 0 113 -45q-12 -18 -40 -53t-55.5 -70.5 t-63.5 -83t-62.5 -88t-54 -87t-39 -79t-15.5 -65.5t17 -47q9 -9 -4 -9q-5 0 -9 1q-66 23 -75 100q-10 109 63 264q-223 -283 -358 -282q-66 0 -90.5 43t2.5 137q29 86 206 291q38 41 18 58q-23 19 -85 -28q-55 -41 -141 -121.5t-109 -99.5q-16 -14 -19.5 0.5zM436 877 q12 17 88 36q27 4 27 -2q-27 -43 76.5 -125t195.5 -96q25 -4 27 -11q1 -4 -6 -7q-14 -5 -47 -2q-111 14 -204 56t-133 85t-24 66z" />
<glyph unicode="&#xfa;" horiz-adv-x="937" d="M23.5 268.5q-3.5 14.5 13.5 28.5q61 53 130 122.5t107 100.5q66 49 134.5 46t93 -53t-7.5 -136q-14 -31 -36 -63.5t-52.5 -73.5t-45.5 -62q-78 -111 -40 -117t116 66l66 63q100 109 176 209q57 74 65 82l11 11q33 39 71 40q62 0 113 -45q-12 -18 -40 -53t-55.5 -70.5 t-63.5 -83t-62.5 -88t-54 -87t-39 -79t-15.5 -65.5t17 -47q9 -9 -4 -9q-5 0 -9 1q-66 23 -75 100q-10 109 63 264q-223 -283 -358 -282q-66 0 -90.5 43t2.5 137q29 86 206 291q38 41 18 58q-23 19 -85 -28q-55 -41 -141 -121.5t-109 -99.5q-16 -14 -19.5 0.5zM532 674 q-3 11 33 14q106 6 234.5 88t103.5 135q-5 10 20 3q64 -19 99 -49q3 -3 4 -5q16 -27 -36 -72t-162.5 -83.5t-237.5 -42.5q-55 -2 -58 12z" />
<glyph unicode="&#xfb;" horiz-adv-x="937" d="M23.5 268.5q-3.5 14.5 13.5 28.5q61 53 130 122.5t107 100.5q66 49 134.5 46t93 -53t-7.5 -136q-14 -31 -36 -63.5t-52.5 -73.5t-45.5 -62q-78 -111 -40 -117t116 66l66 63q100 109 176 209q57 74 65 82l11 11q33 39 71 40q62 0 113 -45q-12 -18 -40 -53t-55.5 -70.5 t-63.5 -83t-62.5 -88t-54 -87t-39 -79t-15.5 -65.5t17 -47q9 -9 -4 -9q-5 0 -9 1q-66 23 -75 100q-10 109 63 264q-223 -283 -358 -282q-66 0 -90.5 43t2.5 137q29 86 206 291q38 41 18 58q-23 19 -85 -28q-55 -41 -141 -121.5t-109 -99.5q-16 -14 -19.5 0.5zM442 718 q10 15 23 15q45 -2 123 38t149 99q0 2 4 7q22 33 98 93q30 21 23 7q-47 -84 -2 -178t119 -82q20 3 23 -7q2 -8 -15 -15q-9 -4 -22 -7q-109 -27 -174.5 17.5t-65.5 111.5q-68 -55 -145.5 -89t-133.5 -32q-18 0 -4 22z" />
<glyph unicode="&#xfc;" horiz-adv-x="937" d="M23.5 268.5q-3.5 14.5 13.5 28.5q61 53 130 122.5t107 100.5q66 49 134.5 46t93 -53t-7.5 -136q-14 -31 -36 -63.5t-52.5 -73.5t-45.5 -62q-78 -111 -40 -117t116 66l66 63q100 109 176 209q57 74 65 82l11 11q33 39 71 40q62 0 113 -45q-12 -18 -40 -53t-55.5 -70.5 t-63.5 -83t-62.5 -88t-54 -87t-39 -79t-15.5 -65.5t17 -47q9 -9 -4 -9q-5 0 -9 1q-66 23 -75 100q-10 109 63 264q-223 -283 -358 -282q-66 0 -90.5 43t2.5 137q29 86 206 291q38 41 18 58q-23 19 -85 -28q-55 -41 -141 -121.5t-109 -99.5q-16 -14 -19.5 0.5zM487.5 729 q4.5 31 29 59.5t55.5 35.5t51 -9q20 -14 17 -46t-27.5 -58.5t-56.5 -35.5t-52.5 7t-16 47zM737 729q4 31 29 59.5t55.5 35.5t50.5 -9q20 -14 17.5 -46t-27.5 -58q-27 -27 -57.5 -36t-51 7t-16.5 47z" />
<glyph unicode="&#xfd;" horiz-adv-x="854" d="M-535 -272q0 10 4.5 14t10.5 0t6 -12q20 -115 109.5 -186.5t205.5 -71.5q154 0 314.5 117.5t304.5 312.5q137 188 328 557q-61 -92 -113 -156q-256 -315 -393 -315q-66 0 -91.5 43t1.5 137q29 82 208 291q39 44 14 60q-24 15 -81 -30q-57 -41 -157.5 -135t-121.5 -110 q-19 -15 -20 1q-1 13 14 25q39 31 131 125t133 125q66 49 134.5 46t94 -53t-6.5 -136q-14 -31 -36 -62.5t-55.5 -76.5t-44.5 -60q-85 -122 -32 -116q38 4 110 65q80 74 184.5 200t178.5 234q66 152 114 166q63 19 89 -25q20 -34 -13 -48q-14 -5 -35 -3q-66 8 -110 -86 q-25 -53 -63 -169.5t-70.5 -215t-108.5 -229.5t-176 -238q-117 -123 -265.5 -200.5t-301.5 -77.5q-158 0 -263.5 71.5t-130.5 221.5zM489 817q-3 11 33 14q106 6 234.5 88t103.5 136q-5 10 20 3q64 -19 99 -50q3 -2 4 -4q16 -27 -36 -72t-162.5 -84t-237.5 -43 q-55 -2 -58 12z" />
<glyph unicode="&#xfe;" horiz-adv-x="763" d="M-319 -498q-14 80 100 318q104 209 274 459q-39 -39 -80 -70q-18 -15 -18.5 0.5t23.5 36.5q100 86 217 233q45 59 258 315.5t235.5 279t54 23.5t60.5 -26q0 -2 -235.5 -286.5t-276.5 -340.5q98 92 197.5 129t158.5 0q66 -45 39.5 -163.5t-131.5 -239.5 q-104 -123 -225 -179.5t-187 -10.5q-43 31 -46 96t34 145q-469 -662 -418 -739q3 -5 -9 -12q-16 -9 -23 21q-1 5 -2 11zM129 77q4 -48 29 -65q43 -29 145.5 20.5t198.5 160.5q63 76 97 154.5t30.5 123.5t-23.5 68q-45 31 -155.5 -21.5t-204.5 -165.5q-63 -74 -92 -150.5 t-25 -124.5z" />
<glyph unicode="&#xff;" horiz-adv-x="854" d="M-535 -272q0 10 4.5 14t10.5 0t6 -12q20 -115 109.5 -186.5t205.5 -71.5q154 0 314.5 117.5t304.5 312.5q137 188 328 557q-61 -92 -113 -156q-256 -315 -393 -315q-66 0 -91.5 43t1.5 137q29 82 208 291q39 44 14 60q-24 15 -81 -30q-57 -41 -157.5 -135t-121.5 -110 q-19 -15 -20 1q-1 13 14 25q39 31 131 125t133 125q66 49 134.5 46t94 -53t-6.5 -136q-14 -31 -36 -62.5t-55.5 -76.5t-44.5 -60q-85 -122 -32 -116q38 4 110 65q80 74 184.5 200t178.5 234q66 152 114 166q63 19 89 -25q20 -34 -13 -48q-14 -5 -35 -3q-66 8 -110 -86 q-25 -53 -63 -169.5t-70.5 -215t-108.5 -229.5t-176 -238q-117 -123 -265.5 -200.5t-301.5 -77.5q-158 0 -263.5 71.5t-130.5 221.5zM549 873.5q4 29.5 29 58.5q25 27 55.5 36t50.5 -7q20 -14 17 -47t-27 -60q-25 -29 -56.5 -36t-52 9.5t-16.5 46zM799 873.5q4 29.5 28 58.5 q25 27 56 36t51 -7q20 -14 17 -47t-27 -60q-27 -29 -57.5 -36t-51 9.5t-16.5 46z" />
<glyph unicode="&#x152;" horiz-adv-x="2793" d="M28.5 209q-22.5 100 12.5 239.5t129 290.5q111 176 271.5 314.5t289.5 181.5q82 25 159 25t132 -50.5t61 -144.5q4 -74 -22 -152q-8 -25 -16 -8q-4 8 -1 19q44 155 -98 154q-153 -1 -395 -158q-212 -137 -328 -295q-115 -158 -146.5 -296.5t22 -219t181.5 -102t334 51.5 q236 82 402 252q4 246 244 504l38 39q23 121 15 238q-4 98 -31 154.5t-53.5 69.5t-52.5 5q-9 -4 -11 3q-3 12 15 17q66 23 136 -34.5t79 -206.5q2 -74 -9 -164q174 152 385 264.5t379 151.5q129 27 246 26.5t202 -54.5t91 -155q2 -80 -41 -165q-6 -12 -12 -13.5t-7 6t3 17.5 q68 156 -121 166q-215 12 -593 -145q-375 -156 -579 -345l-47 -45q-68 -135 -202 -307q-51 -199 140 -294t523 -36q301 53 591 209t429 356q29 39 28 20q1 -8 -5 -24q-55 -156 -374 -365.5t-646 -279.5q-326 -70 -529 27.5t-227 302.5q-168 -178 -356 -279 q-102 -55 -209 -65t-194 21.5t-148.5 104.5t-84 173zM1340.5 610.5q-7.5 22.5 34.5 57t151 55.5q125 29 338.5 2.5t281.5 -98.5q20 -25 9 -40.5t-41 5.5q-68 45 -216.5 48t-320.5 -34q-25 -4 -63.5 -15t-60 -16.5t-47.5 -6.5t-40 10q-18 10 -25.5 32.5z" />
<glyph unicode="&#x153;" horiz-adv-x="1120" d="M-45 210q-3 16 20 36q51 43 125 115.5t111 103.5q51 43 110.5 71.5t129 37t127.5 -20.5q41 -20 65 -61q137 80 270 73q100 -2 136 -50t-1.5 -111.5t-132.5 -108.5q-113 -55 -208 -51q-24 1 -29 8q-2 4 6.5 7t24.5 3q80 0 190 57q116 63 110 131q-5 48 -66 51 q-37 2 -81 -18q-86 -39 -167 -135t-97 -188q-10 -61 16.5 -101.5t85.5 -38.5q94 2 242 104.5t250 205.5q24 22 26 2q1 -16 -14 -29q-80 -74 -101.5 -93.5t-100 -83t-125 -87t-117 -49t-135.5 -25.5q-156 0 -199 107q-31 -23 -59 -37q-104 -53 -194.5 -68.5t-146 31.5 t-30.5 164q8 43 31 90q-27 -27 -52 -43q-17 -15 -20 1zM34 172q-32 -111 25 -160q70 -35 205 41q-100 43 -82 164q12 84 82 155t158 89q-113 25 -234.5 -76.5t-153.5 -212.5zM233 221q-20 -119 62 -149q59 37 115 96l8 8q12 107 90 199q-2 39 -27 59q-51 29 -142 -48 t-106 -165z" />
<glyph unicode="&#x178;" horiz-adv-x="1867" d="M18 960q-6 48 27 102t98 93q150 86 363 140.5t395 58.5q109 2 180.5 -17.5t106.5 -52.5t40 -86t-7.5 -104.5t-45 -123t-63.5 -127t-75 -127.5q-30 -50 -44 -75q-190 -332 -219 -393q-114 -232 -33 -258q57 -18 185.5 91t228.5 226t143 180q332 481 410 742q14 47 31 51 q18 17 28 -12q88 -238 -25.5 -680.5t-289.5 -679.5q-137 -186 -313 -302t-357 -116q-186 0 -310 106.5t-153 331.5q-2 16 3.5 22.5t12.5 0.5t9 -19q27 -172 130.5 -280.5t240.5 -108.5q74 0 149.5 36t133 81t129 127t109.5 131t99 137q199 279 304.5 594.5t95.5 526.5 q-49 -166 -167 -375t-253 -379q-49 -61 -117 -134t-162 -162t-186 -141.5t-152 -37.5q-37 8 -47 45t6.5 97.5t42 127t70.5 152.5t84 156.5t88 154.5q125 209 152 303q71 240 -193 242q-223 2 -598 -123q-271 -93 -253 -172q5 -23 36 -43q10 -7 -4 -7q-11 0 -19 5 q-39 27 -45 75zM1318 1420q3 32 27.5 58.5t56.5 36t52.5 -7t16 -47t-29 -59.5t-55 -36t-51.5 9q-20 14 -17 46zM1568 1420q3 32 27.5 58.5t56 36t52 -7t16.5 -47t-28.5 -59.5t-55 -36t-51.5 9q-20 14 -17 46z" />
<glyph unicode="&#x2c6;" horiz-adv-x="681" d="M10 702q11 18 27 17q53 -2 145 48t176 118q21 35 105 104q39 32 38 20q0 -3 -3 -8q-35 -70 -25 -139t57.5 -119.5t100.5 -42.5q25 4 27 -6q3 -16 -44 -26q-123 -31 -198.5 20t-77.5 129q-80 -66 -170 -104.5t-152 -34.5q-21 0 -6 24z" />
<glyph unicode="&#x2dc;" horiz-adv-x="587" d="M42 709q-6 7 7 20q121 115 201 115q66 0 112 -21.5t73.5 -35t62.5 -1.5q39 21 51 48q18 -4 21 -19.5t-9 -35t-35 -38.5q-63 -47 -120.5 -53t-91 15.5t-70.5 48t-56 28.5q-49 8 -120 -63q-16 -18 -26 -8z" />
<glyph unicode="&#x2000;" horiz-adv-x="920" />
<glyph unicode="&#x2001;" horiz-adv-x="1840" />
<glyph unicode="&#x2002;" horiz-adv-x="920" />
<glyph unicode="&#x2003;" horiz-adv-x="1840" />
<glyph unicode="&#x2004;" horiz-adv-x="613" />
<glyph unicode="&#x2005;" horiz-adv-x="460" />
<glyph unicode="&#x2006;" horiz-adv-x="306" />
<glyph unicode="&#x2007;" horiz-adv-x="306" />
<glyph unicode="&#x2008;" horiz-adv-x="230" />
<glyph unicode="&#x2009;" horiz-adv-x="368" />
<glyph unicode="&#x200a;" horiz-adv-x="102" />
<glyph unicode="&#x2010;" d="M179.5 345q-1.5 28 8 56.5t23.5 28.5q293 29 502 -2q25 -4 23 -23q0 -14 -19 -14q-96 -2 -174 -12t-188.5 -30.5t-159.5 -29.5q-14 -2 -15.5 26z" />
<glyph unicode="&#x2011;" d="M179.5 345q-1.5 28 8 56.5t23.5 28.5q293 29 502 -2q25 -4 23 -23q0 -14 -19 -14q-96 -2 -174 -12t-188.5 -30.5t-159.5 -29.5q-14 -2 -15.5 26z" />
<glyph unicode="&#x2012;" d="M179.5 345q-1.5 28 8 56.5t23.5 28.5q293 29 502 -2q25 -4 23 -23q0 -14 -19 -14q-96 -2 -174 -12t-188.5 -30.5t-159.5 -29.5q-14 -2 -15.5 26z" />
<glyph unicode="&#x2013;" d="M179.5 345q-1.5 28 8 56.5t23.5 28.5q242 20 415 13.5t255 -29.5q12 -4 13 -16.5t-8 -22.5t-24 -10q-53 4 -106.5 5t-93 2t-92 -3t-79 -6.5t-80 -9.5t-71.5 -10t-75.5 -12t-69.5 -12q-14 -2 -15.5 26z" />
<glyph unicode="&#x2014;" horiz-adv-x="1409" d="M179.5 345q-1.5 28 8 56.5t23.5 28.5q238 20 664.5 13.5t506.5 -29.5q12 -4 13.5 -16.5t-8 -22.5t-23.5 -10q-207 16 -608.5 -2.5t-560.5 -43.5q-14 -2 -15.5 26z" />
<glyph unicode="&#x2018;" horiz-adv-x="305" d="M33 633q-43 74 62.5 216t238.5 150q11 2 13 -5q-3 -5 -9 -7q-90 -10 -163 -87t-85 -167l8 10q37 35 80 46.5t65.5 -9t13.5 -61.5t-46 -76q-41 -41 -94.5 -48t-83.5 38z" />
<glyph unicode="&#x2019;" horiz-adv-x="305" d="M8 470q0 6 8 7q88 8 162 85t86 167l-8 -10q-37 -35 -80 -45t-65.5 10.5t-12 60t46.5 76.5q41 41 94.5 47t82.5 -37q27 -47 -10.5 -133t-120 -157.5t-171.5 -77.5q-13 -2 -12 7z" />
<glyph unicode="&#x201a;" horiz-adv-x="468" d="M-20 -213q0 5 8 6q90 8 163.5 85t86.5 167l-11 -8q-37 -37 -79 -47t-64.5 10t-13 61t46.5 76q41 41 94 47t82 -37q27 -47 -10 -133t-119 -157.5t-170 -77.5q-13 0 -14 8z" />
<glyph unicode="&#x201c;" horiz-adv-x="845" d="M82 909q-27 47 10 133t120 158t171 78q13 2 12 -7q0 -6 -8 -7q-88 -8 -161.5 -85t-86.5 -167l8 10q37 35 80 45t65.5 -10.5t12.5 -60.5t-47 -76q-41 -41 -94 -47.5t-82 36.5zM367 909q-27 47 10 133t119 158t170 78q13 2 13 -7q1 -6 -7 -7q-90 -8 -164 -85t-86 -167 l10 10q37 35 79 45t64.5 -10.5t13.5 -60.5t-46 -76q-41 -41 -94.5 -47.5t-81.5 36.5z" />
<glyph unicode="&#x201d;" horiz-adv-x="845" d="M214 805q0 6 7 6q90 10 164 87t86 167l-10 -10q-37 -35 -79 -46.5t-64.5 9t-13.5 61.5t46 76q43 41 94 47t82 -37q43 -74 -62.5 -217t-238.5 -151q-11 0 -11 8zM497 805q0 6 9 6q90 10 162.5 87t85.5 167l-9 -10q-37 -35 -79.5 -46.5t-65.5 9.5q-23 23 -12.5 62.5 t47.5 74.5q41 41 93 47t83 -37q43 -74 -62.5 -217t-238.5 -151q-13 0 -13 8z" />
<glyph unicode="&#x201e;" horiz-adv-x="671" d="M-20 -213q0 5 8 6q90 8 163.5 85t86.5 167l-11 -8q-37 -37 -79 -47t-64.5 10t-13 61t46.5 76q41 41 94 47t82 -37q27 -47 -10 -133t-119 -157.5t-170 -77.5q-13 0 -14 8zM298 -213q0 5 9 6q88 8 162 85t86 167l-8 -8q-37 -37 -80 -48.5t-66 11.5q-23 20 -13.5 61t46.5 76 q41 41 94 47t84 -37q27 -47 -10 -133t-120 -157.5t-171 -77.5q-13 0 -13 8z" />
<glyph unicode="&#x2022;" horiz-adv-x="1026" d="M125 420q0 168 118.5 287.5t286.5 119.5q170 0 289 -118.5t119 -288.5t-119 -289t-289 -119q-168 0 -286.5 120t-118.5 288z" />
<glyph unicode="&#x2026;" horiz-adv-x="1122" d="M96 61q4 41 37 76t73 46.5t66.5 -9t22.5 -61.5t-37 -76q-33 -37 -74 -48.5t-65 11.5q-27 20 -23 61zM449.5 62.5q5.5 39.5 37.5 74.5q31 35 72 46t68 -9q27 -23 21.5 -62.5t-38.5 -74.5q-31 -37 -71.5 -48.5t-67.5 11.5t-21.5 62.5zM817 61q4 41 37 76t73 46.5t66.5 -9 t22.5 -61.5t-37 -76q-33 -37 -73 -47t-66.5 10t-22.5 61z" />
<glyph unicode="&#x202f;" horiz-adv-x="368" />
<glyph unicode="&#x2039;" horiz-adv-x="606" d="M64.5 372q-3.5 3 4 9t23.5 16q4 2 21.5 12.5t25.5 16.5q131 80 255 177t153 159q10 21 48 24q16 1 17 -6q0 -2 -2 -6q-63 -137 -372 -328q51 -23 103 -84t71.5 -140t-41.5 -150q-51 -57 -51 -39q0 6 10 22q27 55 4 124t-90.5 128.5t-134.5 59.5q-23 0 -32 1t-12.5 4z" />
<glyph unicode="&#x203a;" horiz-adv-x="602" d="M39 27q68 135 375 325q-51 23 -103.5 84.5t-72 141t42.5 151.5q51 57 51 38q0 -6 -10 -22q-27 -55 -4.5 -123.5t90 -128t135.5 -59.5q29 0 38 -2t4 -9.5t-28 -21.5q-6 -4 -45 -26q-131 -80 -255 -177.5t-153 -158.5q-10 -22 -49 -25q-18 2 -16 13z" />
<glyph unicode="&#x205f;" horiz-adv-x="460" />
<glyph unicode="&#x20ac;" horiz-adv-x="1867" d="M25 403q0 100 346 105q31 78 84 158l-6 -2q-20 -2 -82 -10.5t-95 -8.5q-57 0 -57 33q0 94 332 104q176 199 438 355.5t475 210.5q113 27 213 26q80 0 147.5 -17.5t123 -68.5t55.5 -133q0 -45 -23 -45q-10 0 -14 20q-10 49 -186 50q-209 0 -499 -119t-507 -279 q461 -6 494 -26q8 -6 8 -15q0 -10 -4 -17t-9.5 -10t-15.5 -5t-15 -2h-18h-14q-109 0 -326 -13q-152 -8 -227 -14q-100 -96 -154 -170q553 -12 582 -29q10 -6 10 -16q0 -12 -5 -19.5t-15 -10.5t-17.5 -4t-22.5 0t-17 1q-109 0 -326 -12l-252 -17q-37 -80 -37 -147 q0 -80 44 -136.5t116 -85t141.5 -40.5t143.5 -12q102 0 229 20q336 59 709 279q16 8 26 8q23 0 23 -14.5t-29 -36.5q-135 -102 -337 -193.5t-370 -126.5q-129 -27 -243 -27q-213 0 -364.5 102.5t-151.5 305.5q0 45 10 96l-78 -6q-23 -2 -84 -10t-94 -8q-55 0 -55 32z" />
<glyph unicode="&#x2122;" horiz-adv-x="1306" d="M77.5 1093q24.5 52 94.5 78q106 41 245.5 58.5t254.5 7.5q113 -12 189.5 -42t96.5 -65.5t0 -72.5q-15 -20 -34 -22q-16 -2 4 28q46 73 -96 97q-125 21 -326 1q-272 -25 -380 -80q-64 -33 -26 -69q4 -4 -1 -5q-8 -1 -13 5q-33 29 -8.5 81zM311 739q18 51 63.5 121 t192.5 277q21 29 31 9q2 -4 0 -7q-166 -248 -217 -404q-12 -35 -22.5 -74.5t-7.5 -87t32 -55.5q23 -4 39 10q6 5 7 1.5t-5 -9.5q-23 -14 -53 -12q-139 10 -60 231zM494 629q2 12 44 89t91 165t61 112q18 35 47 73t51 36q14 0 15 -37q0 -6 -6 -102.5t7 -152.5t56 -56 q39 0 129 99t167 198.5t85 99.5q20 0 12 -47q-25 -123 -174 -516q-10 -29 -67 -29q-16 0 -15 17q0 4 4 12q27 55 85.5 209.5t68.5 177.5l-39 -39q-33 -33 -54.5 -55.5t-58 -56t-64.5 -54t-56.5 -37t-46.5 -16.5q-90 0 -105 235q-25 -37 -80 -153.5t-90 -155.5 q-23 -29 -51 -29q-4 0 -8 1t-6 4.5t-2 7.5z" />
<glyph unicode="&#xe000;" horiz-adv-x="695" d="M0 695h695v-695h-695v695z" />
<glyph unicode="&#xfb01;" horiz-adv-x="1017" d="M-4 -55q-18 150 123 475q-10 -4 -15 0q-6 4 -13 18.5t-11 36t1 43t28.5 43t64.5 31.5q12 4 33 8q152 281 293 377q86 59 187 63t179.5 -49t94.5 -149v-4q6 -43 -33 -88q-27 -33 -64 -42.5t-59.5 9t-19.5 54.5t32 67q27 29 58.5 39t54.5 0q-37 63 -127 65t-150 -41 q-121 -78 -280 -295q113 -10 164 -49q28 -22 43 -43q12 -23 7 -33t-28 2q-84 53 -268 2l-27 -39q-125 -201 -181 -385t-3 -247q7 -9 -2 -13q-5 -2 -8 2q-61 49 -74 142zM415 208q-5 18 21 38q47 37 154.5 144.5t142.5 125.5q73 38 111 15q11 -7 4 -15q-82 -86 -150.5 -245.5 t-33.5 -198.5q35 -37 150.5 35.5t240.5 187.5q20 19 26 -1q2 -8 -4 -13q-98 -86 -165.5 -141.5t-164 -107.5t-159.5 -48q-68 4 -101.5 34.5t-32.5 71.5t11 75t22 54q23 35 84 105q-35 -29 -83 -71t-52 -46q-17 -14 -21 1z" />
<glyph unicode="&#xfb02;" horiz-adv-x="1093" d="M-4 -55q-18 150 123 475q-10 -4 -15 0q-6 4 -13 18.5t-11 36t1 43t28.5 43t64.5 31.5q12 4 33 8q152 281 293 377q127 88 275.5 53t180.5 -172l58 94q34 63 14 81q-11 10 -41 -7q-4 -2 -19.5 -9t-21.5 -9q-14 -6 -17 -1t7 15q49 37 135 69.5t141 34.5q136 0 60 -131 q-33 -55 -173.5 -207.5t-170.5 -191.5q-210 -276 -268 -440q-50 -141 61 -125q28 4 65 18q88 33 201 123t176 156q24 24 29 7q3 -12 -10 -26q-175 -179 -277 -247q-147 -99 -254 -85q-63 8 -93 44t-26.5 89.5t19.5 105.5t45 110q-66 -70 -92 -86q-21 -14 -27 -1q-4 10 12 23 q96 78 207 225q139 180 248 353v2q-16 61 -70.5 84.5t-114 14.5t-106.5 -40q-121 -78 -280 -295q113 -10 164 -49q28 -22 43 -43q12 -23 7 -33t-28 2q-84 53 -268 2l-27 -39q-125 -201 -181 -385t-3 -247q7 -9 -2 -13q-5 -2 -8 2q-61 49 -74 142z" />
<glyph unicode="&#xfb03;" horiz-adv-x="1585" d="M981 208q-1 2 -1 5q0 16 23 33q43 35 153 143.5t144 126.5q44 24 76 24q19 0 34 -9q12 -7 5 -15q-85 -86 -153 -246q-44 -104 -44 -156q0 -28 13 -42q11 -12 31 -12q40 0 118 48q116 74 242 187q20 19 26 -1v-4q0 -5 -4 -9q-98 -86 -166 -141q-68 -56 -164 -108 q-90 -48 -150 -48h-9q-67 4 -101 34q-33 30 -33 70t11 77q10 34 23 54q18 29 82 105q-23 -18 -71 -61.5t-65 -55.5q-17 -14 -20 1zM1423 678q4 35 33 67q28 33 64 43q12 3 23 3q21 -1 35 -13q19 -16 19 -44v-10q-4 -36 -32 -69q-29 -31 -65 -40q-12 -3 -22 -3q-20 0 -36 12 q-19 16 -20 44q0 5 1 10zM510 -55q-2 17 -2 36q0 151 125 439q-10 -4 -15 0q-6 4 -13 18.5t-11 36t1 43t28.5 43t64.5 31.5q12 4 33 8q152 281 293 377q88 59 188 63h14q92 0 164 -49q40 -26 67.5 -67t27.5 -85q0 -6 -6 -7q-8 -1 -11 10q-12 47 -47 72.5t-78 27.5h-14 q-36 0 -73 -8q-44 -10 -79 -33q-121 -78 -280 -295q113 -10 164 -49q28 -22 43 -43q12 -23 7 -33t-28 2q-43 27 -112 27q-66 0 -156 -25l-27 -39q-125 -201 -181 -385q-29 -95 -29 -157q0 -59 26 -90q7 -9 -2 -13q-2 -1 -3 -1q-3 0 -5 3q-61 49 -74 142zM-4 -55q-2 17 -2 36 q0 151 125 439q-10 -4 -15 0q-6 4 -13 18.5t-11 36t1 43t28.5 43t64.5 31.5q12 4 33 8q152 281 293 377q88 59 188 63h14q92 0 164 -49q40 -26 67.5 -67t27.5 -85q0 -6 -6 -7q-8 -1 -11 10q-12 47 -47 72.5t-78 27.5h-14q-36 0 -73 -8q-44 -10 -79 -33q-121 -78 -280 -295 q113 -10 164 -49q28 -22 43 -43q12 -23 7 -33t-28 2q-43 27 -112 27q-66 0 -156 -25l-27 -39q-125 -201 -181 -385q-29 -95 -29 -157q0 -59 26 -90q7 -9 -2 -13q-2 -1 -3 -1q-3 0 -5 3q-61 49 -74 142z" />
<glyph unicode="&#xfb04;" horiz-adv-x="1630" d="M1014 239q-1 2 -1 4q0 8 13 19q96 78 207 225q203 264 317 465q21 40 21 61q0 13 -7 20q-11 10 -40 -7q-4 -2 -19.5 -9t-21.5 -9q-14 -6 -17.5 -1t6.5 15q49 37 135.5 69.5t141.5 34.5q86 0 86 -54q0 -30 -27 -77q-33 -55 -173 -207.5t-171 -191.5q-210 -276 -268 -440 q-15 -44 -15 -72q0 -55 56 -55q10 0 21 2q28 4 65 18q88 33 200.5 123t176.5 156q24 24 28 7q3 -12 -10 -26q-175 -179 -276 -247q-129 -87 -227 -87q-14 0 -27 2q-63 8 -93 44q-27 33 -27 80v9q3 54 19.5 106t44.5 110q-66 -70 -92 -86q-21 -14 -26 -1zM510 -55 q-2 17 -2 36q0 151 125 439q-10 -4 -15 0q-6 4 -13 18.5t-11 36t1 43t28.5 43t64.5 31.5q12 4 33 8q152 281 293 377q88 59 188 63h14q92 0 164 -49q40 -26 67.5 -67t27.5 -85q0 -6 -6 -7q-8 -1 -11 10q-12 47 -47 72.5t-78 27.5h-14q-36 0 -73 -8q-44 -10 -79 -33 q-121 -78 -280 -295q113 -10 164 -49q28 -22 43 -43q12 -23 7 -33t-28 2q-43 27 -112 27q-66 0 -156 -25l-27 -39q-125 -201 -181 -385q-29 -95 -29 -157q0 -59 26 -90q7 -9 -2 -13q-2 -1 -3 -1q-3 0 -5 3q-61 49 -74 142zM-4 -55q-2 17 -2 36q0 151 125 439q-10 -4 -15 0 q-6 4 -13 18.5t-11 36t1 43t28.5 43t64.5 31.5q12 4 33 8q152 281 293 377q88 59 188 63h14q92 0 164 -49q40 -26 67.5 -67t27.5 -85q0 -6 -6 -7q-8 -1 -11 10q-12 47 -47 72.5t-78 27.5h-14q-36 0 -73 -8q-44 -10 -79 -33q-121 -78 -280 -295q113 -10 164 -49 q28 -22 43 -43q12 -23 7 -33t-28 2q-43 27 -112 27q-66 0 -156 -25l-27 -39q-125 -201 -181 -385q-29 -95 -29 -157q0 -59 26 -90q7 -9 -2 -13q-2 -1 -3 -1q-3 0 -5 3q-61 49 -74 142z" />
</font>
</defs>
</svg>
